<svg xmlns="http://www.w3.org/2000/svg">
    <symbol id="banzhu" viewBox="0 0 18 18">
        <g> <path class="st0" d="M9,2c3.9,0,7,3.1,7,7s-3.1,7-7,7s-7-3.1-7-7S5.1,2,9,2 M9,1C4.6,1,1,4.6,1,9s3.6,8,8,8s8-3.6,8-8S13.4,1,9,1
		L9,1z"/> </g> <g> <g> <path class="st0" d="M8.5,11.8c-0.3,0-0.5-0.2-0.5-0.5v-1C8,9,9.5,8.2,9.6,8.1c0.6-0.3,0.9-0.8,0.9-1.4c0-0.8-0.7-1.5-1.5-1.5
			S7.5,5.9,7.5,6.8C7.5,7,7.3,7.3,7,7.3S6.5,7,6.5,6.8c0-1.4,1.1-2.5,2.5-2.5s2.5,1.1,2.5,2.5c0,1-0.6,1.9-1.5,2.3
			c-0.2,0.1-1,0.6-1,1.2v1C9,11.5,8.8,11.8,8.5,11.8z"/> </g> <g> <path class="st0" d="M8.5,13.8c-0.3,0-0.5-0.2-0.5-0.5s0.2-0.5,0.5-0.5h0C8.8,12.8,9,13,9,13.3S8.8,13.8,8.5,13.8z"/> </g> </g> 
    </symbol>
    <symbol id="baobiao" viewBox="0 0 18 18">
        <g> <path class="st0" d="M15.7,16.3H2.3c-0.4,0-0.8-0.4-0.8-0.8l-0.1-13C1.4,2.2,1.6,2,1.9,2c0,0,0,0,0,0c0.3,0,0.5,0.2,0.5,0.5
		l0.1,12.8h13.2c0.3,0,0.5,0.2,0.5,0.5S15.9,16.3,15.7,16.3z"/> </g> <g> <path class="st0" d="M4,14.5c-0.1,0-0.2,0-0.3-0.1c-0.2-0.1-0.3-0.4-0.2-0.7l2.8-4.7C6.5,8.9,6.7,8.7,7,8.7c0.2,0,0.5,0.1,0.7,0.2
		l3.3,3.3l5.7-7.5c0.2-0.2,0.5-0.3,0.7-0.1c0.2,0.2,0.3,0.5,0.1,0.7L11.6,13c-0.1,0.2-0.4,0.3-0.6,0.3c-0.2,0-0.5-0.1-0.6-0.2
		L7.1,9.8l-2.7,4.5C4.3,14.4,4.2,14.5,4,14.5z M7.2,9.6L7.2,9.6C7.2,9.6,7.2,9.6,7.2,9.6z"/> </g> 
    </symbol>
    <symbol id="caiwu" viewBox="0 0 18 18">
        <g> <path class="st0" d="M15.5,6.2c0.3,0,0.5,0.2,0.5,0.5v7.7c0,0.3-0.2,0.5-0.5,0.5h-13c-0.3,0-0.5-0.2-0.5-0.5V6.7
		c0-0.3,0.2-0.5,0.5-0.5H15.5 M15.5,5.2h-13C1.7,5.2,1,5.8,1,6.7v7.7c0,0.8,0.7,1.5,1.5,1.5h13c0.8,0,1.5-0.7,1.5-1.5V6.7
		C17,5.8,16.3,5.2,15.5,5.2L15.5,5.2z"/> </g> <g> <path class="st0" d="M15.7,3.4H2.3c-0.3,0-0.5-0.2-0.5-0.5s0.2-0.5,0.5-0.5h13.3c0.3,0,0.5,0.2,0.5,0.5S15.9,3.4,15.7,3.4z"/> </g> <g> <g> <path class="st0" d="M11.2,10.3H6.8c-0.3,0-0.5-0.2-0.5-0.5s0.2-0.5,0.5-0.5h4.4c0.3,0,0.5,0.2,0.5,0.5S11.5,10.3,11.2,10.3z"/> </g> <g> <path class="st0" d="M11.2,12.5H6.8c-0.3,0-0.5-0.2-0.5-0.5s0.2-0.5,0.5-0.5h4.4c0.3,0,0.5,0.2,0.5,0.5S11.5,12.5,11.2,12.5z"/> </g> <g> <path class="st0" d="M9,14.3c-0.3,0-0.5-0.2-0.5-0.5v-3.6C8.5,10,8.7,9.8,9,9.8s0.5,0.2,0.5,0.5v3.6C9.5,14.1,9.3,14.3,9,14.3z"/> </g> <g> <path class="st0" d="M9,9.9L6.6,7.5C6.5,7.3,6.5,7,6.6,6.8s0.5-0.2,0.7,0L9,8.4l1.6-1.6c0.2-0.2,0.5-0.2,0.7,0s0.2,0.5,0,0.7
			L9,9.9z"/> </g> </g> 
    </symbol>
    <symbol id="error" viewBox="0 0 20 20">
       <g> <g> <g> <path d="M14.4,13.9c-0.2,0.2-0.5,0.2-0.7,0L5.9,6.1c-0.2-0.2-0.2-0.5,0-0.7c0.2-0.2,0.5-0.2,0.7,0l7.8,7.8
				C14.6,13.4,14.6,13.7,14.4,13.9z"/> </g> </g> <g> <g> <path d="M14.4,6.1l-7.8,7.8c-0.2,0.2-0.5,0.2-0.7,0c-0.2-0.2-0.2-0.5,0-0.7l7.8-7.8c0.2-0.2,0.5-0.2,0.7,0
				C14.6,5.6,14.6,5.9,14.4,6.1z"/> </g> </g> </g> <g> <path d="M10.1,19.1c-5.2,0-9.5-4.3-9.5-9.5s4.3-9.5,9.5-9.5s9.5,4.3,9.5,9.5S15.4,19.1,10.1,19.1z M10.1,1.1
		c-4.7,0-8.5,3.8-8.5,8.5s3.8,8.5,8.5,8.5s8.5-3.8,8.5-8.5S14.8,1.1,10.1,1.1z"/> </g> 
    </symbol>
    <symbol id="fuxuan" viewBox="0 0 14 14">
        <g> <path class="st0" d="M6.2,12.4L1.4,8.8C1,8.5,0.9,7.8,1.2,7.4c0.3-0.4,1-0.5,1.4-0.2l3.2,2.4l5.4-7.2c0.3-0.4,1-0.5,1.4-0.2
		c0.4,0.3,0.5,1,0.2,1.4L6.2,12.4z"/> </g> 
    </symbol>
    <symbol id="gongdan" viewBox="0 0 18 18">
        <g> <path class="st0" d="M14.3,17.2H3.7c-1,0-1.9-0.8-1.9-1.8V4.6c0-1,0.8-1.8,1.9-1.8h0.9c0.3,0,0.5,0.2,0.5,0.5S4.8,3.8,4.6,3.8H3.7
		c-0.5,0-0.9,0.4-0.9,0.8v10.8c0,0.4,0.4,0.8,0.9,0.8h10.6c0.5,0,0.9-0.4,0.9-0.8V4.6c0-0.4-0.4-0.8-0.9-0.8h-0.9
		c-0.3,0-0.5-0.2-0.5-0.5s0.2-0.5,0.5-0.5h0.9c1,0,1.9,0.8,1.9,1.8v10.8C16.2,16.4,15.3,17.2,14.3,17.2z"/> </g> <g> <path class="st0" d="M11.7,5.1H6.3c-1,0-1.8-0.8-1.8-1.8s0.8-1.8,1.8-1.8h5.5c1,0,1.8,0.8,1.8,1.8S12.7,5.1,11.7,5.1z M6.3,2.5
		c-0.4,0-0.8,0.3-0.8,0.8s0.3,0.8,0.8,0.8h5.5c0.4,0,0.8-0.3,0.8-0.8s-0.3-0.8-0.8-0.8H6.3z"/> </g> <g> <g> <path class="st0" d="M13,8H5C4.7,8,4.5,7.8,4.5,7.5S4.7,7,5,7h8c0.3,0,0.5,0.2,0.5,0.5S13.3,8,13,8z"/> </g> <g> <path class="st0" d="M13,11.3H5c-0.3,0-0.5-0.2-0.5-0.5s0.2-0.5,0.5-0.5h8c0.3,0,0.5,0.2,0.5,0.5S13.3,11.3,13,11.3z"/> </g> <g> <path class="st0" d="M13,14.7H5c-0.3,0-0.5-0.2-0.5-0.5s0.2-0.5,0.5-0.5h8c0.3,0,0.5,0.2,0.5,0.5S13.3,14.7,13,14.7z"/> </g> </g> 
    </symbol>
    <symbol id="home" viewBox="0 0 18 18">
        <g> <path class="st0" d="M9.5,9.6"/> </g> <g> <path class="st0" d="M9.5,9.6"/> </g> <g> <path class="st1" d="M9.5,9.6"/> </g> <g> <path class="st2" d="M17,9.6c-0.1,0-0.2,0-0.3-0.1L9,2.8L2.4,9.5c-0.2,0.2-0.5,0.2-0.7,0s-0.2-0.5,0-0.7l7-7c0.2-0.2,0.5-0.2,0.7,0
		l8,7c0.2,0.2,0.2,0.5,0,0.7C17.3,9.5,17.1,9.6,17,9.6z"/> </g> <g> <path class="st2" d="M15,17.6h-3.7c-0.3,0-0.6-0.3-0.6-0.6v-3.4H8.4V17c0,0.3-0.3,0.6-0.6,0.6H4c-0.6,0-1-0.4-1-1v-6.5
		c0-0.3,0.2-0.5,0.5-0.5S4,9.8,4,10.1v6.5h3.4v-3.4c0-0.3,0.3-0.6,0.6-0.6H11c0.3,0,0.6,0.3,0.6,0.6v3.4H15l0-6.5
		c0-0.3,0.2-0.5,0.5-0.5S16,9.8,16,10.1v6.5C16,17.1,15.5,17.6,15,17.6z"/> </g> <g> <path class="st2" d="M15,5.6c-0.3,0-0.5-0.2-0.5-0.5V3.6H13c-0.3,0-0.5-0.2-0.5-0.5s0.2-0.5,0.5-0.5h1.7c0.4,0,0.8,0.4,0.8,0.8v1.7
		C15.5,5.4,15.3,5.6,15,5.6z M14.7,3.6L14.7,3.6L14.7,3.6z"/> </g> 
    </symbol>
    <symbol id="info" viewBox="0 0 20 20">
       <g> <path d="M10.5,19C5.3,19,1,14.7,1,9.5S5.3,0,10.5,0S20,4.3,20,9.5S15.7,19,10.5,19z M10.5,1C5.8,1,2,4.8,2,9.5S5.8,18,10.5,18
		S19,14.2,19,9.5S15.2,1,10.5,1z"/> </g> <g> <path d="M11.6,7.1v6c0,0.5,0.1,0.9,0.2,1c0.1,0.1,0.4,0.2,0.7,0.3v0.3H8.4v-0.3c0.3,0,0.6-0.1,0.7-0.3c0.1-0.1,0.2-0.5,0.2-1V8.7
		c0-0.5-0.1-0.9-0.2-1C9,7.5,8.8,7.5,8.4,7.4V7.1H11.6z M10.4,3.5c0.4,0,0.6,0.1,0.9,0.4s0.4,0.5,0.4,0.9s-0.1,0.6-0.4,0.9
		C11.1,5.8,10.8,6,10.4,6c-0.3,0-0.6-0.1-0.9-0.4C9.3,5.4,9.2,5.1,9.2,4.7s0.1-0.6,0.4-0.9C9.8,3.6,10.1,3.5,10.4,3.5z"/> </g> 
    </symbol>
    <symbol id="jichu" viewBox="0 0 18 18">
        <g> <path class="st0" d="M16.5,3.6c0.3,0,0.5,0.2,0.5,0.5v9c0,0.3-0.2,0.5-0.5,0.5h-15c-0.3,0-0.5-0.2-0.5-0.5v-9
		c0-0.3,0.2-0.5,0.5-0.5H16.5 M16.5,2.6h-15C0.7,2.6,0,3.3,0,4.1v9c0,0.8,0.7,1.5,1.5,1.5h15c0.8,0,1.5-0.7,1.5-1.5v-9
		C18,3.3,17.3,2.6,16.5,2.6L16.5,2.6z"/> </g> <g> <circle class="st0" cx="14" cy="10.1" r="1"/> </g> <g> <path class="st0" d="M15.5,17.5H2.5C2.3,17.5,2,17.3,2,17s0.2-0.5,0.5-0.5h12.9c0.3,0,0.5,0.2,0.5,0.5S15.7,17.5,15.5,17.5z"/> </g> <g> <path class="st0" d="M9,11.6c-0.3,0-0.5-0.2-0.5-0.5v-2c0-0.3,0.2-0.5,0.5-0.5s0.5,0.2,0.5,0.5v2C9.5,11.4,9.3,11.6,9,11.6z"/> </g> 
    </symbol>
    <symbol id="jiedai" viewBox="0 0 18 18">
        <g> <path class="st0" d="M9,1.4c0.7,0,1.2,0.5,1.2,1.2v1.2c0,0.7-0.5,1.2-1.2,1.2S7.8,4.5,7.8,3.9V2.7C7.8,2,8.3,1.4,9,1.4 M9,0.4
		c-1.2,0-2.2,1-2.2,2.2v1.2c0,1.2,1,2.2,2.2,2.2s2.2-1,2.2-2.2V2.7C11.2,1.4,10.2,0.4,9,0.4L9,0.4z"/> </g> <g> <path class="st0" d="M13.9,8.4c-0.3,0-0.5-0.2-0.5-0.5c0-0.3-0.1-0.5-0.3-0.6l-1.2-0.5C10,6.1,8,6.1,6.1,6.9L4.9,7.3
		C4.8,7.4,4.6,7.6,4.6,7.9c0,0.3-0.2,0.5-0.5,0.5S3.6,8.2,3.6,7.9c0-0.7,0.4-1.3,0.9-1.5l1.2-0.5c2.2-0.9,4.4-0.9,6.6,0l1.2,0.5
		c0.5,0.2,0.9,0.8,0.9,1.5C14.4,8.2,14.2,8.4,13.9,8.4z"/> </g> <g> <path class="st0" d="M14.6,16.8H3.4c-0.6,0-1.1-0.5-1.1-1.1v-5.1H1.4c-0.3,0-0.5-0.2-0.5-0.5V8.3c0-0.3,0.3-0.5,0.5-0.5h15.1
		c0.3,0,0.5,0.3,0.5,0.5v1.7c0,0.3-0.2,0.5-0.5,0.5h-0.8v5.1C15.7,16.3,15.2,16.8,14.6,16.8z M1.9,9.6h0.8c0.3,0,0.5,0.2,0.5,0.5
		v5.6c0,0,0,0.1,0.1,0.1h11.3c0,0,0.1,0,0.1-0.1v-5.6c0-0.3,0.2-0.5,0.5-0.5h0.8V8.8H1.9V9.6z"/> </g> 
    </symbol>
    <symbol id="kanban" viewBox="0 0 18 18">
        <g> <line class="st0" x1="15.9" y1="9.1" x2="17.2" y2="9.1"/> <line class="st0" x1="1.5" y1="9.1" x2="2.8" y2="9.1"/> </g> <g> <line class="st0" x1="12.6" y1="4.5" x2="13.3" y2="3.3"/> <path class="st0" d="M5.4,17"/> </g> <g> <line class="st0" x1="6.1" y1="4.5" x2="5.4" y2="3.3"/> </g> <g> <line class="st0" x1="2.8" y1="9.1" x2="1.5" y2="9.1"/> <line class="st0" x1="17.2" y1="9.1" x2="15.9" y2="9.1"/> </g> <g> <line class="st0" x1="9.3" y1="7.6" x2="9.3" y2="8.9"/> <circle class="st0" cx="9.3" cy="10.9" r="1.3"/> </g> <path class="st1" d="M17.2,11.8"/> <path class="st2" d="M14.3,15h1.5c1.1-1.4,1.8-3.2,1.8-5.1c0-4.5-3.7-8.2-8.2-8.2S1.1,5.3,1.1,9.9c0,1.9,0.7,3.7,1.8,5.1h1.5"/> 
    </symbol>
    <symbol id="kehu" viewBox="0 0 18 18">
        <g> <path class="st0" d="M9.4,2c1.1,0,2,0.9,2,2v2.9c0,1.1-0.9,2-2,2s-2-0.9-2-2V4C7.4,2.9,8.3,2,9.4,2 M9.4,1L9.4,1c-1.7,0-3,1.4-3,3
		v2.9c0,1.7,1.4,3,3,3h0c1.7,0,3-1.4,3-3V4C12.4,2.4,11.1,1,9.4,1L9.4,1z"/> </g> <g> <path class="st0" d="M9.3,10.5c1.3,0,2.6,0.3,3.9,0.8l1.6,0.6c0.1,0,0.2,0.2,0.2,0.5v2.3H3.7v-2.3c0-0.3,0.1-0.5,0.2-0.5l1.6-0.6
		C6.7,10.7,8,10.5,9.3,10.5 M9.3,9.5c-1.4,0-2.9,0.3-4.2,0.8L3.5,11c-0.5,0.2-0.8,0.8-0.8,1.4v2.4c0,0.5,0.4,1,0.8,1h11.8
		c0.4,0,0.8-0.4,0.8-1v-2.4c0-0.6-0.3-1.2-0.8-1.4l-1.6-0.6C12.2,9.8,10.8,9.5,9.3,9.5L9.3,9.5z"/> </g> <g> <path class="st0" d="M1.1,12.1c-0.3,0-0.5-0.2-0.5-0.5V10c0-0.6,0.3-1.2,0.9-1.4l0.4-0.2C2.2,8.3,3,8.1,3.7,8
		c-0.4-0.4-0.6-1-0.6-1.6V4.4c0-1.4,1.1-2.5,2.5-2.5c0.3,0,0.5,0.2,0.5,0.5S5.9,2.9,5.6,2.9c-0.8,0-1.5,0.7-1.5,1.5v1.9
		c0,0.6,0.4,1.2,1,1.4C5.3,7.8,5.4,8,5.4,8.3c0,0.2-0.2,0.4-0.4,0.4C4.1,8.9,2.6,9.2,2.3,9.3L1.9,9.5c-0.1,0-0.2,0.2-0.2,0.5v1.6
		C1.6,11.8,1.4,12.1,1.1,12.1z"/> </g> 
    </symbol>
    <symbol id="kucun" viewBox="0 0 18 18">
        <g> <path class="st0" d="M2.6,17.2c-1.1,0-2-0.9-2-2L0.5,7c0-0.7,0.3-1.3,0.8-1.6l6.7-4.9c0.5-0.4,1.2-0.4,1.7,0l6.8,4.8
		c0.5,0.4,0.8,1,0.9,1.6l0.1,8.2c0,1.1-0.9,2-2,2L2.6,17.2C2.6,17.2,2.6,17.2,2.6,17.2z M8.9,1.2c-0.1,0-0.2,0-0.3,0.1L1.9,6.1
		C1.7,6.3,1.5,6.6,1.5,7l0.1,8.2c0,0.6,0.5,1,1,1c0,0,0,0,0,0l12.9-0.1l0,0c0.5,0,1-0.5,1-1l-0.1-8.2c0-0.3-0.2-0.6-0.4-0.8L9.2,1.2
		C9.1,1.2,9,1.2,8.9,1.2z"/> </g> <g> <g> <path class="st0" d="M5.9,10.2H3.3C3,10.2,2.8,10,2.8,9.7S3,9.2,3.3,9.2h2.7c0.3,0,0.5,0.2,0.5,0.5S6.2,10.2,5.9,10.2z"/> </g> <g> <path class="st0" d="M5.9,12.2H3.3c-0.3,0-0.5-0.2-0.5-0.5s0.2-0.5,0.5-0.5h2.7c0.3,0,0.5,0.2,0.5,0.5S6.2,12.2,5.9,12.2z"/> </g> <g> <path class="st0" d="M5.9,14.2H3.3c-0.3,0-0.5-0.2-0.5-0.5s0.2-0.5,0.5-0.5h2.7c0.3,0,0.5,0.2,0.5,0.5S6.2,14.2,5.9,14.2z"/> </g> <g> <path class="st0" d="M10.3,10.2H8.6c-0.3,0-0.5-0.2-0.5-0.5s0.2-0.5,0.5-0.5h1.8c0.3,0,0.5,0.2,0.5,0.5S10.6,10.2,10.3,10.2z"/> </g> <g> <path class="st0" d="M10.3,12.2H8.6c-0.3,0-0.5-0.2-0.5-0.5s0.2-0.5,0.5-0.5h1.8c0.3,0,0.5,0.2,0.5,0.5S10.6,12.2,10.3,12.2z"/> </g> <g> <path class="st0" d="M14.8,10.2H13c-0.3,0-0.5-0.2-0.5-0.5s0.2-0.5,0.5-0.5h1.8c0.3,0,0.5,0.2,0.5,0.5S15,10.2,14.8,10.2z"/> </g> <g> <path class="st0" d="M14.8,10.2H13c-0.3,0-0.5-0.2-0.5-0.5s0.2-0.5,0.5-0.5h1.8c0.3,0,0.5,0.2,0.5,0.5S15,10.2,14.8,10.2z"/> </g> </g> 
    </symbol>
    <symbol id="lang" viewBox="0 0 18 18">
        <g> <path class="st0" d="M8.8,8.6"/> </g> <g> <path class="st0" d="M8.8,8.6"/> </g> <g> <path class="st1" d="M8.8,8.6"/> </g> <g> <g> <path class="st2" d="M16.3,13.5C16.3,13.5,16.3,13.5,16.3,13.5l-3-0.1c-1.3,0-2.5-0.2-3.7-0.6l-3-1c-0.8-0.3-1.6-0.4-2.5-0.4H2
			L0.5,2c0-0.3,0-0.6,0.2-0.8C0.9,1,1.2,0.8,1.5,0.8h2.7c0.9,0,1.7,0.1,2.5,0.4l2.1,0.6c1.1,0.3,2.2,0.5,3.4,0.5H14
			c0.5,0,0.9,0.3,1,0.8l2.2,9.1c0.1,0.3,0,0.6-0.2,0.9C16.9,13.3,16.6,13.5,16.3,13.5z M2.8,10.3h1.2c0.9,0,1.9,0.2,2.8,0.5l3,1
			c1.1,0.4,2.3,0.6,3.4,0.6l3,0.1L14,3.3h-1.8c-1.2,0-2.5-0.2-3.7-0.5L6.4,2.2C5.7,2,5,1.8,4.2,1.8H1.5L2.8,10.3z M1.5,1.3l0,0.5
			c0,0,0,0,0,0L1.5,1.3z"/> </g> <g> <path class="st2" d="M3.4,16.3c-0.2,0-0.4-0.2-0.5-0.4l-1-5c-0.1-0.3,0.1-0.5,0.4-0.6c0.3-0.1,0.5,0.1,0.6,0.4l1,5
			C4,16,3.8,16.3,3.4,16.3C3.5,16.3,3.4,16.3,3.4,16.3z"/> </g> </g> 
    </symbol>
    <symbol id="logout" viewBox="0 0 18 18">
        <g> <path class="st0" d="M9.5,9C9.2,9,9,8.8,9,8.5v-7C9,1.2,9.2,1,9.5,1S10,1.2,10,1.5v7C10,8.8,9.8,9,9.5,9z"/> </g> <g> <path class="st0" d="M9.5,16.5C5.4,16.5,2,13.1,2,9c0-2.9,1.7-5.5,4.3-6.8c0.2-0.1,0.5,0,0.7,0.2C7.1,2.7,7,3,6.7,3.1
		C4.5,4.2,3,6.5,3,9c0,3.6,2.9,6.5,6.5,6.5S16,12.6,16,9c0-2.5-1.5-4.8-3.7-5.9C12,3,11.9,2.7,12,2.5c0.1-0.2,0.4-0.4,0.7-0.2
		C15.3,3.5,17,6.1,17,9C17,13.1,13.6,16.5,9.5,16.5z"/> </g> 
    </symbol>
    <symbol id="message" viewBox="0 0 18 18">
        <g> <g> <path class="st0" d="M9,17.3c-0.3,0-0.5-0.2-0.7-0.4L7,14.6l-4.3,0c-0.9,0-1.7-0.8-1.7-1.7V3.4c0-0.9,0.8-1.7,1.7-1.7h12.6
			c0.9,0,1.7,0.8,1.7,1.7v9.4c0,0.9-0.8,1.7-1.7,1.7h-4.2l-1.4,2.3C9.5,17.1,9.3,17.3,9,17.3z M2.7,2.7C2.3,2.7,2,3.1,2,3.4v9.4
			c0,0.4,0.3,0.7,0.7,0.7h4.2c0.4,0,0.8,0.2,1,0.5l1.1,2l1.1-2c0.2-0.3,0.6-0.5,1-0.5h4.2c0.4,0,0.7-0.3,0.7-0.7V3.4
			c0-0.4-0.3-0.7-0.7-0.7H2.7z"/> </g> <g> <g> <circle class="st0" cx="5" cy="8.1" r="1"/> </g> <g> <circle class="st0" cx="9" cy="8.1" r="1"/> </g> <g> <circle class="st0" cx="13" cy="8.1" r="1"/> </g> </g> <g class="st1"> <g> <path class="st2" d="M1,9"/> </g> </g> <g class="st1"> <g> <path class="st2" d="M17,9.6"/> </g> </g> </g> 
    </symbol>
    <symbol id="miam" viewBox="0 0 18 18">
        <g> <path class="st0" d="M16.6,7.7C16.8,7.7,17,7.8,17,8v8.3c0,0.2-0.2,0.4-0.4,0.4H1.4c-0.2,0-0.4-0.2-0.4-0.4V8
		c0-0.2,0.2-0.4,0.4-0.4H16.6 M16.6,6.7H1.4C0.6,6.7,0,7.3,0,8v8.3c0,0.7,0.6,1.4,1.4,1.4h15.3c0.7,0,1.4-0.6,1.4-1.4V8
		C18,7.3,17.4,6.7,16.6,6.7L16.6,6.7z"/> </g> <g> <path class="st0" d="M13.5,7.7c-0.3,0-0.5-0.2-0.5-0.5v-2c0-2.2-1.8-4-4-4S5,3,5,5.2v2c0,0.3-0.2,0.5-0.5,0.5S4,7.4,4,7.2v-2
		c0-2.8,2.2-5,5-5s5,2.2,5,5v2C14,7.4,13.8,7.7,13.5,7.7z"/> </g> <g> <path class="st0" d="M9,15.2c-0.3,0-0.5-0.2-0.5-0.5v-3c0-0.3,0.2-0.5,0.5-0.5s0.5,0.2,0.5,0.5v3C9.5,14.9,9.3,15.2,9,15.2z"/> </g> 
    </symbol>
    <symbol id="mima" viewBox="0 0 18 18">
        <g> <path class="st0" d="M16.6,7.7C16.8,7.7,17,7.8,17,8v8.3c0,0.2-0.2,0.4-0.4,0.4H1.4c-0.2,0-0.4-0.2-0.4-0.4V8
		c0-0.2,0.2-0.4,0.4-0.4H16.6 M16.6,6.7H1.4C0.6,6.7,0,7.3,0,8v8.3c0,0.7,0.6,1.4,1.4,1.4h15.3c0.7,0,1.4-0.6,1.4-1.4V8
		C18,7.3,17.4,6.7,16.6,6.7L16.6,6.7z"/> </g> <g> <path class="st0" d="M13.5,7.7c-0.3,0-0.5-0.2-0.5-0.5v-2c0-2.2-1.8-4-4-4S5,3,5,5.2v2c0,0.3-0.2,0.5-0.5,0.5S4,7.4,4,7.2v-2
		c0-2.8,2.2-5,5-5s5,2.2,5,5v2C14,7.4,13.8,7.7,13.5,7.7z"/> </g> <g> <path class="st0" d="M9,15.2c-0.3,0-0.5-0.2-0.5-0.5v-3c0-0.3,0.2-0.5,0.5-0.5s0.5,0.2,0.5,0.5v3C9.5,14.9,9.3,15.2,9,15.2z"/> </g> 
    </symbol>
    <symbol id="more" viewBox="0 0 24 24">
        <g> <g> <circle cx="3.3" cy="5" r="1"/> </g> <g> <path d="M21.8,6h-15c-0.6,0-1-0.4-1-1s0.4-1,1-1h15c0.6,0,1,0.4,1,1S22.3,6,21.8,6z"/> </g> <g> <circle cx="3.3" cy="12" r="1"/> </g> <g> <path d="M21.8,13h-15c-0.6,0-1-0.4-1-1s0.4-1,1-1h15c0.6,0,1,0.4,1,1S22.3,13,21.8,13z"/> </g> <g> <circle cx="3.3" cy="19" r="1"/> </g> <g> <path d="M21.8,20h-15c-0.6,0-1-0.4-1-1s0.4-1,1-1h15c0.6,0,1,0.4,1,1S22.3,20,21.8,20z"/> </g> </g> 
    </symbol>
    <symbol id="shichang" viewBox="0 0 18 18">
        <g> <g> <path class="st0" d="M8.6,17C4.4,17,1,13.6,1,9.4c0-3.8,2.8-7,6.6-7.5c0.3,0,0.5,0.2,0.6,0.4c0,0.3-0.2,0.5-0.4,0.6
			C4.5,3.3,2,6.1,2,9.4C2,13,5,16,8.6,16c3.3,0,6.1-2.5,6.6-5.8c0-0.3,0.3-0.5,0.6-0.4c0.3,0,0.5,0.3,0.4,0.6
			C15.7,14.1,12.4,17,8.6,17z"/> </g> <g> <path class="st0" d="M16.1,9H9V1.7c0-0.2,0.1-0.4,0.3-0.6C9.4,1,9.6,0.9,9.8,0.9c3.9,0.2,7,3.2,7.3,7.1c0,0.3-0.1,0.5-0.3,0.7
			C16.7,8.9,16.4,9,16.1,9z M10,8h6.1c-0.3-3.2-2.9-5.8-6.1-6.1V8z"/> </g> </g> 
    </symbol>
    <symbol id="spinner" viewBox="0 0 32 32">
       <title>spinner9</title> <path d="M16 0c-8.711 0-15.796 6.961-15.995 15.624 0.185-7.558 5.932-13.624 12.995-13.624 7.18 0 13 6.268 13 14 0 1.657 1.343 3 3 3s3-1.343 3-3c0-8.837-7.163-16-16-16zM16 32c8.711 0 15.796-6.961 15.995-15.624-0.185 7.558-5.932 13.624-12.995 13.624-7.18 0-13-6.268-13-14 0-1.657-1.343-3-3-3s-3 1.343-3 3c0 8.837 7.163 16 16 16z"/> 
    </symbol>
    <symbol id="success" viewBox="0 0 20 20">
       <g> <g> <path d="M10.5,18.5c-5,0-9-4-9-9s4-9,9-9s9,4,9,9S15.5,18.5,10.5,18.5z M10.5,1.4c-4.4,0-8.1,3.6-8.1,8.1s3.6,8.1,8.1,8.1
			s8.1-3.6,8.1-8.1S14.9,1.4,10.5,1.4z"/> </g> <g> <path d="M10.4,13.2c-0.2,0.3-0.6,0.3-0.9,0l-2.9-2.9c-0.2-0.2-0.2-0.5,0-0.7s0.5-0.2,0.7,0l2.7,2.7l5.2-5.8c0.2-0.2,0.5-0.2,0.7,0
			C16,6.7,16,7,15.9,7.2L10.4,13.2z"/> </g> </g> 
    </symbol>
    <symbol id="warn" viewBox="0 0 20 20">
       <g> <path d="M9.5,19.5c-5,0-9-4-9-9s4-9,9-9s9,4,9,9S14.5,19.5,9.5,19.5z M9.5,2.4c-4.4,0-8.1,3.6-8.1,8.1s3.6,8.1,8.1,8.1
		c4.4,0,8.1-3.6,8.1-8.1S13.9,2.4,9.5,2.4z"/> </g> <g> <path d="M8.3,14.5c0-0.3,0.1-0.6,0.4-0.8c0.2-0.2,0.5-0.3,0.9-0.3c0.3,0,0.6,0.1,0.9,0.3c0.2,0.2,0.3,0.5,0.3,0.8
		c0,0.3-0.1,0.6-0.3,0.8c-0.2,0.2-0.5,0.3-0.8,0.3c-0.4,0-0.7-0.1-0.9-0.3C8.4,15,8.3,14.8,8.3,14.5z M10.6,5.4l-0.3,6.9H8.6
		L8.4,5.4H10.6z"/> </g> 
    </symbol>
    <symbol id="xitong" viewBox="0 0 18 18">
        <g class="st0"> <g> <path class="st1" d="M17,8.6"/> </g> </g> <g> <path class="st2" d="M9.6,2.3"/> </g> <g> <path class="st3" d="M9,6.9c0.9,0,1.7,0.7,1.7,1.7S9.9,10.3,9,10.3S7.3,9.5,7.3,8.6S8.1,6.9,9,6.9 M9,5.9c-1.5,0-2.7,1.2-2.7,2.7
		s1.2,2.7,2.7,2.7s2.7-1.2,2.7-2.7S10.5,5.9,9,5.9L9,5.9z"/> </g> <g> <path class="st3" d="M7.4,16.5c0,0-0.1,0-0.1,0c-1.5-0.3-2.9-1.1-4-2.2c-0.1-0.1-0.2-0.2-0.1-0.4c0-0.1,0.1-0.3,0.2-0.4
		c0.5-0.4,0.6-1.1,0.3-1.6c-0.3-0.6-1-0.8-1.6-0.5c-0.1,0.1-0.3,0.1-0.4,0c-0.1-0.1-0.2-0.2-0.3-0.3c-0.2-0.8-0.4-1.6-0.4-2.4
		c0-0.7,0.1-1.5,0.3-2.2c0-0.1,0.1-0.3,0.3-0.3C1.6,6,1.8,6,1.9,6.1c0.6,0.2,1.3,0,1.6-0.5C3.8,5,3.7,4.3,3.1,3.9
		C3,3.8,3,3.7,2.9,3.5c0-0.1,0-0.3,0.1-0.4c1-1.1,2.2-1.8,3.6-2.3c0.4-0.1,0.9,0.1,1,0.5C7.8,2,8.3,2.3,8.9,2.3
		c0.6,0,1.1-0.4,1.2-0.9c0.1-0.4,0.6-0.7,1-0.6c1.4,0.4,2.6,1.1,3.6,2.1c0.1,0.1,0.2,0.2,0.1,0.4c0,0.1-0.1,0.3-0.2,0.4
		c-0.5,0.4-0.6,1.1-0.3,1.6c0.3,0.6,1,0.8,1.6,0.5c0.1-0.1,0.3-0.1,0.4,0s0.2,0.2,0.3,0.3c0.2,0.8,0.4,1.6,0.4,2.4
		c0,0.7-0.1,1.5-0.3,2.2c0,0.1-0.1,0.3-0.3,0.3c-0.1,0.1-0.3,0.1-0.4,0c-0.6-0.2-1.3,0-1.6,0.5l0,0c-0.3,0.6-0.2,1.3,0.4,1.7
		c0.1,0.1,0.2,0.2,0.2,0.4c0,0.1,0,0.3-0.1,0.4c-1.1,1.2-2.4,2-3.9,2.3c-0.1,0-0.3,0-0.4-0.1c-0.1-0.1-0.2-0.2-0.2-0.3
		c-0.1-0.6-0.6-1.1-1.3-1.1c-0.7,0-1.2,0.5-1.3,1.1c0,0.1-0.1,0.3-0.2,0.4C7.6,16.4,7.5,16.5,7.4,16.5z M4.3,13.9
		C5.1,14.6,6,15.1,7,15.4c0.3-0.9,1.2-1.5,2.1-1.5c0.9,0,1.8,0.6,2.1,1.4c1-0.3,1.9-0.9,2.6-1.6c-0.6-0.7-0.7-1.7-0.2-2.6
		c0.5-0.8,1.4-1.2,2.3-1.1c0.1-0.5,0.1-1,0.1-1.4C16.1,8,16,7.5,15.9,7c-0.9,0.2-1.9-0.3-2.3-1.1C13,5.1,13.1,4,13.7,3.3
		C12.9,2.6,12,2.1,11,1.8c-0.3,0.9-1.2,1.5-2.1,1.5C8,3.3,7.1,2.8,6.8,1.9c-1,0.3-1.9,0.9-2.6,1.6c0.6,0.7,0.7,1.7,0.2,2.6
		C3.9,6.9,3,7.3,2.1,7.2C2,7.6,1.9,8.1,1.9,8.6c0,0.6,0.1,1.1,0.2,1.6c0.9-0.2,1.9,0.3,2.3,1.1C5,12.1,4.9,13.1,4.3,13.9z
		 M14.1,11.4L14.1,11.4L14.1,11.4z"/> </g> 
    </symbol>
    <symbol id="yixiao" viewBox="0 0 18 18">
        <g class="st0"> <g> <path class="st1" d="M8.7,9"/> </g> </g> <g class="st0"> <g> <path class="st1" d="M17,9"/> </g> </g> <g> <path class="st2" d="M8.7,9"/> </g> <g> <path class="st3" d="M8.7,9"/> </g> <g> <g> <g> <path class="st4" d="M6.9,8.7L5.2,7C5,6.8,5,6.4,5.2,6.2c0.2-0.2,0.5-0.2,0.7,0l1,1l1-1c0.2-0.2,0.5-0.2,0.7,0
				c0.2,0.2,0.2,0.5,0,0.7L6.9,8.7z"/> </g> <g> <path class="st4" d="M8.8,9H5C4.7,9,4.5,8.8,4.5,8.5S4.7,8,5,8h3.8c0.3,0,0.5,0.2,0.5,0.5S9.1,9,8.8,9z"/> </g> <g> <path class="st4" d="M8.8,10.9H5c-0.3,0-0.5-0.2-0.5-0.5S4.7,9.9,5,9.9h3.8c0.3,0,0.5,0.2,0.5,0.5S9.1,10.9,8.8,10.9z"/> </g> <g> <path class="st4" d="M6.9,12.9c-0.3,0-0.5-0.2-0.5-0.5V8.5C6.4,8.2,6.6,8,6.9,8s0.5,0.2,0.5,0.5v3.8C7.4,12.6,7.2,12.9,6.9,12.9z
				"/> </g> </g> <g> <path class="st4" d="M12.4,7.1c-0.3,0-0.5-0.2-0.5-0.5v-1c0-0.3,0.2-0.5,0.5-0.5s0.5,0.2,0.5,0.5v1C12.9,6.9,12.7,7.1,12.4,7.1z"/> </g> <g> <path class="st4" d="M12.4,10c-0.3,0-0.5-0.2-0.5-0.5v-1c0-0.3,0.2-0.5,0.5-0.5s0.5,0.2,0.5,0.5v1C12.9,9.8,12.7,10,12.4,10z"/> </g> <g> <path class="st4" d="M12.4,12.9c-0.3,0-0.5-0.2-0.5-0.5v-1c0-0.3,0.2-0.5,0.5-0.5s0.5,0.2,0.5,0.5v1
			C12.9,12.6,12.7,12.9,12.4,12.9z"/> </g> </g> <g> <path class="st4" d="M14.9,4c0.3,0,0.5,0.2,0.5,0.5v9c0,0.3-0.2,0.5-0.5,0.5H2.5C2.2,14,2,13.8,2,13.5v-9C2,4.2,2.2,4,2.5,4H14.9
		 M14.9,3H2.5C1.7,3,1,3.7,1,4.5v9C1,14.3,1.7,15,2.5,15h12.4c0.8,0,1.5-0.7,1.5-1.5v-9C16.4,3.7,15.7,3,14.9,3L14.9,3z"/> </g> 
    </symbol>
    <symbol id="yuding" viewBox="0 0 18 18">
        <g> <path class="st0" d="M14.1,16.8H3.9c-1.2,0-2.1-0.9-2.1-2.1V4.5c0-1.2,0.9-2.1,2.1-2.1h10.1c1.2,0,2.1,0.9,2.1,2.1v10.1
		C16.2,15.8,15.2,16.8,14.1,16.8z M3.9,3.4c-0.6,0-1.1,0.5-1.1,1.1v10.1c0,0.6,0.5,1.1,1.1,1.1h10.1c0.6,0,1.1-0.5,1.1-1.1V4.5
		c0-0.6-0.5-1.1-1.1-1.1H3.9z"/> </g> <g> <g> <path class="st0" d="M5,4.3c-0.3,0-0.5-0.2-0.5-0.5V2c0-0.3,0.2-0.5,0.5-0.5S5.5,1.8,5.5,2v1.8C5.5,4.1,5.3,4.3,5,4.3z"/> </g> <g> <path class="st0" d="M13,4.3c-0.3,0-0.5-0.2-0.5-0.5V2c0-0.3,0.2-0.5,0.5-0.5s0.5,0.2,0.5,0.5v1.8C13.5,4.1,13.3,4.3,13,4.3z"/> </g> </g> <g> <path class="st0" d="M8.1,12.6c-0.3,0-0.5-0.1-0.7-0.3L5.1,9.5C4.9,9.3,4.9,9,5.1,8.8c0.2-0.2,0.5-0.2,0.7,0.1l2.3,2.7l4.1-4.8
		c0.2-0.2,0.5-0.2,0.7-0.1c0.2,0.2,0.2,0.5,0.1,0.7l-4.1,4.8C8.6,12.5,8.4,12.6,8.1,12.6z"/> </g> 
    </symbol>
    <symbol id="zhanghao" viewBox="0 0 18 18">
        <g> <path class="st0" d="M9.5,1.7c1.3,0,2.4,1.1,2.4,2.4v2.7c0,1.3-1.1,2.4-2.4,2.4S7.1,8.1,7.1,6.8V4.1C7.1,2.7,8.2,1.7,9.5,1.7
		 M9.5,0.7c-1.9,0-3.4,1.5-3.4,3.4v2.7c0,1.9,1.5,3.4,3.4,3.4s3.4-1.5,3.4-3.4V4.1C12.9,2.2,11.4,0.7,9.5,0.7L9.5,0.7z"/> </g> <g> <path class="st0" d="M9.5,10.7c1.6,0,3.2,0.3,4.7,0.9l1.9,0.7c0.2,0.1,0.3,0.3,0.3,0.7v2.6c0,0.1,0,0.1,0,0.1h-14c0,0,0-0.1,0-0.1
		v-2.6c0-0.3,0.2-0.6,0.3-0.7l1.9-0.7C6.3,11,7.9,10.7,9.5,10.7 M9.5,9.7c-1.7,0-3.4,0.3-5.1,0.9l-1.9,0.7c-0.6,0.2-1,0.9-1,1.6v2.6
		c0,0.6,0.4,1.1,0.9,1.1h14.1c0.5,0,0.9-0.5,0.9-1.1v-2.6c0-0.7-0.4-1.4-1-1.6l-1.9-0.7C12.9,10,11.2,9.7,9.5,9.7L9.5,9.7z"/> </g> 
    </symbol></svg>