<?xml version="1.0" encoding="utf-8"?>
<!-- Generator: Adobe Illustrator 21.0.0, SVG Export Plug-In . SVG Version: 6.00 Build 0)  -->
<svg version="1.1" id="图层_1" xmlns="http://www.w3.org/2000/svg" xmlns:xlink="http://www.w3.org/1999/xlink" x="0px" y="0px"
	 viewBox="0 0 18 18" style="enable-background:new 0 0 18 18;" xml:space="preserve">
<style type="text/css">
	.st0{fill:#FF0303;}
</style>
<g>
	<path class="st0" d="M9,2c3.9,0,7,3.1,7,7s-3.1,7-7,7s-7-3.1-7-7S5.1,2,9,2 M9,1C4.6,1,1,4.6,1,9s3.6,8,8,8s8-3.6,8-8S13.4,1,9,1
		L9,1z"/>
</g>
<g>
	<g>
		<path class="st0" d="M8.5,11.8c-0.3,0-0.5-0.2-0.5-0.5v-1C8,9,9.5,8.2,9.6,8.1c0.6-0.3,0.9-0.8,0.9-1.4c0-0.8-0.7-1.5-1.5-1.5
			S7.5,5.9,7.5,6.8C7.5,7,7.3,7.3,7,7.3S6.5,7,6.5,6.8c0-1.4,1.1-2.5,2.5-2.5s2.5,1.1,2.5,2.5c0,1-0.6,1.9-1.5,2.3
			c-0.2,0.1-1,0.6-1,1.2v1C9,11.5,8.8,11.8,8.5,11.8z"/>
	</g>
	<g>
		<path class="st0" d="M8.5,13.8c-0.3,0-0.5-0.2-0.5-0.5s0.2-0.5,0.5-0.5h0C8.8,12.8,9,13,9,13.3S8.8,13.8,8.5,13.8z"/>
	</g>
</g>
</svg>
