<?xml version="1.0" encoding="utf-8"?>
<!-- Generator: Adobe Illustrator 21.0.0, SVG Export Plug-In . SVG Version: 6.00 Build 0)  -->
<svg version="1.1" id="图层_1" xmlns="http://www.w3.org/2000/svg" xmlns:xlink="http://www.w3.org/1999/xlink" x="0px" y="0px"
	 viewBox="0 0 18 18" style="enable-background:new 0 0 18 18;" xml:space="preserve">
<style type="text/css">
	.st0{fill:#FF0303;}
</style>
<g>
	<path class="st0" d="M15.7,16.3H2.3c-0.4,0-0.8-0.4-0.8-0.8l-0.1-13C1.4,2.2,1.6,2,1.9,2c0,0,0,0,0,0c0.3,0,0.5,0.2,0.5,0.5
		l0.1,12.8h13.2c0.3,0,0.5,0.2,0.5,0.5S15.9,16.3,15.7,16.3z"/>
</g>
<g>
	<path class="st0" d="M4,14.5c-0.1,0-0.2,0-0.3-0.1c-0.2-0.1-0.3-0.4-0.2-0.7l2.8-4.7C6.5,8.9,6.7,8.7,7,8.7c0.2,0,0.5,0.1,0.7,0.2
		l3.3,3.3l5.7-7.5c0.2-0.2,0.5-0.3,0.7-0.1c0.2,0.2,0.3,0.5,0.1,0.7L11.6,13c-0.1,0.2-0.4,0.3-0.6,0.3c-0.2,0-0.5-0.1-0.6-0.2
		L7.1,9.8l-2.7,4.5C4.3,14.4,4.2,14.5,4,14.5z M7.2,9.6L7.2,9.6C7.2,9.6,7.2,9.6,7.2,9.6z"/>
</g>
</svg>
