<?xml version="1.0" encoding="utf-8"?>
<!-- Generator: Adobe Illustrator 21.0.0, SVG Export Plug-In . SVG Version: 6.00 Build 0)  -->
<svg version="1.1" id="图层_1" xmlns="http://www.w3.org/2000/svg" xmlns:xlink="http://www.w3.org/1999/xlink" x="0px" y="0px"
	 viewBox="0 0 18 18" style="enable-background:new 0 0 18 18;" xml:space="preserve">
<style type="text/css">
	.st0{fill:#FF0303;}
</style>
<g>
	<path class="st0" d="M15.5,6.2c0.3,0,0.5,0.2,0.5,0.5v7.7c0,0.3-0.2,0.5-0.5,0.5h-13c-0.3,0-0.5-0.2-0.5-0.5V6.7
		c0-0.3,0.2-0.5,0.5-0.5H15.5 M15.5,5.2h-13C1.7,5.2,1,5.8,1,6.7v7.7c0,0.8,0.7,1.5,1.5,1.5h13c0.8,0,1.5-0.7,1.5-1.5V6.7
		C17,5.8,16.3,5.2,15.5,5.2L15.5,5.2z"/>
</g>
<g>
	<path class="st0" d="M15.7,3.4H2.3c-0.3,0-0.5-0.2-0.5-0.5s0.2-0.5,0.5-0.5h13.3c0.3,0,0.5,0.2,0.5,0.5S15.9,3.4,15.7,3.4z"/>
</g>
<g>
	<g>
		<path class="st0" d="M11.2,10.3H6.8c-0.3,0-0.5-0.2-0.5-0.5s0.2-0.5,0.5-0.5h4.4c0.3,0,0.5,0.2,0.5,0.5S11.5,10.3,11.2,10.3z"/>
	</g>
	<g>
		<path class="st0" d="M11.2,12.5H6.8c-0.3,0-0.5-0.2-0.5-0.5s0.2-0.5,0.5-0.5h4.4c0.3,0,0.5,0.2,0.5,0.5S11.5,12.5,11.2,12.5z"/>
	</g>
	<g>
		<path class="st0" d="M9,14.3c-0.3,0-0.5-0.2-0.5-0.5v-3.6C8.5,10,8.7,9.8,9,9.8s0.5,0.2,0.5,0.5v3.6C9.5,14.1,9.3,14.3,9,14.3z"/>
	</g>
	<g>
		<path class="st0" d="M9,9.9L6.6,7.5C6.5,7.3,6.5,7,6.6,6.8s0.5-0.2,0.7,0L9,8.4l1.6-1.6c0.2-0.2,0.5-0.2,0.7,0s0.2,0.5,0,0.7
			L9,9.9z"/>
	</g>
</g>
</svg>
