<?xml version="1.0" encoding="utf-8"?>
<!-- Generator: Adobe Illustrator 21.0.0, SVG Export Plug-In . SVG Version: 6.00 Build 0)  -->
<svg version="1.1" id="图层_1" xmlns="http://www.w3.org/2000/svg" xmlns:xlink="http://www.w3.org/1999/xlink" x="0px" y="0px"
	 viewBox="0 0 20 20" style="enable-background:new 0 0 20 20;" xml:space="preserve">
<g>
	<g>
		<g>
			<path d="M14.4,13.9c-0.2,0.2-0.5,0.2-0.7,0L5.9,6.1c-0.2-0.2-0.2-0.5,0-0.7c0.2-0.2,0.5-0.2,0.7,0l7.8,7.8
				C14.6,13.4,14.6,13.7,14.4,13.9z"/>
		</g>
	</g>
	<g>
		<g>
			<path d="M14.4,6.1l-7.8,7.8c-0.2,0.2-0.5,0.2-0.7,0c-0.2-0.2-0.2-0.5,0-0.7l7.8-7.8c0.2-0.2,0.5-0.2,0.7,0
				C14.6,5.6,14.6,5.9,14.4,6.1z"/>
		</g>
	</g>
</g>
<g>
	<path d="M10.1,19.1c-5.2,0-9.5-4.3-9.5-9.5s4.3-9.5,9.5-9.5s9.5,4.3,9.5,9.5S15.4,19.1,10.1,19.1z M10.1,1.1
		c-4.7,0-8.5,3.8-8.5,8.5s3.8,8.5,8.5,8.5s8.5-3.8,8.5-8.5S14.8,1.1,10.1,1.1z"/>
</g>
</svg>
