<?xml version="1.0" encoding="utf-8"?>
<!-- Generator: Adobe Illustrator 21.0.0, SVG Export Plug-In . SVG Version: 6.00 Build 0)  -->
<svg version="1.1" id="图层_1" xmlns="http://www.w3.org/2000/svg" xmlns:xlink="http://www.w3.org/1999/xlink" x="0px" y="0px"
	 viewBox="0 0 18 18" style="enable-background:new 0 0 18 18;" xml:space="preserve">
<style type="text/css">
	.st0{fill:#FF0303;}
</style>
<g>
	<path class="st0" d="M14.3,17.2H3.7c-1,0-1.9-0.8-1.9-1.8V4.6c0-1,0.8-1.8,1.9-1.8h0.9c0.3,0,0.5,0.2,0.5,0.5S4.8,3.8,4.6,3.8H3.7
		c-0.5,0-0.9,0.4-0.9,0.8v10.8c0,0.4,0.4,0.8,0.9,0.8h10.6c0.5,0,0.9-0.4,0.9-0.8V4.6c0-0.4-0.4-0.8-0.9-0.8h-0.9
		c-0.3,0-0.5-0.2-0.5-0.5s0.2-0.5,0.5-0.5h0.9c1,0,1.9,0.8,1.9,1.8v10.8C16.2,16.4,15.3,17.2,14.3,17.2z"/>
</g>
<g>
	<path class="st0" d="M11.7,5.1H6.3c-1,0-1.8-0.8-1.8-1.8s0.8-1.8,1.8-1.8h5.5c1,0,1.8,0.8,1.8,1.8S12.7,5.1,11.7,5.1z M6.3,2.5
		c-0.4,0-0.8,0.3-0.8,0.8s0.3,0.8,0.8,0.8h5.5c0.4,0,0.8-0.3,0.8-0.8s-0.3-0.8-0.8-0.8H6.3z"/>
</g>
<g>
	<g>
		<path class="st0" d="M13,8H5C4.7,8,4.5,7.8,4.5,7.5S4.7,7,5,7h8c0.3,0,0.5,0.2,0.5,0.5S13.3,8,13,8z"/>
	</g>
	<g>
		<path class="st0" d="M13,11.3H5c-0.3,0-0.5-0.2-0.5-0.5s0.2-0.5,0.5-0.5h8c0.3,0,0.5,0.2,0.5,0.5S13.3,11.3,13,11.3z"/>
	</g>
	<g>
		<path class="st0" d="M13,14.7H5c-0.3,0-0.5-0.2-0.5-0.5s0.2-0.5,0.5-0.5h8c0.3,0,0.5,0.2,0.5,0.5S13.3,14.7,13,14.7z"/>
	</g>
</g>
</svg>
