<?xml version="1.0" encoding="utf-8"?>
<!-- Generator: Adobe Illustrator 21.0.0, SVG Export Plug-In . SVG Version: 6.00 Build 0)  -->
<svg version="1.1" id="图层_1" xmlns="http://www.w3.org/2000/svg" xmlns:xlink="http://www.w3.org/1999/xlink" x="0px" y="0px"
	 viewBox="0 0 18 18" style="enable-background:new 0 0 18 18;" xml:space="preserve">
<style type="text/css">
	.st0{fill-rule:evenodd;clip-rule:evenodd;fill:none;stroke:#FF0303;stroke-miterlimit:10;}
	
		.st1{fill-rule:evenodd;clip-rule:evenodd;fill:none;stroke:#FF0303;stroke-linecap:round;stroke-linejoin:round;stroke-miterlimit:10;}
	.st2{fill:#FF0303;}
</style>
<g>
	<path class="st0" d="M9.5,9.6"/>
</g>
<g>
	<path class="st0" d="M9.5,9.6"/>
</g>
<g>
	<path class="st1" d="M9.5,9.6"/>
</g>
<g>
	<path class="st2" d="M17,9.6c-0.1,0-0.2,0-0.3-0.1L9,2.8L2.4,9.5c-0.2,0.2-0.5,0.2-0.7,0s-0.2-0.5,0-0.7l7-7c0.2-0.2,0.5-0.2,0.7,0
		l8,7c0.2,0.2,0.2,0.5,0,0.7C17.3,9.5,17.1,9.6,17,9.6z"/>
</g>
<g>
	<path class="st2" d="M15,17.6h-3.7c-0.3,0-0.6-0.3-0.6-0.6v-3.4H8.4V17c0,0.3-0.3,0.6-0.6,0.6H4c-0.6,0-1-0.4-1-1v-6.5
		c0-0.3,0.2-0.5,0.5-0.5S4,9.8,4,10.1v6.5h3.4v-3.4c0-0.3,0.3-0.6,0.6-0.6H11c0.3,0,0.6,0.3,0.6,0.6v3.4H15l0-6.5
		c0-0.3,0.2-0.5,0.5-0.5S16,9.8,16,10.1v6.5C16,17.1,15.5,17.6,15,17.6z"/>
</g>
<g>
	<path class="st2" d="M15,5.6c-0.3,0-0.5-0.2-0.5-0.5V3.6H13c-0.3,0-0.5-0.2-0.5-0.5s0.2-0.5,0.5-0.5h1.7c0.4,0,0.8,0.4,0.8,0.8v1.7
		C15.5,5.4,15.3,5.6,15,5.6z M14.7,3.6L14.7,3.6L14.7,3.6z"/>
</g>
</svg>
