<?xml version="1.0" encoding="utf-8"?>
<!-- Generator: Adobe Illustrator 21.0.0, SVG Export Plug-In . SVG Version: 6.00 Build 0)  -->
<svg version="1.1" id="图层_1" xmlns="http://www.w3.org/2000/svg" xmlns:xlink="http://www.w3.org/1999/xlink" x="0px" y="0px"
	 viewBox="0 0 20 20" style="enable-background:new 0 0 20 20;" xml:space="preserve">
<g>
	<path d="M10.5,19C5.3,19,1,14.7,1,9.5S5.3,0,10.5,0S20,4.3,20,9.5S15.7,19,10.5,19z M10.5,1C5.8,1,2,4.8,2,9.5S5.8,18,10.5,18
		S19,14.2,19,9.5S15.2,1,10.5,1z"/>
</g>
<g>
	<path d="M11.6,7.1v6c0,0.5,0.1,0.9,0.2,1c0.1,0.1,0.4,0.2,0.7,0.3v0.3H8.4v-0.3c0.3,0,0.6-0.1,0.7-0.3c0.1-0.1,0.2-0.5,0.2-1V8.7
		c0-0.5-0.1-0.9-0.2-1C9,7.5,8.8,7.5,8.4,7.4V7.1H11.6z M10.4,3.5c0.4,0,0.6,0.1,0.9,0.4s0.4,0.5,0.4,0.9s-0.1,0.6-0.4,0.9
		C11.1,5.8,10.8,6,10.4,6c-0.3,0-0.6-0.1-0.9-0.4C9.3,5.4,9.2,5.1,9.2,4.7s0.1-0.6,0.4-0.9C9.8,3.6,10.1,3.5,10.4,3.5z"/>
</g>
</svg>
