<?xml version="1.0" encoding="utf-8"?>
<!-- Generator: Adobe Illustrator 21.0.0, SVG Export Plug-In . SVG Version: 6.00 Build 0)  -->
<svg version="1.1" id="图层_1" xmlns="http://www.w3.org/2000/svg" xmlns:xlink="http://www.w3.org/1999/xlink" x="0px" y="0px"
	 viewBox="0 0 18 18" style="enable-background:new 0 0 18 18;" xml:space="preserve">
<style type="text/css">
	.st0{fill:#FF0303;}
</style>
<g>
	<path class="st0" d="M16.5,3.6c0.3,0,0.5,0.2,0.5,0.5v9c0,0.3-0.2,0.5-0.5,0.5h-15c-0.3,0-0.5-0.2-0.5-0.5v-9
		c0-0.3,0.2-0.5,0.5-0.5H16.5 M16.5,2.6h-15C0.7,2.6,0,3.3,0,4.1v9c0,0.8,0.7,1.5,1.5,1.5h15c0.8,0,1.5-0.7,1.5-1.5v-9
		C18,3.3,17.3,2.6,16.5,2.6L16.5,2.6z"/>
</g>
<g>
	<circle class="st0" cx="14" cy="10.1" r="1"/>
</g>
<g>
	<path class="st0" d="M15.5,17.5H2.5C2.3,17.5,2,17.3,2,17s0.2-0.5,0.5-0.5h12.9c0.3,0,0.5,0.2,0.5,0.5S15.7,17.5,15.5,17.5z"/>
</g>
<g>
	<path class="st0" d="M9,11.6c-0.3,0-0.5-0.2-0.5-0.5v-2c0-0.3,0.2-0.5,0.5-0.5s0.5,0.2,0.5,0.5v2C9.5,11.4,9.3,11.6,9,11.6z"/>
</g>
</svg>
