<?xml version="1.0" encoding="utf-8"?>
<!-- Generator: Adobe Illustrator 21.0.0, SVG Export Plug-In . SVG Version: 6.00 Build 0)  -->
<svg version="1.1" id="图层_1" xmlns="http://www.w3.org/2000/svg" xmlns:xlink="http://www.w3.org/1999/xlink" x="0px" y="0px"
	 viewBox="0 0 18 18" style="enable-background:new 0 0 18 18;" xml:space="preserve">
<style type="text/css">
	.st0{fill:#FF0303;}
</style>
<g>
	<path class="st0" d="M9,1.4c0.7,0,1.2,0.5,1.2,1.2v1.2c0,0.7-0.5,1.2-1.2,1.2S7.8,4.5,7.8,3.9V2.7C7.8,2,8.3,1.4,9,1.4 M9,0.4
		c-1.2,0-2.2,1-2.2,2.2v1.2c0,1.2,1,2.2,2.2,2.2s2.2-1,2.2-2.2V2.7C11.2,1.4,10.2,0.4,9,0.4L9,0.4z"/>
</g>
<g>
	<path class="st0" d="M13.9,8.4c-0.3,0-0.5-0.2-0.5-0.5c0-0.3-0.1-0.5-0.3-0.6l-1.2-0.5C10,6.1,8,6.1,6.1,6.9L4.9,7.3
		C4.8,7.4,4.6,7.6,4.6,7.9c0,0.3-0.2,0.5-0.5,0.5S3.6,8.2,3.6,7.9c0-0.7,0.4-1.3,0.9-1.5l1.2-0.5c2.2-0.9,4.4-0.9,6.6,0l1.2,0.5
		c0.5,0.2,0.9,0.8,0.9,1.5C14.4,8.2,14.2,8.4,13.9,8.4z"/>
</g>
<g>
	<path class="st0" d="M14.6,16.8H3.4c-0.6,0-1.1-0.5-1.1-1.1v-5.1H1.4c-0.3,0-0.5-0.2-0.5-0.5V8.3c0-0.3,0.3-0.5,0.5-0.5h15.1
		c0.3,0,0.5,0.3,0.5,0.5v1.7c0,0.3-0.2,0.5-0.5,0.5h-0.8v5.1C15.7,16.3,15.2,16.8,14.6,16.8z M1.9,9.6h0.8c0.3,0,0.5,0.2,0.5,0.5
		v5.6c0,0,0,0.1,0.1,0.1h11.3c0,0,0.1,0,0.1-0.1v-5.6c0-0.3,0.2-0.5,0.5-0.5h0.8V8.8H1.9V9.6z"/>
</g>
</svg>
