<?xml version="1.0" encoding="utf-8"?>
<!-- Generator: Adobe Illustrator 21.0.0, SVG Export Plug-In . SVG Version: 6.00 Build 0)  -->
<svg version="1.1" id="图层_1" xmlns="http://www.w3.org/2000/svg" xmlns:xlink="http://www.w3.org/1999/xlink" x="0px" y="0px"
	 viewBox="0 0 18 18" style="enable-background:new 0 0 18 18;" xml:space="preserve">
<style type="text/css">
	.st0{fill:none;stroke:#FF0303;stroke-linecap:round;stroke-linejoin:bevel;stroke-miterlimit:10;}
	.st1{fill:none;stroke:#FF0303;stroke-linecap:round;stroke-linejoin:round;stroke-miterlimit:10;}
	.st2{fill-rule:evenodd;clip-rule:evenodd;fill:none;stroke:#FF0303;stroke-linecap:round;stroke-miterlimit:10;}
</style>
<g>
	<line class="st0" x1="15.9" y1="9.1" x2="17.2" y2="9.1"/>
	<line class="st0" x1="1.5" y1="9.1" x2="2.8" y2="9.1"/>
</g>
<g>
	<line class="st0" x1="12.6" y1="4.5" x2="13.3" y2="3.3"/>
	<path class="st0" d="M5.4,17"/>
</g>
<g>
	<line class="st0" x1="6.1" y1="4.5" x2="5.4" y2="3.3"/>
</g>
<g>
	<line class="st0" x1="2.8" y1="9.1" x2="1.5" y2="9.1"/>
	<line class="st0" x1="17.2" y1="9.1" x2="15.9" y2="9.1"/>
</g>
<g>
	<line class="st0" x1="9.3" y1="7.6" x2="9.3" y2="8.9"/>
	<circle class="st0" cx="9.3" cy="10.9" r="1.3"/>
</g>
<path class="st1" d="M17.2,11.8"/>
<path class="st2" d="M14.3,15h1.5c1.1-1.4,1.8-3.2,1.8-5.1c0-4.5-3.7-8.2-8.2-8.2S1.1,5.3,1.1,9.9c0,1.9,0.7,3.7,1.8,5.1h1.5"/>
</svg>
