<?xml version="1.0" encoding="utf-8"?>
<!-- Generator: Adobe Illustrator 21.0.0, SVG Export Plug-In . SVG Version: 6.00 Build 0)  -->
<svg version="1.1" id="图层_1" xmlns="http://www.w3.org/2000/svg" xmlns:xlink="http://www.w3.org/1999/xlink" x="0px" y="0px"
	 viewBox="0 0 18 18" style="enable-background:new 0 0 18 18;" xml:space="preserve">
<style type="text/css">
	.st0{fill:#FF0303;}
</style>
<g>
	<path class="st0" d="M9.4,2c1.1,0,2,0.9,2,2v2.9c0,1.1-0.9,2-2,2s-2-0.9-2-2V4C7.4,2.9,8.3,2,9.4,2 M9.4,1L9.4,1c-1.7,0-3,1.4-3,3
		v2.9c0,1.7,1.4,3,3,3h0c1.7,0,3-1.4,3-3V4C12.4,2.4,11.1,1,9.4,1L9.4,1z"/>
</g>
<g>
	<path class="st0" d="M9.3,10.5c1.3,0,2.6,0.3,3.9,0.8l1.6,0.6c0.1,0,0.2,0.2,0.2,0.5v2.3H3.7v-2.3c0-0.3,0.1-0.5,0.2-0.5l1.6-0.6
		C6.7,10.7,8,10.5,9.3,10.5 M9.3,9.5c-1.4,0-2.9,0.3-4.2,0.8L3.5,11c-0.5,0.2-0.8,0.8-0.8,1.4v2.4c0,0.5,0.4,1,0.8,1h11.8
		c0.4,0,0.8-0.4,0.8-1v-2.4c0-0.6-0.3-1.2-0.8-1.4l-1.6-0.6C12.2,9.8,10.8,9.5,9.3,9.5L9.3,9.5z"/>
</g>
<g>
	<path class="st0" d="M1.1,12.1c-0.3,0-0.5-0.2-0.5-0.5V10c0-0.6,0.3-1.2,0.9-1.4l0.4-0.2C2.2,8.3,3,8.1,3.7,8
		c-0.4-0.4-0.6-1-0.6-1.6V4.4c0-1.4,1.1-2.5,2.5-2.5c0.3,0,0.5,0.2,0.5,0.5S5.9,2.9,5.6,2.9c-0.8,0-1.5,0.7-1.5,1.5v1.9
		c0,0.6,0.4,1.2,1,1.4C5.3,7.8,5.4,8,5.4,8.3c0,0.2-0.2,0.4-0.4,0.4C4.1,8.9,2.6,9.2,2.3,9.3L1.9,9.5c-0.1,0-0.2,0.2-0.2,0.5v1.6
		C1.6,11.8,1.4,12.1,1.1,12.1z"/>
</g>
</svg>
