<?xml version="1.0" encoding="utf-8"?>
<!-- Generator: Adobe Illustrator 21.0.0, SVG Export Plug-In . SVG Version: 6.00 Build 0)  -->
<svg version="1.1" id="图层_1" xmlns="http://www.w3.org/2000/svg" xmlns:xlink="http://www.w3.org/1999/xlink" x="0px" y="0px"
	 viewBox="0 0 18 18" style="enable-background:new 0 0 18 18;" xml:space="preserve">
<style type="text/css">
	.st0{fill:#FF0303;}
</style>
<g>
	<path class="st0" d="M2.6,17.2c-1.1,0-2-0.9-2-2L0.5,7c0-0.7,0.3-1.3,0.8-1.6l6.7-4.9c0.5-0.4,1.2-0.4,1.7,0l6.8,4.8
		c0.5,0.4,0.8,1,0.9,1.6l0.1,8.2c0,1.1-0.9,2-2,2L2.6,17.2C2.6,17.2,2.6,17.2,2.6,17.2z M8.9,1.2c-0.1,0-0.2,0-0.3,0.1L1.9,6.1
		C1.7,6.3,1.5,6.6,1.5,7l0.1,8.2c0,0.6,0.5,1,1,1c0,0,0,0,0,0l12.9-0.1l0,0c0.5,0,1-0.5,1-1l-0.1-8.2c0-0.3-0.2-0.6-0.4-0.8L9.2,1.2
		C9.1,1.2,9,1.2,8.9,1.2z"/>
</g>
<g>
	<g>
		<path class="st0" d="M5.9,10.2H3.3C3,10.2,2.8,10,2.8,9.7S3,9.2,3.3,9.2h2.7c0.3,0,0.5,0.2,0.5,0.5S6.2,10.2,5.9,10.2z"/>
	</g>
	<g>
		<path class="st0" d="M5.9,12.2H3.3c-0.3,0-0.5-0.2-0.5-0.5s0.2-0.5,0.5-0.5h2.7c0.3,0,0.5,0.2,0.5,0.5S6.2,12.2,5.9,12.2z"/>
	</g>
	<g>
		<path class="st0" d="M5.9,14.2H3.3c-0.3,0-0.5-0.2-0.5-0.5s0.2-0.5,0.5-0.5h2.7c0.3,0,0.5,0.2,0.5,0.5S6.2,14.2,5.9,14.2z"/>
	</g>
	<g>
		<path class="st0" d="M10.3,10.2H8.6c-0.3,0-0.5-0.2-0.5-0.5s0.2-0.5,0.5-0.5h1.8c0.3,0,0.5,0.2,0.5,0.5S10.6,10.2,10.3,10.2z"/>
	</g>
	<g>
		<path class="st0" d="M10.3,12.2H8.6c-0.3,0-0.5-0.2-0.5-0.5s0.2-0.5,0.5-0.5h1.8c0.3,0,0.5,0.2,0.5,0.5S10.6,12.2,10.3,12.2z"/>
	</g>
	<g>
		<path class="st0" d="M14.8,10.2H13c-0.3,0-0.5-0.2-0.5-0.5s0.2-0.5,0.5-0.5h1.8c0.3,0,0.5,0.2,0.5,0.5S15,10.2,14.8,10.2z"/>
	</g>
	<g>
		<path class="st0" d="M14.8,10.2H13c-0.3,0-0.5-0.2-0.5-0.5s0.2-0.5,0.5-0.5h1.8c0.3,0,0.5,0.2,0.5,0.5S15,10.2,14.8,10.2z"/>
	</g>
</g>
</svg>
