<?xml version="1.0" encoding="utf-8"?>
<!-- Generator: Adobe Illustrator 21.0.0, SVG Export Plug-In . SVG Version: 6.00 Build 0)  -->
<svg version="1.1" id="图层_1" xmlns="http://www.w3.org/2000/svg" xmlns:xlink="http://www.w3.org/1999/xlink" x="0px" y="0px"
	 viewBox="0 0 18 18" style="enable-background:new 0 0 18 18;" xml:space="preserve">
<style type="text/css">
	.st0{fill-rule:evenodd;clip-rule:evenodd;fill:none;stroke:#FF0303;stroke-miterlimit:10;}
	
		.st1{fill-rule:evenodd;clip-rule:evenodd;fill:none;stroke:#FF0303;stroke-linecap:round;stroke-linejoin:round;stroke-miterlimit:10;}
	.st2{fill:#FF0303;}
</style>
<g>
	<path class="st0" d="M8.8,8.6"/>
</g>
<g>
	<path class="st0" d="M8.8,8.6"/>
</g>
<g>
	<path class="st1" d="M8.8,8.6"/>
</g>
<g>
	<g>
		<path class="st2" d="M16.3,13.5C16.3,13.5,16.3,13.5,16.3,13.5l-3-0.1c-1.3,0-2.5-0.2-3.7-0.6l-3-1c-0.8-0.3-1.6-0.4-2.5-0.4H2
			L0.5,2c0-0.3,0-0.6,0.2-0.8C0.9,1,1.2,0.8,1.5,0.8h2.7c0.9,0,1.7,0.1,2.5,0.4l2.1,0.6c1.1,0.3,2.2,0.5,3.4,0.5H14
			c0.5,0,0.9,0.3,1,0.8l2.2,9.1c0.1,0.3,0,0.6-0.2,0.9C16.9,13.3,16.6,13.5,16.3,13.5z M2.8,10.3h1.2c0.9,0,1.9,0.2,2.8,0.5l3,1
			c1.1,0.4,2.3,0.6,3.4,0.6l3,0.1L14,3.3h-1.8c-1.2,0-2.5-0.2-3.7-0.5L6.4,2.2C5.7,2,5,1.8,4.2,1.8H1.5L2.8,10.3z M1.5,1.3l0,0.5
			c0,0,0,0,0,0L1.5,1.3z"/>
	</g>
	<g>
		<path class="st2" d="M3.4,16.3c-0.2,0-0.4-0.2-0.5-0.4l-1-5c-0.1-0.3,0.1-0.5,0.4-0.6c0.3-0.1,0.5,0.1,0.6,0.4l1,5
			C4,16,3.8,16.3,3.4,16.3C3.5,16.3,3.4,16.3,3.4,16.3z"/>
	</g>
</g>
</svg>
