<?xml version="1.0" encoding="utf-8"?>
<!-- Generator: Adobe Illustrator 21.0.0, SVG Export Plug-In . SVG Version: 6.00 Build 0)  -->
<svg version="1.1" id="图层_1" xmlns="http://www.w3.org/2000/svg" xmlns:xlink="http://www.w3.org/1999/xlink" x="0px" y="0px"
	 viewBox="0 0 18 18" style="enable-background:new 0 0 18 18;" xml:space="preserve">
<style type="text/css">
	.st0{fill:#FF0303;}
</style>
<g>
	<path class="st0" d="M9.5,9C9.2,9,9,8.8,9,8.5v-7C9,1.2,9.2,1,9.5,1S10,1.2,10,1.5v7C10,8.8,9.8,9,9.5,9z"/>
</g>
<g>
	<path class="st0" d="M9.5,16.5C5.4,16.5,2,13.1,2,9c0-2.9,1.7-5.5,4.3-6.8c0.2-0.1,0.5,0,0.7,0.2C7.1,2.7,7,3,6.7,3.1
		C4.5,4.2,3,6.5,3,9c0,3.6,2.9,6.5,6.5,6.5S16,12.6,16,9c0-2.5-1.5-4.8-3.7-5.9C12,3,11.9,2.7,12,2.5c0.1-0.2,0.4-0.4,0.7-0.2
		C15.3,3.5,17,6.1,17,9C17,13.1,13.6,16.5,9.5,16.5z"/>
</g>
</svg>
