<?xml version="1.0" encoding="utf-8"?>
<!-- Generator: Adobe Illustrator 21.0.0, SVG Export Plug-In . SVG Version: 6.00 Build 0)  -->
<svg version="1.1" id="图层_1" xmlns="http://www.w3.org/2000/svg" xmlns:xlink="http://www.w3.org/1999/xlink" x="0px" y="0px"
	 viewBox="0 0 18 18" style="enable-background:new 0 0 18 18;" xml:space="preserve">
<style type="text/css">
	.st0{fill:#FF0303;}
	.st1{opacity:0.5;}
	.st2{fill-rule:evenodd;clip-rule:evenodd;}
</style>
<g>
	<g>
		<path class="st0" d="M9,17.3c-0.3,0-0.5-0.2-0.7-0.4L7,14.6l-4.3,0c-0.9,0-1.7-0.8-1.7-1.7V3.4c0-0.9,0.8-1.7,1.7-1.7h12.6
			c0.9,0,1.7,0.8,1.7,1.7v9.4c0,0.9-0.8,1.7-1.7,1.7h-4.2l-1.4,2.3C9.5,17.1,9.3,17.3,9,17.3z M2.7,2.7C2.3,2.7,2,3.1,2,3.4v9.4
			c0,0.4,0.3,0.7,0.7,0.7h4.2c0.4,0,0.8,0.2,1,0.5l1.1,2l1.1-2c0.2-0.3,0.6-0.5,1-0.5h4.2c0.4,0,0.7-0.3,0.7-0.7V3.4
			c0-0.4-0.3-0.7-0.7-0.7H2.7z"/>
	</g>
	<g>
		<g>
			<circle class="st0" cx="5" cy="8.1" r="1"/>
		</g>
		<g>
			<circle class="st0" cx="9" cy="8.1" r="1"/>
		</g>
		<g>
			<circle class="st0" cx="13" cy="8.1" r="1"/>
		</g>
	</g>
	<g class="st1">
		<g>
			<path class="st2" d="M1,9"/>
		</g>
	</g>
	<g class="st1">
		<g>
			<path class="st2" d="M17,9.6"/>
		</g>
	</g>
</g>
</svg>
