<?xml version="1.0" encoding="utf-8"?>
<!-- Generator: Adobe Illustrator 21.0.0, SVG Export Plug-In . SVG Version: 6.00 Build 0)  -->
<svg version="1.1" id="图层_1" xmlns="http://www.w3.org/2000/svg" xmlns:xlink="http://www.w3.org/1999/xlink" x="0px" y="0px"
	 viewBox="0 0 18 18" style="enable-background:new 0 0 18 18;" xml:space="preserve">
<style type="text/css">
	.st0{fill:#FF0303;}
</style>
<g>
	<path class="st0" d="M16.6,7.7C16.8,7.7,17,7.8,17,8v8.3c0,0.2-0.2,0.4-0.4,0.4H1.4c-0.2,0-0.4-0.2-0.4-0.4V8
		c0-0.2,0.2-0.4,0.4-0.4H16.6 M16.6,6.7H1.4C0.6,6.7,0,7.3,0,8v8.3c0,0.7,0.6,1.4,1.4,1.4h15.3c0.7,0,1.4-0.6,1.4-1.4V8
		C18,7.3,17.4,6.7,16.6,6.7L16.6,6.7z"/>
</g>
<g>
	<path class="st0" d="M13.5,7.7c-0.3,0-0.5-0.2-0.5-0.5v-2c0-2.2-1.8-4-4-4S5,3,5,5.2v2c0,0.3-0.2,0.5-0.5,0.5S4,7.4,4,7.2v-2
		c0-2.8,2.2-5,5-5s5,2.2,5,5v2C14,7.4,13.8,7.7,13.5,7.7z"/>
</g>
<g>
	<path class="st0" d="M9,15.2c-0.3,0-0.5-0.2-0.5-0.5v-3c0-0.3,0.2-0.5,0.5-0.5s0.5,0.2,0.5,0.5v3C9.5,14.9,9.3,15.2,9,15.2z"/>
</g>
</svg>
