<?xml version="1.0" encoding="utf-8"?>
<!-- Generator: Adobe Illustrator 21.0.0, SVG Export Plug-In . SVG Version: 6.00 Build 0)  -->
<svg version="1.1" id="图层_1" xmlns="http://www.w3.org/2000/svg" xmlns:xlink="http://www.w3.org/1999/xlink" x="0px" y="0px"
	 viewBox="0 0 24 24" style="enable-background:new 0 0 24 24;" xml:space="preserve">
<style type="text/css">
	.st0{fill:#546772;}
	.st1{fill:#FF0303;}
	.st2{opacity:0.5;}
	.st3{fill-rule:evenodd;clip-rule:evenodd;}
	.st4{fill-rule:evenodd;clip-rule:evenodd;fill:none;stroke:#878787;stroke-miterlimit:10;}
	.st5{fill:none;stroke:#FF0303;stroke-linecap:round;stroke-miterlimit:10;}
	.st6{fill-rule:evenodd;clip-rule:evenodd;fill:none;stroke:#FF0303;stroke-miterlimit:10;}
	
		.st7{fill-rule:evenodd;clip-rule:evenodd;fill:none;stroke:#FF0303;stroke-linecap:round;stroke-linejoin:round;stroke-miterlimit:10;}
	.st8{fill:#FFFFFF;}
	.st9{fill:#FFFFFF;stroke:#000000;stroke-width:2;stroke-miterlimit:10;}
	.st10{fill:#F4F4F4;}
</style>
<g>
	<g>
		<circle cx="3.3" cy="5" r="1"/>
	</g>
	<g>
		<path d="M21.8,6h-15c-0.6,0-1-0.4-1-1s0.4-1,1-1h15c0.6,0,1,0.4,1,1S22.3,6,21.8,6z"/>
	</g>
	<g>
		<circle cx="3.3" cy="12" r="1"/>
	</g>
	<g>
		<path d="M21.8,13h-15c-0.6,0-1-0.4-1-1s0.4-1,1-1h15c0.6,0,1,0.4,1,1S22.3,13,21.8,13z"/>
	</g>
	<g>
		<circle cx="3.3" cy="19" r="1"/>
	</g>
	<g>
		<path d="M21.8,20h-15c-0.6,0-1-0.4-1-1s0.4-1,1-1h15c0.6,0,1,0.4,1,1S22.3,20,21.8,20z"/>
	</g>
</g>
</svg>
