<?xml version="1.0" encoding="utf-8"?>
<!-- Generator: Adobe Illustrator 21.0.0, SVG Export Plug-In . SVG Version: 6.00 Build 0)  -->
<svg version="1.1" id="图层_1" xmlns="http://www.w3.org/2000/svg" xmlns:xlink="http://www.w3.org/1999/xlink" x="0px" y="0px"
	 viewBox="0 0 18 18" style="enable-background:new 0 0 18 18;" xml:space="preserve">
<style type="text/css">
	.st0{fill:#FF0303;}
</style>
<g>
	<g>
		<path class="st0" d="M8.6,17C4.4,17,1,13.6,1,9.4c0-3.8,2.8-7,6.6-7.5c0.3,0,0.5,0.2,0.6,0.4c0,0.3-0.2,0.5-0.4,0.6
			C4.5,3.3,2,6.1,2,9.4C2,13,5,16,8.6,16c3.3,0,6.1-2.5,6.6-5.8c0-0.3,0.3-0.5,0.6-0.4c0.3,0,0.5,0.3,0.4,0.6
			C15.7,14.1,12.4,17,8.6,17z"/>
	</g>
	<g>
		<path class="st0" d="M16.1,9H9V1.7c0-0.2,0.1-0.4,0.3-0.6C9.4,1,9.6,0.9,9.8,0.9c3.9,0.2,7,3.2,7.3,7.1c0,0.3-0.1,0.5-0.3,0.7
			C16.7,8.9,16.4,9,16.1,9z M10,8h6.1c-0.3-3.2-2.9-5.8-6.1-6.1V8z"/>
	</g>
</g>
</svg>
