<?xml version="1.0" encoding="utf-8"?>
<!-- Generator: Adobe Illustrator 21.0.0, SVG Export Plug-In . SVG Version: 6.00 Build 0)  -->
<svg version="1.1" id="图层_1" xmlns="http://www.w3.org/2000/svg" xmlns:xlink="http://www.w3.org/1999/xlink" x="0px" y="0px"
	 viewBox="0 0 20 20" style="enable-background:new 0 0 20 20;" xml:space="preserve">
<g>
	<g>
		<path d="M10.5,18.5c-5,0-9-4-9-9s4-9,9-9s9,4,9,9S15.5,18.5,10.5,18.5z M10.5,1.4c-4.4,0-8.1,3.6-8.1,8.1s3.6,8.1,8.1,8.1
			s8.1-3.6,8.1-8.1S14.9,1.4,10.5,1.4z"/>
	</g>
	<g>
		<path d="M10.4,13.2c-0.2,0.3-0.6,0.3-0.9,0l-2.9-2.9c-0.2-0.2-0.2-0.5,0-0.7s0.5-0.2,0.7,0l2.7,2.7l5.2-5.8c0.2-0.2,0.5-0.2,0.7,0
			C16,6.7,16,7,15.9,7.2L10.4,13.2z"/>
	</g>
</g>
</svg>
