<?xml version="1.0" encoding="utf-8"?>
<!-- Generator: Adobe Illustrator 21.0.0, SVG Export Plug-In . SVG Version: 6.00 Build 0)  -->
<svg version="1.1" id="图层_1" xmlns="http://www.w3.org/2000/svg" xmlns:xlink="http://www.w3.org/1999/xlink" x="0px" y="0px"
	 viewBox="0 0 20 20" style="enable-background:new 0 0 20 20;" xml:space="preserve">
<g>
	<path d="M9.5,19.5c-5,0-9-4-9-9s4-9,9-9s9,4,9,9S14.5,19.5,9.5,19.5z M9.5,2.4c-4.4,0-8.1,3.6-8.1,8.1s3.6,8.1,8.1,8.1
		c4.4,0,8.1-3.6,8.1-8.1S13.9,2.4,9.5,2.4z"/>
</g>
<g>
	<path d="M8.3,14.5c0-0.3,0.1-0.6,0.4-0.8c0.2-0.2,0.5-0.3,0.9-0.3c0.3,0,0.6,0.1,0.9,0.3c0.2,0.2,0.3,0.5,0.3,0.8
		c0,0.3-0.1,0.6-0.3,0.8c-0.2,0.2-0.5,0.3-0.8,0.3c-0.4,0-0.7-0.1-0.9-0.3C8.4,15,8.3,14.8,8.3,14.5z M10.6,5.4l-0.3,6.9H8.6
		L8.4,5.4H10.6z"/>
</g>
</svg>
