<?xml version="1.0" encoding="utf-8"?>
<!-- Generator: Adobe Illustrator 21.0.0, SVG Export Plug-In . SVG Version: 6.00 Build 0)  -->
<svg version="1.1" id="图层_1" xmlns="http://www.w3.org/2000/svg" xmlns:xlink="http://www.w3.org/1999/xlink" x="0px" y="0px"
	 viewBox="0 0 18 18" style="enable-background:new 0 0 18 18;" xml:space="preserve">
<style type="text/css">
	.st0{opacity:0.5;}
	.st1{fill-rule:evenodd;clip-rule:evenodd;}
	.st2{fill-rule:evenodd;clip-rule:evenodd;fill:none;stroke:#878787;stroke-miterlimit:10;}
	.st3{fill:#FF0303;}
</style>
<g class="st0">
	<g>
		<path class="st1" d="M17,8.6"/>
	</g>
</g>
<g>
	<path class="st2" d="M9.6,2.3"/>
</g>
<g>
	<path class="st3" d="M9,6.9c0.9,0,1.7,0.7,1.7,1.7S9.9,10.3,9,10.3S7.3,9.5,7.3,8.6S8.1,6.9,9,6.9 M9,5.9c-1.5,0-2.7,1.2-2.7,2.7
		s1.2,2.7,2.7,2.7s2.7-1.2,2.7-2.7S10.5,5.9,9,5.9L9,5.9z"/>
</g>
<g>
	<path class="st3" d="M7.4,16.5c0,0-0.1,0-0.1,0c-1.5-0.3-2.9-1.1-4-2.2c-0.1-0.1-0.2-0.2-0.1-0.4c0-0.1,0.1-0.3,0.2-0.4
		c0.5-0.4,0.6-1.1,0.3-1.6c-0.3-0.6-1-0.8-1.6-0.5c-0.1,0.1-0.3,0.1-0.4,0c-0.1-0.1-0.2-0.2-0.3-0.3c-0.2-0.8-0.4-1.6-0.4-2.4
		c0-0.7,0.1-1.5,0.3-2.2c0-0.1,0.1-0.3,0.3-0.3C1.6,6,1.8,6,1.9,6.1c0.6,0.2,1.3,0,1.6-0.5C3.8,5,3.7,4.3,3.1,3.9
		C3,3.8,3,3.7,2.9,3.5c0-0.1,0-0.3,0.1-0.4c1-1.1,2.2-1.8,3.6-2.3c0.4-0.1,0.9,0.1,1,0.5C7.8,2,8.3,2.3,8.9,2.3
		c0.6,0,1.1-0.4,1.2-0.9c0.1-0.4,0.6-0.7,1-0.6c1.4,0.4,2.6,1.1,3.6,2.1c0.1,0.1,0.2,0.2,0.1,0.4c0,0.1-0.1,0.3-0.2,0.4
		c-0.5,0.4-0.6,1.1-0.3,1.6c0.3,0.6,1,0.8,1.6,0.5c0.1-0.1,0.3-0.1,0.4,0s0.2,0.2,0.3,0.3c0.2,0.8,0.4,1.6,0.4,2.4
		c0,0.7-0.1,1.5-0.3,2.2c0,0.1-0.1,0.3-0.3,0.3c-0.1,0.1-0.3,0.1-0.4,0c-0.6-0.2-1.3,0-1.6,0.5l0,0c-0.3,0.6-0.2,1.3,0.4,1.7
		c0.1,0.1,0.2,0.2,0.2,0.4c0,0.1,0,0.3-0.1,0.4c-1.1,1.2-2.4,2-3.9,2.3c-0.1,0-0.3,0-0.4-0.1c-0.1-0.1-0.2-0.2-0.2-0.3
		c-0.1-0.6-0.6-1.1-1.3-1.1c-0.7,0-1.2,0.5-1.3,1.1c0,0.1-0.1,0.3-0.2,0.4C7.6,16.4,7.5,16.5,7.4,16.5z M4.3,13.9
		C5.1,14.6,6,15.1,7,15.4c0.3-0.9,1.2-1.5,2.1-1.5c0.9,0,1.8,0.6,2.1,1.4c1-0.3,1.9-0.9,2.6-1.6c-0.6-0.7-0.7-1.7-0.2-2.6
		c0.5-0.8,1.4-1.2,2.3-1.1c0.1-0.5,0.1-1,0.1-1.4C16.1,8,16,7.5,15.9,7c-0.9,0.2-1.9-0.3-2.3-1.1C13,5.1,13.1,4,13.7,3.3
		C12.9,2.6,12,2.1,11,1.8c-0.3,0.9-1.2,1.5-2.1,1.5C8,3.3,7.1,2.8,6.8,1.9c-1,0.3-1.9,0.9-2.6,1.6c0.6,0.7,0.7,1.7,0.2,2.6
		C3.9,6.9,3,7.3,2.1,7.2C2,7.6,1.9,8.1,1.9,8.6c0,0.6,0.1,1.1,0.2,1.6c0.9-0.2,1.9,0.3,2.3,1.1C5,12.1,4.9,13.1,4.3,13.9z
		 M14.1,11.4L14.1,11.4L14.1,11.4z"/>
</g>
</svg>
