<?xml version="1.0" encoding="utf-8"?>
<!-- Generator: Adobe Illustrator 21.0.0, SVG Export Plug-In . SVG Version: 6.00 Build 0)  -->
<svg version="1.1" id="图层_1" xmlns="http://www.w3.org/2000/svg" xmlns:xlink="http://www.w3.org/1999/xlink" x="0px" y="0px"
	 viewBox="0 0 18 18" style="enable-background:new 0 0 18 18;" xml:space="preserve">
<style type="text/css">
	.st0{opacity:0.5;}
	.st1{fill-rule:evenodd;clip-rule:evenodd;}
	.st2{fill-rule:evenodd;clip-rule:evenodd;fill:none;stroke:#878787;stroke-miterlimit:10;}
	.st3{fill:none;stroke:#FF0303;stroke-linecap:round;stroke-miterlimit:10;}
	.st4{fill:#FF0303;}
</style>
<g class="st0">
	<g>
		<path class="st1" d="M8.7,9"/>
	</g>
</g>
<g class="st0">
	<g>
		<path class="st1" d="M17,9"/>
	</g>
</g>
<g>
	<path class="st2" d="M8.7,9"/>
</g>
<g>
	<path class="st3" d="M8.7,9"/>
</g>
<g>
	<g>
		<g>
			<path class="st4" d="M6.9,8.7L5.2,7C5,6.8,5,6.4,5.2,6.2c0.2-0.2,0.5-0.2,0.7,0l1,1l1-1c0.2-0.2,0.5-0.2,0.7,0
				c0.2,0.2,0.2,0.5,0,0.7L6.9,8.7z"/>
		</g>
		<g>
			<path class="st4" d="M8.8,9H5C4.7,9,4.5,8.8,4.5,8.5S4.7,8,5,8h3.8c0.3,0,0.5,0.2,0.5,0.5S9.1,9,8.8,9z"/>
		</g>
		<g>
			<path class="st4" d="M8.8,10.9H5c-0.3,0-0.5-0.2-0.5-0.5S4.7,9.9,5,9.9h3.8c0.3,0,0.5,0.2,0.5,0.5S9.1,10.9,8.8,10.9z"/>
		</g>
		<g>
			<path class="st4" d="M6.9,12.9c-0.3,0-0.5-0.2-0.5-0.5V8.5C6.4,8.2,6.6,8,6.9,8s0.5,0.2,0.5,0.5v3.8C7.4,12.6,7.2,12.9,6.9,12.9z
				"/>
		</g>
	</g>
	<g>
		<path class="st4" d="M12.4,7.1c-0.3,0-0.5-0.2-0.5-0.5v-1c0-0.3,0.2-0.5,0.5-0.5s0.5,0.2,0.5,0.5v1C12.9,6.9,12.7,7.1,12.4,7.1z"
			/>
	</g>
	<g>
		<path class="st4" d="M12.4,10c-0.3,0-0.5-0.2-0.5-0.5v-1c0-0.3,0.2-0.5,0.5-0.5s0.5,0.2,0.5,0.5v1C12.9,9.8,12.7,10,12.4,10z"/>
	</g>
	<g>
		<path class="st4" d="M12.4,12.9c-0.3,0-0.5-0.2-0.5-0.5v-1c0-0.3,0.2-0.5,0.5-0.5s0.5,0.2,0.5,0.5v1
			C12.9,12.6,12.7,12.9,12.4,12.9z"/>
	</g>
</g>
<g>
	<path class="st4" d="M14.9,4c0.3,0,0.5,0.2,0.5,0.5v9c0,0.3-0.2,0.5-0.5,0.5H2.5C2.2,14,2,13.8,2,13.5v-9C2,4.2,2.2,4,2.5,4H14.9
		 M14.9,3H2.5C1.7,3,1,3.7,1,4.5v9C1,14.3,1.7,15,2.5,15h12.4c0.8,0,1.5-0.7,1.5-1.5v-9C16.4,3.7,15.7,3,14.9,3L14.9,3z"/>
</g>
</svg>
