<?xml version="1.0" encoding="utf-8"?>
<!-- Generator: Adobe Illustrator 21.0.0, SVG Export Plug-In . SVG Version: 6.00 Build 0)  -->
<svg version="1.1" id="图层_1" xmlns="http://www.w3.org/2000/svg" xmlns:xlink="http://www.w3.org/1999/xlink" x="0px" y="0px"
	 viewBox="0 0 18 18" style="enable-background:new 0 0 18 18;" xml:space="preserve">
<style type="text/css">
	.st0{fill:#FF0303;}
</style>
<g>
	<path class="st0" d="M14.1,16.8H3.9c-1.2,0-2.1-0.9-2.1-2.1V4.5c0-1.2,0.9-2.1,2.1-2.1h10.1c1.2,0,2.1,0.9,2.1,2.1v10.1
		C16.2,15.8,15.2,16.8,14.1,16.8z M3.9,3.4c-0.6,0-1.1,0.5-1.1,1.1v10.1c0,0.6,0.5,1.1,1.1,1.1h10.1c0.6,0,1.1-0.5,1.1-1.1V4.5
		c0-0.6-0.5-1.1-1.1-1.1H3.9z"/>
</g>
<g>
	<g>
		<path class="st0" d="M5,4.3c-0.3,0-0.5-0.2-0.5-0.5V2c0-0.3,0.2-0.5,0.5-0.5S5.5,1.8,5.5,2v1.8C5.5,4.1,5.3,4.3,5,4.3z"/>
	</g>
	<g>
		<path class="st0" d="M13,4.3c-0.3,0-0.5-0.2-0.5-0.5V2c0-0.3,0.2-0.5,0.5-0.5s0.5,0.2,0.5,0.5v1.8C13.5,4.1,13.3,4.3,13,4.3z"/>
	</g>
</g>
<g>
	<path class="st0" d="M8.1,12.6c-0.3,0-0.5-0.1-0.7-0.3L5.1,9.5C4.9,9.3,4.9,9,5.1,8.8c0.2-0.2,0.5-0.2,0.7,0.1l2.3,2.7l4.1-4.8
		c0.2-0.2,0.5-0.2,0.7-0.1c0.2,0.2,0.2,0.5,0.1,0.7l-4.1,4.8C8.6,12.5,8.4,12.6,8.1,12.6z"/>
</g>
</svg>
