<?xml version="1.0" encoding="utf-8"?>
<!-- Generator: Adobe Illustrator 21.0.0, SVG Export Plug-In . SVG Version: 6.00 Build 0)  -->
<svg version="1.1" id="图层_1" xmlns="http://www.w3.org/2000/svg" xmlns:xlink="http://www.w3.org/1999/xlink" x="0px" y="0px"
	 viewBox="0 0 18 18" style="enable-background:new 0 0 18 18;" xml:space="preserve">
<style type="text/css">
	.st0{fill:#FF0303;}
</style>
<g>
	<path class="st0" d="M9.5,1.7c1.3,0,2.4,1.1,2.4,2.4v2.7c0,1.3-1.1,2.4-2.4,2.4S7.1,8.1,7.1,6.8V4.1C7.1,2.7,8.2,1.7,9.5,1.7
		 M9.5,0.7c-1.9,0-3.4,1.5-3.4,3.4v2.7c0,1.9,1.5,3.4,3.4,3.4s3.4-1.5,3.4-3.4V4.1C12.9,2.2,11.4,0.7,9.5,0.7L9.5,0.7z"/>
</g>
<g>
	<path class="st0" d="M9.5,10.7c1.6,0,3.2,0.3,4.7,0.9l1.9,0.7c0.2,0.1,0.3,0.3,0.3,0.7v2.6c0,0.1,0,0.1,0,0.1h-14c0,0,0-0.1,0-0.1
		v-2.6c0-0.3,0.2-0.6,0.3-0.7l1.9-0.7C6.3,11,7.9,10.7,9.5,10.7 M9.5,9.7c-1.7,0-3.4,0.3-5.1,0.9l-1.9,0.7c-0.6,0.2-1,0.9-1,1.6v2.6
		c0,0.6,0.4,1.1,0.9,1.1h14.1c0.5,0,0.9-0.5,0.9-1.1v-2.6c0-0.7-0.4-1.4-1-1.6l-1.9-0.7C12.9,10,11.2,9.7,9.5,9.7L9.5,9.7z"/>
</g>
</svg>
