<?xml version="1.0" standalone="no"?>
<!DOCTYPE svg PUBLIC "-//W3C//DTD SVG 1.1//EN" "http://www.w3.org/Graphics/SVG/1.1/DTD/svg11.dtd" >
<!--
2013-9-30: Created.
-->
<svg>
<metadata>
Created by iconfont
</metadata>
<defs>

<font id="vis-iconfont" horiz-adv-x="1024" >
  <font-face
    font-family="vis-iconfont"
    font-weight="500"
    font-stretch="normal"
    units-per-em="1024"
    ascent="896"
    descent="-128"
  />
    <missing-glyph />
    
    <glyph glyph-name="x" unicode="x" horiz-adv-x="1001"
d="M281 543q-27 -1 -53 -1h-83q-18 0 -36.5 -6t-32.5 -18.5t-23 -32t-9 -45.5v-76h912v41q0 16 -0.5 30t-0.5 18q0 13 -5 29t-17 29.5t-31.5 22.5t-49.5 9h-133v-97h-438v97zM955 310v-52q0 -23 0.5 -52t0.5 -58t-10.5 -47.5t-26 -30t-33 -16t-31.5 -4.5q-14 -1 -29.5 -0.5
t-29.5 0.5h-32l-45 128h-439l-44 -128h-29h-34q-20 0 -45 1q-25 0 -41 9.5t-25.5 23t-13.5 29.5t-4 30v167h911zM163 247q-12 0 -21 -8.5t-9 -21.5t9 -21.5t21 -8.5q13 0 22 8.5t9 21.5t-9 21.5t-22 8.5zM316 123q-8 -26 -14 -48q-5 -19 -10.5 -37t-7.5 -25t-3 -15t1 -14.5
t9.5 -10.5t21.5 -4h37h67h81h80h64h36q23 0 34 12t2 38q-5 13 -9.5 30.5t-9.5 34.5q-5 19 -11 39h-368zM336 498v228q0 11 2.5 23t10 21.5t20.5 15.5t34 6h188q31 0 51.5 -14.5t20.5 -52.5v-227h-327z" />
    

    
    <glyph glyph-name="logout" unicode="&#58881;" d="M540.444444 384c-17.066667 0-28.444444 11.377778-28.444444 28.444444v398.222223c0 17.066667 11.377778 28.444444 28.444444 28.444444s28.444444-11.377778 28.444445-28.444444v-398.222223c0-17.066667-11.377778-28.444444-28.444445-28.444444zM540.444444-42.666667C307.2-42.666667 113.777778 150.755556 113.777778 384c0 164.977778 96.711111 312.888889 244.622222 386.844444 11.377778 5.688889 28.444444 0 39.822222-11.377777 5.688889-17.066667 0-34.133333-17.066666-39.822223C256 657.066667 170.666667 526.222222 170.666667 384c0-204.8 164.977778-369.777778 369.777777-369.777778S910.222222 179.2 910.222222 384c0 142.222222-85.333333 273.066667-210.488889 335.644444-17.066667 5.688889-22.755556 22.755556-17.066666 34.133334 5.688889 11.377778 22.755556 22.755556 39.822222 11.377778C870.4 696.888889 967.111111 548.977778 967.111111 384c0-233.244444-193.422222-426.666667-426.666667-426.666667z"  horiz-adv-x="1024" />

    
    <glyph glyph-name="kucun" unicode="&#58884;" d="M147.911111-82.488889c-62.577778 0-113.777778 51.2-113.777778 113.777778L28.444444 497.777778c0 39.822222 17.066667 73.955556 45.511112 91.022222L455.111111 867.555556C483.555556 890.311111 523.377778 890.311111 551.822222 867.555556l386.844445-273.066667c28.444444-22.755556 45.511111-56.888889 51.2-91.022222l5.688889-466.488889c0-62.577778-51.2-113.777778-113.777778-113.777778l-733.866667-5.688889z m358.4 910.222222c-5.688889 0-11.377778 0-17.066667-5.688889L108.088889 548.977778c-11.377778-11.377778-22.755556-28.444444-22.755556-51.2l5.688889-466.488889c0-34.133333 28.444444-56.888889 56.888889-56.888889l733.866667 5.688889c28.444444 0 56.888889 28.444444 56.888889 56.888889l-5.688889 466.488889c0 17.066667-11.377778 34.133333-22.755556 45.511111L523.377778 827.733333h-17.066667zM335.644444 315.733333H187.733333c-17.066667 0-28.444444 11.377778-28.444444 28.444445s11.377778 28.444444 28.444444 28.444444H341.333333c17.066667 0 28.444444-11.377778 28.444445-28.444444s-17.066667-28.444444-34.133334-28.444445zM335.644444 201.955556H187.733333c-17.066667 0-28.444444 11.377778-28.444444 28.444444s11.377778 28.444444 28.444444 28.444444H341.333333c17.066667 0 28.444444-11.377778 28.444445-28.444444s-17.066667-28.444444-34.133334-28.444444zM335.644444 88.177778H187.733333c-17.066667 0-28.444444 11.377778-28.444444 28.444444s11.377778 28.444444 28.444444 28.444445H341.333333c17.066667 0 28.444444-11.377778 28.444445-28.444445s-17.066667-28.444444-34.133334-28.444444zM585.955556 315.733333H489.244444c-17.066667 0-28.444444 11.377778-28.444444 28.444445s11.377778 28.444444 28.444444 28.444444h102.4c17.066667 0 28.444444-11.377778 28.444445-28.444444s-17.066667-28.444444-34.133333-28.444445zM585.955556 201.955556H489.244444c-17.066667 0-28.444444 11.377778-28.444444 28.444444s11.377778 28.444444 28.444444 28.444444h102.4c17.066667 0 28.444444-11.377778 28.444445-28.444444s-17.066667-28.444444-34.133333-28.444444zM841.955556 315.733333H739.555556c-17.066667 0-28.444444 11.377778-28.444445 28.444445s11.377778 28.444444 28.444445 28.444444h102.4c17.066667 0 28.444444-11.377778 28.444444-28.444444s-17.066667-28.444444-28.444444-28.444445zM841.955556 315.733333H739.555556c-17.066667 0-28.444444 11.377778-28.444445 28.444445s11.377778 28.444444 28.444445 28.444444h102.4c17.066667 0 28.444444-11.377778 28.444444-28.444444s-17.066667-28.444444-28.444444-28.444445z"  horiz-adv-x="1024" />

    
    <glyph glyph-name="message" unicode="&#58885;" d="M512-88.177778c-17.066667 0-28.444444 11.377778-39.822222 22.755556L398.222222 65.422222H153.6c-51.2 0-96.711111 45.511111-96.711111 96.711111V702.577778c0 51.2 45.511111 96.711111 96.711111 96.711111h716.8c51.2 0 96.711111-45.511111 96.711111-96.711111v-534.755556c0-51.2-45.511111-96.711111-96.711111-96.711111h-238.933333l-79.644445-130.844444c-11.377778-17.066667-22.755556-28.444444-39.822222-28.444445zM153.6 742.4c-22.755556 0-39.822222-22.755556-39.822222-39.822222v-534.755556c0-22.755556 17.066667-39.822222 39.822222-39.822222h238.933333c22.755556 0 45.511111-11.377778 56.888889-28.444444L512-14.222222l62.577778 113.777778c11.377778 17.066667 34.133333 28.444444 56.888889 28.444444h238.933333c22.755556 0 39.822222 17.066667 39.822222 39.822222V702.577778c0 22.755556-17.066667 39.822222-39.822222 39.822222H153.6zM284.444444 435.2m-56.888888 0a56.888889 56.888889 0 1 1 113.777777 0 56.888889 56.888889 0 1 1-113.777777 0ZM512 435.2m-56.888889 0a56.888889 56.888889 0 1 1 113.777778 0 56.888889 56.888889 0 1 1-113.777778 0ZM739.555556 435.2m-56.888889 0a56.888889 56.888889 0 1 1 113.777777 0 56.888889 56.888889 0 1 1-113.777777 0Z"  horiz-adv-x="1024" />

    
    <glyph glyph-name="shichang" unicode="&#58888;" d="M489.244444-71.111111C250.311111-71.111111 56.888889 122.311111 56.888889 361.244444c0 216.177778 159.288889 398.222222 375.466667 426.666667 17.066667 0 28.444444-11.377778 34.133333-22.755555 0-17.066667-11.377778-28.444444-22.755556-34.133334C256 708.266667 113.777778 548.977778 113.777778 361.244444 113.777778 156.444444 284.444444-14.222222 489.244444-14.222222c187.733333 0 347.022222 142.222222 375.466667 329.955555 0 17.066667 17.066667 28.444444 34.133333 22.755556 17.066667 0 28.444444-17.066667 22.755556-34.133333-28.444444-210.488889-216.177778-375.466667-432.355556-375.466667zM915.911111 384H512V799.288889c0 11.377778 5.688889 22.755556 17.066667 34.133333 5.688889 5.688889 17.066667 11.377778 28.444444 11.377778 221.866667-11.377778 398.222222-182.044444 415.288889-403.911111 0-17.066667-5.688889-28.444444-17.066667-39.822222-5.688889-11.377778-22.755556-17.066667-39.822222-17.066667zM568.888889 440.888889h347.022222c-17.066667 182.044444-164.977778 329.955556-347.022222 347.022222V440.888889z"  horiz-adv-x="1024" />

    
    <glyph glyph-name="success" unicode="&#58889;" d="M537.6-51.2c-256 0-460.8 204.8-460.8 460.8s204.8 460.8 460.8 460.8 460.8-204.8 460.8-460.8-204.8-460.8-460.8-460.8z m0 875.52C312.32 824.32 122.88 640 122.88 409.6s184.32-414.72 414.72-414.72 414.72 184.32 414.72 414.72-189.44 414.72-414.72 414.72zM532.48 220.16c-10.24-15.36-30.72-15.36-46.08 0l-148.48 148.48c-10.24 10.24-10.24 25.6 0 35.84s25.6 10.24 35.84 0l138.24-138.24 266.24 296.96c10.24 10.24 25.6 10.24 35.84 0 5.12-10.24 5.12-25.6 0-35.84l-281.6-307.2z"  horiz-adv-x="1024" />

    
    <glyph glyph-name="more" unicode="&#58890;" d="M140.8 682.666667m-42.666667 0a42.666667 42.666667 0 1 1 85.333334 0 42.666667 42.666667 0 1 1-85.333334 0ZM930.133333 640h-640c-25.6 0-42.666667 17.066667-42.666666 42.666667s17.066667 42.666667 42.666666 42.666666h640c25.6 0 42.666667-17.066667 42.666667-42.666666s-21.333333-42.666667-42.666667-42.666667zM140.8 384m-42.666667 0a42.666667 42.666667 0 1 1 85.333334 0 42.666667 42.666667 0 1 1-85.333334 0ZM930.133333 341.333333h-640c-25.6 0-42.666667 17.066667-42.666666 42.666667s17.066667 42.666667 42.666666 42.666667h640c25.6 0 42.666667-17.066667 42.666667-42.666667s-21.333333-42.666667-42.666667-42.666667zM140.8 85.333333m-42.666667 0a42.666667 42.666667 0 1 1 85.333334 0 42.666667 42.666667 0 1 1-85.333334 0ZM930.133333 42.666667h-640c-25.6 0-42.666667 17.066667-42.666666 42.666666s17.066667 42.666667 42.666666 42.666667h640c25.6 0 42.666667-17.066667 42.666667-42.666667s-21.333333-42.666667-42.666667-42.666666z"  horiz-adv-x="1024" />

    
    <glyph glyph-name="warn" unicode="&#58891;" d="M486.4-102.4c-256 0-460.8 204.8-460.8 460.8s204.8 460.8 460.8 460.8 460.8-204.8 460.8-460.8-204.8-460.8-460.8-460.8z m0 875.52c-225.28 0-414.72-184.32-414.72-414.72s184.32-414.72 414.72-414.72c225.28 0 414.72 184.32 414.72 414.72s-189.44 414.72-414.72 414.72zM424.96 153.6c0 15.36 5.12 30.72 20.48 40.96 10.24 10.24 25.6 15.36 46.08 15.36 15.36 0 30.72-5.12 46.08-15.36 10.24-10.24 15.36-25.6 15.36-40.96 0-15.36-5.12-30.72-15.36-40.96-10.24-10.24-25.6-15.36-40.96-15.36-20.48 0-35.84 5.12-46.08 15.36-20.48 15.36-25.6 25.6-25.6 40.96z m117.76 465.92l-15.36-353.28H440.32l-10.24 353.28h112.64z"  horiz-adv-x="1024" />

    
    <glyph glyph-name="spinner" unicode="&#58892;" d="M512 896C233.248 896 6.528 673.248 0.16 396.032 6.08 637.888 189.984 832 416 832c229.76 0 416-200.576 416-448a96 96 0 1 1 192 0c0 282.784-229.216 512-512 512z m0-1024c278.752 0 505.472 222.752 511.84 499.968C1017.92 130.112 834.016-64 608-64c-229.76 0-416 200.576-416 448a96 96 0 1 1-192 0c0-282.784 229.216-512 512-512z"  horiz-adv-x="1024" />

    
    <glyph glyph-name="yuding" unicode="&#58894;" d="M802.133333-59.733333H221.866667c-68.266667 0-119.466667 51.2-119.466667 119.466666V640c0 68.266667 51.2 119.466667 119.466667 119.466667H796.444444c68.266667 0 119.466667-51.2 119.466667-119.466667v-574.577778c5.688889-68.266667-51.2-125.155556-113.777778-125.155555zM221.866667 702.577778c-34.133333 0-62.577778-28.444444-62.577778-62.577778v-574.577778c0-34.133333 28.444444-62.577778 62.577778-62.577778H796.444444c34.133333 0 62.577778 28.444444 62.577778 62.577778V640c0 34.133333-28.444444 62.577778-62.577778 62.577778H221.866667zM284.444444 651.377778c-17.066667 0-28.444444 11.377778-28.444444 28.444444V782.222222c0 17.066667 11.377778 28.444444 28.444444 28.444445s28.444444-17.066667 28.444445-28.444445v-102.4c0-17.066667-11.377778-28.444444-28.444445-28.444444zM739.555556 651.377778c-17.066667 0-28.444444 11.377778-28.444445 28.444444V782.222222c0 17.066667 11.377778 28.444444 28.444445 28.444445s28.444444-11.377778 28.444444-28.444445v-102.4c0-17.066667-11.377778-28.444444-28.444444-28.444444zM460.8 179.2c-17.066667 0-28.444444 5.688889-39.822222 17.066667L290.133333 355.555556c-11.377778 11.377778-11.377778 28.444444 0 39.822222 11.377778 11.377778 28.444444 11.377778 39.822223-5.688889l130.844444-153.6 233.244444 273.066667c11.377778 11.377778 28.444444 11.377778 39.822223 5.688888 11.377778-11.377778 11.377778-28.444444 5.688889-39.822222l-233.244445-273.066666c-17.066667-17.066667-28.444444-22.755556-45.511111-22.755556z"  horiz-adv-x="1024" />

    
    <glyph glyph-name="banzhu" unicode="&#58896;" d="M512 782.222222c221.866667 0 398.222222-176.355556 398.222222-398.222222s-176.355556-398.222222-398.222222-398.222222-398.222222 176.355556-398.222222 398.222222 176.355556 398.222222 398.222222 398.222222m0 56.888889C261.688889 839.111111 56.888889 634.311111 56.888889 384s204.8-455.111111 455.111111-455.111111 455.111111 204.8 455.111111 455.111111-204.8 455.111111-455.111111 455.111111zM483.555556 224.711111c-17.066667 0-28.444444 11.377778-28.444445 28.444445v56.888888C455.111111 384 540.444444 429.511111 546.133333 435.2c34.133333 17.066667 51.2 45.511111 51.2 79.644444 0 45.511111-39.822222 85.333333-85.333333 85.333334s-85.333333-39.822222-85.333333-91.022222c0-11.377778-11.377778-28.444444-28.444445-28.444445s-28.444444 17.066667-28.444444 28.444445c0 79.644444 62.577778 142.222222 142.222222 142.222222s142.222222-62.577778 142.222222-142.222222c0-56.888889-34.133333-108.088889-85.333333-130.844445-11.377778-5.688889-56.888889-34.133333-56.888889-68.266667v-56.888888c0-11.377778-11.377778-28.444444-28.444444-28.444445zM483.555556 110.933333c-17.066667 0-28.444444 11.377778-28.444445 28.444445s11.377778 28.444444 28.444445 28.444444 28.444444-11.377778 28.444444-28.444444-11.377778-28.444444-28.444444-28.444445z"  horiz-adv-x="1024" />

    
    <glyph glyph-name="baobiao" unicode="&#58897;" d="M893.155556-31.288889H130.844444c-22.755556 0-45.511111 22.755556-45.511111 45.511111l-5.688889 739.555556c0 17.066667 11.377778 28.444444 28.444445 28.444444s28.444444-11.377778 28.444444-28.444444l5.688889-728.177778h750.933334c17.066667 0 28.444444-11.377778 28.444444-28.444444s-17.066667-28.444444-28.444444-28.444445zM227.555556 71.111111c-5.688889 0-11.377778 0-17.066667 5.688889-11.377778 5.688889-17.066667 22.755556-11.377778 39.822222L358.4 384c11.377778 5.688889 22.755556 17.066667 39.822222 17.066667 11.377778 0 28.444444-5.688889 39.822222-11.377778l187.733334-187.733333 324.266666 426.666666c11.377778 11.377778 28.444444 17.066667 39.822223 5.688889 11.377778-11.377778 17.066667-28.444444 5.688889-39.822222L659.911111 156.444444c-5.688889-11.377778-22.755556-17.066667-34.133333-17.066666-11.377778 0-28.444444 5.688889-34.133334 11.377778L403.911111 338.488889l-153.6-256c-5.688889-5.688889-11.377778-11.377778-22.755555-11.377778z m182.044444 278.755556z"  horiz-adv-x="1024" />

    
    <glyph glyph-name="yixiao" unicode="&#58898;" d="M392.533333 401.066667L295.822222 497.777778c-11.377778 11.377778-11.377778 34.133333 0 45.511111 11.377778 11.377778 28.444444 11.377778 39.822222 0l56.888889-56.888889 56.888889 56.888889c11.377778 11.377778 28.444444 11.377778 39.822222 0 11.377778-11.377778 11.377778-28.444444 0-39.822222L392.533333 401.066667zM500.622222 384H284.444444c-17.066667 0-28.444444 11.377778-28.444444 28.444444S267.377778 440.888889 284.444444 440.888889h216.177778c17.066667 0 28.444444-11.377778 28.444445-28.444445s-11.377778-28.444444-28.444445-28.444444zM500.622222 275.911111H284.444444c-17.066667 0-28.444444 11.377778-28.444444 28.444445s11.377778 28.444444 28.444444 28.444444h216.177778c17.066667 0 28.444444-11.377778 28.444445-28.444444s-11.377778-28.444444-28.444445-28.444445zM392.533333 162.133333c-17.066667 0-28.444444 11.377778-28.444444 28.444445V412.444444c0 17.066667 11.377778 28.444444 28.444444 28.444445s28.444444-11.377778 28.444445-28.444445v-216.177777c0-17.066667-11.377778-34.133333-28.444445-34.133334zM705.422222 492.088889c-17.066667 0-28.444444 11.377778-28.444444 28.444444v56.888889c0 17.066667 11.377778 28.444444 28.444444 28.444445s28.444444-11.377778 28.444445-28.444445v-56.888889c0-17.066667-11.377778-28.444444-28.444445-28.444444zM705.422222 327.111111c-17.066667 0-28.444444 11.377778-28.444444 28.444445v56.888888c0 17.066667 11.377778 28.444444 28.444444 28.444445s28.444444-11.377778 28.444445-28.444445v-56.888888c0-17.066667-11.377778-28.444444-28.444445-28.444445zM705.422222 162.133333c-17.066667 0-28.444444 11.377778-28.444444 28.444445v56.888889c0 17.066667 11.377778 28.444444 28.444444 28.444444s28.444444-11.377778 28.444445-28.444444v-56.888889c0-11.377778-11.377778-28.444444-28.444445-28.444445zM847.644444 668.444444c17.066667 0 28.444444-11.377778 28.444445-28.444444v-512c0-17.066667-11.377778-28.444444-28.444445-28.444444H142.222222c-17.066667 0-28.444444 11.377778-28.444444 28.444444v512c0 17.066667 11.377778 28.444444 28.444444 28.444444h705.422222m0 56.888889H142.222222C96.711111 725.333333 56.888889 685.511111 56.888889 640v-512c0-45.511111 39.822222-85.333333 85.333333-85.333333h705.422222c45.511111 0 85.333333 39.822222 85.333334 85.333333v512c0 45.511111-39.822222 85.333333-85.333334 85.333333z"  horiz-adv-x="1024" />

    
    <glyph glyph-name="caiwu" unicode="&#58899;" d="M881.777778 543.288889c17.066667 0 28.444444-11.377778 28.444444-28.444445v-438.044444c0-17.066667-11.377778-28.444444-28.444444-28.444444h-739.555556c-17.066667 0-28.444444 11.377778-28.444444 28.444444V514.844444c0 17.066667 11.377778 28.444444 28.444444 28.444445h739.555556m0 56.888889h-739.555556c-45.511111 0-85.333333-34.133333-85.333333-85.333334v-438.044444c0-45.511111 39.822222-85.333333 85.333333-85.333333h739.555556c45.511111 0 85.333333 39.822222 85.333333 85.333333V514.844444c0 51.2-39.822222 85.333333-85.333333 85.333334zM893.155556 702.577778H130.844444c-17.066667 0-28.444444 11.377778-28.444444 28.444444s11.377778 28.444444 28.444444 28.444445h756.622223c17.066667 0 28.444444-11.377778 28.444444-28.444445s-11.377778-28.444444-22.755555-28.444444zM637.155556 310.044444H386.844444c-17.066667 0-28.444444 11.377778-28.444444 28.444445s11.377778 28.444444 28.444444 28.444444h250.311112c17.066667 0 28.444444-11.377778 28.444444-28.444444s-11.377778-28.444444-28.444444-28.444445zM637.155556 184.888889H386.844444c-17.066667 0-28.444444 11.377778-28.444444 28.444444s11.377778 28.444444 28.444444 28.444445h250.311112c17.066667 0 28.444444-11.377778 28.444444-28.444445s-11.377778-28.444444-28.444444-28.444444zM512 82.488889c-17.066667 0-28.444444 11.377778-28.444444 28.444444v204.8c0 11.377778 11.377778 22.755556 28.444444 22.755556s28.444444-11.377778 28.444444-28.444445v-204.8c0-11.377778-11.377778-22.755556-28.444444-22.755555zM512 332.8L375.466667 469.333333c-5.688889 11.377778-5.688889 28.444444 0 39.822223s28.444444 11.377778 39.822222 0L512 418.133333l91.022222 91.022223c11.377778 11.377778 28.444444 11.377778 39.822222 0s11.377778-28.444444 0-39.822223L512 332.8z"  horiz-adv-x="1024" />

    
    <glyph glyph-name="fuxuan" unicode="&#58900;" d="M453.485714-10.971429L102.4 252.342857c-29.257143 21.942857-36.571429 73.142857-14.628571 102.4 21.942857 29.257143 73.142857 36.571429 102.4 14.628572l234.057142-175.542858 394.971429 526.628572c21.942857 29.257143 73.142857 36.571429 102.4 14.628571 29.257143-21.942857 36.571429-73.142857 14.628571-102.4l-482.742857-643.657143z"  horiz-adv-x="1024" />

    
    <glyph glyph-name="error" unicode="&#58901;" d="M737.28 184.32c-10.24-10.24-25.6-10.24-35.84 0L302.08 583.68c-10.24 10.24-10.24 25.6 0 35.84 10.24 10.24 25.6 10.24 35.84 0l399.36-399.36c10.24-10.24 10.24-25.6 0-35.84zM737.28 583.68l-399.36-399.36c-10.24-10.24-25.6-10.24-35.84 0-10.24 10.24-10.24 25.6 0 35.84l399.36 399.36c10.24 10.24 25.6 10.24 35.84 0 10.24-10.24 10.24-25.6 0-35.84zM517.12-81.92C250.88-81.92 30.72 138.24 30.72 404.48S250.88 890.88 517.12 890.88s486.4-220.16 486.4-486.4-215.04-486.4-486.4-486.4z m0 921.6c-240.64 0-435.2-194.56-435.2-435.2s194.56-435.2 435.2-435.2 435.2 194.56 435.2 435.2-194.56 435.2-435.2 435.2z"  horiz-adv-x="1024" />

    
    <glyph glyph-name="home" unicode="&#58902;" d="M967.111111 349.866667c-5.688889 0-11.377778 0-17.066667 5.688889L512 736.711111 136.533333 355.555556c-11.377778-11.377778-28.444444-11.377778-39.822222 0s-11.377778 28.444444 0 39.822222l398.222222 398.222222c11.377778 11.377778 28.444444 11.377778 39.822223 0l455.111111-398.222222c11.377778-11.377778 11.377778-28.444444 0-39.822222-5.688889 0-17.066667-5.688889-22.755556-5.688889zM853.333333-105.244444h-210.488889c-17.066667 0-34.133333 17.066667-34.133333 34.133333v193.422222H477.866667V-71.111111c0-17.066667-17.066667-34.133333-34.133334-34.133333H227.555556c-34.133333 0-56.888889 22.755556-56.888889 56.888888v369.777778c0 17.066667 11.377778 28.444444 28.444444 28.444445s28.444444-11.377778 28.444445-28.444445v-369.777778h193.422222v193.422223c0 17.066667 17.066667 34.133333 34.133333 34.133333h170.666667c17.066667 0 34.133333-17.066667 34.133333-34.133333v-193.422223H853.333333v369.777778c0 17.066667 11.377778 28.444444 28.444445 28.444445s28.444444-11.377778 28.444444-28.444445v-369.777778c0-28.444444-28.444444-56.888889-56.888889-56.888888zM853.333333 577.422222c-17.066667 0-28.444444 11.377778-28.444444 28.444445V691.2H739.555556c-17.066667 0-28.444444 11.377778-28.444445 28.444444s11.377778 28.444444 28.444445 28.444445h96.711111c22.755556 0 45.511111-22.755556 45.511111-45.511111v-96.711111c0-17.066667-11.377778-28.444444-28.444445-28.444445z m-17.066666 113.777778z"  horiz-adv-x="1024" />

    
    <glyph glyph-name="gongdan" unicode="&#58903;" d="M813.511111-82.488889H210.488889c-56.888889 0-108.088889 45.511111-108.088889 102.4V634.311111c0 56.888889 45.511111 102.4 108.088889 102.4h51.2c17.066667 0 28.444444-11.377778 28.444444-28.444444s-17.066667-28.444444-28.444444-28.444445h-51.2c-28.444444 0-51.2-22.755556-51.2-45.511111v-614.4c0-22.755556 22.755556-45.511111 51.2-45.511111h603.022222c28.444444 0 51.2 22.755556 51.2 45.511111V634.311111c0 22.755556-22.755556 45.511111-51.2 45.511111h-51.2c-17.066667 0-28.444444 11.377778-28.444444 28.444445s11.377778 28.444444 28.444444 28.444444h51.2c56.888889 0 108.088889-45.511111 108.088889-102.4v-614.4c0-56.888889-51.2-102.4-108.088889-102.4zM665.6 605.866667H358.4c-56.888889 0-102.4 45.511111-102.4 102.4s45.511111 102.4 102.4 102.4h312.888889c56.888889 0 102.4-45.511111 102.4-102.4s-51.2-102.4-108.088889-102.4zM358.4 753.777778c-22.755556 0-45.511111-17.066667-45.511111-45.511111s17.066667-45.511111 45.511111-45.511111h312.888889c22.755556 0 45.511111 17.066667 45.511111 45.511111s-17.066667 45.511111-45.511111 45.511111H358.4zM739.555556 440.888889H284.444444c-17.066667 0-28.444444 11.377778-28.444444 28.444444S267.377778 497.777778 284.444444 497.777778h455.111112c17.066667 0 28.444444-11.377778 28.444444-28.444445s-11.377778-28.444444-28.444444-28.444444zM739.555556 253.155556H284.444444c-17.066667 0-28.444444 11.377778-28.444444 28.444444s11.377778 28.444444 28.444444 28.444444h455.111112c17.066667 0 28.444444-11.377778 28.444444-28.444444s-11.377778-28.444444-28.444444-28.444444zM739.555556 59.733333H284.444444c-17.066667 0-28.444444 11.377778-28.444444 28.444445s11.377778 28.444444 28.444444 28.444444h455.111112c17.066667 0 28.444444-11.377778 28.444444-28.444444s-11.377778-28.444444-28.444444-28.444445z"  horiz-adv-x="1024" />

    
    <glyph glyph-name="info" unicode="&#58904;" d="M537.6-76.8C271.36-76.8 51.2 143.36 51.2 409.6S271.36 896 537.6 896 1024 675.84 1024 409.6 803.84-76.8 537.6-76.8z m0 921.6C296.96 844.8 102.4 650.24 102.4 409.6S296.96-25.6 537.6-25.6 972.8 168.96 972.8 409.6 778.24 844.8 537.6 844.8zM593.92 532.48v-307.2c0-25.6 5.12-46.08 10.24-51.2 5.12-5.12 20.48-10.24 35.84-15.36v-15.36H430.08v15.36c15.36 0 30.72 5.12 35.84 15.36 5.12 5.12 10.24 25.6 10.24 51.2V450.56c0 25.6-5.12 46.08-10.24 51.2-5.12 10.24-15.36 10.24-35.84 15.36v15.36h163.84z m-61.44 184.32c20.48 0 30.72-5.12 46.08-20.48s20.48-25.6 20.48-46.08-5.12-30.72-20.48-46.08c-10.24-5.12-25.6-15.36-46.08-15.36-15.36 0-30.72 5.12-46.08 20.48-10.24 10.24-15.36 25.6-15.36 46.08s5.12 30.72 20.48 46.08c10.24 10.24 25.6 15.36 40.96 15.36z"  horiz-adv-x="1024" />

    
    <glyph glyph-name="empty" unicode="&#58880;" d="M890.88 508.928c10.24-18.432-14.336 34.816-55.296 34.816H188.416c-24.576 0-40.96-10.24-55.296-32.768-14.336-20.48-133.12-202.752-133.12-241.664v-247.808c0-38.912 32.768-71.68 71.68-71.68h882.688c38.912 0 71.68 30.72 71.68 71.68V269.312c-2.048 36.864-135.168 239.616-135.168 239.616s-20.48 34.816 0 0zM659.456 285.696c-16.384 0-30.72-8.192-32.768-24.576v-6.144c0-63.488-51.2-114.688-114.688-114.688-63.488 0-114.688 51.2-114.688 114.688v8.192c-8.192 22.528-32.768 22.528-32.768 22.528H63.488l104.448 188.416s18.432 32.768 47.104 32.768h610.304c22.528 0 24.576-8.192 40.96-32.768l104.448-188.416H659.456z m-368.64 356.352l-79.872 75.776c-8.192 6.144-8.192 18.432 0 26.624s22.528 8.192 30.72 0l79.872-73.728c8.192-8.192 8.192-22.528 0-30.72-8.192-2.048-22.528-6.144-30.72 2.048m215.04 32.768c-2.048 2.048-6.144 8.192-6.144 14.336l-2.048 106.496c0 10.24 8.192 22.528 18.432 22.528 10.24 2.048 22.528-6.144 22.528-16.384l2.048-106.496c0-8.192-6.144-16.384-14.336-18.432-6.144-6.144-14.336-6.144-20.48-2.048m202.752-26.624c-2.048 2.048-6.144 8.192-6.144 14.336 0 6.144 2.048 10.24 6.144 14.336l73.728 79.872c8.192 8.192 22.528 8.192 30.72 0 6.144-10.24 6.144-24.576-2.048-32.768L737.28 646.144c-2.048-2.048-8.192-6.144-14.336-6.144-6.144 2.048-12.288 2.048-14.336 8.192"  horiz-adv-x="1026" />

    


  </font>
</defs>
</svg>
