<?xml version="1.0" encoding="utf-8"?>
<!-- Generator: Adobe Illustrator 21.0.0, SVG Export Plug-In . SVG Version: 6.00 Build 0)  -->
<svg version="1.1" id="图层_1" xmlns="http://www.w3.org/2000/svg" xmlns:xlink="http://www.w3.org/1999/xlink" x="0px" y="0px"
	 viewBox="0 0 1024 768" style="enable-background:new 0 0 1024 768;" xml:space="preserve">
<style type="text/css">
	.st0{fill:#EEF8FF;}
	.st1{opacity:0.64;fill:none;stroke:#9BA1A5;stroke-linejoin:bevel;stroke-miterlimit:10;stroke-dasharray:30,30,30,10;}
	.st2{opacity:0.64;fill:none;stroke:#9BA1A5;stroke-linejoin:bevel;stroke-miterlimit:10;stroke-dasharray:100,20,20,10;}
	.st3{fill:#EEEEEE;}
	.st4{fill:#A4A4A4;stroke:#898989;stroke-width:0.7;stroke-miterlimit:10;}
	.st5{fill:#FFFFFF;stroke:#898989;stroke-width:0.7;stroke-miterlimit:10;}
	.st6{fill:none;stroke:#EEEEEE;stroke-width:5;stroke-miterlimit:10;}
	.st7{fill:none;stroke:#FFFFFF;stroke-width:9;stroke-miterlimit:10;}
	.st8{fill:none;stroke:#FFFFFF;stroke-width:6;stroke-miterlimit:10;}
	.st9{fill:none;stroke:#FFFFFF;stroke-width:5;stroke-miterlimit:10;}
	.st10{fill:none;stroke:#A8A8A8;stroke-width:2;stroke-linecap:round;stroke-miterlimit:10;}
	.st11{fill:none;stroke:#898989;stroke-width:2;stroke-linecap:round;stroke-miterlimit:10;}
	.st12{fill:#FFFFFF;}
	.st13{fill:none;stroke:#999999;stroke-width:3;stroke-linecap:square;stroke-miterlimit:10;}
	.st14{fill:none;stroke:#999999;stroke-width:3;stroke-miterlimit:10;}
	.st15{fill:none;stroke:#999999;stroke-width:3;stroke-linecap:round;stroke-miterlimit:10;}
	.st16{fill:none;stroke:#999999;stroke-width:0.7;stroke-linecap:round;stroke-miterlimit:10;}
	.st17{fill:#A4A4A4;}
	.st18{fill:#898989;}
	.st19{fill:#999999;}
	.st20{fill:none;stroke:#898989;stroke-width:2;stroke-miterlimit:10;}
	.st21{fill:#F4F4F4;}
	.st22{fill:#474747;}
	.st23{fill:#F5E4BD;}
	.st24{fill:#F4F4F4;stroke:#474747;stroke-width:0.7;stroke-linejoin:bevel;stroke-miterlimit:10;stroke-dasharray:100,20,20,10;}
	.st25{fill:#F4F4F4;stroke:#474747;stroke-width:0.7;stroke-linejoin:bevel;stroke-miterlimit:10;stroke-dasharray:30,30,30,10;}
	.st26{fill:#F4F4F4;stroke:#474747;stroke-width:0.7;stroke-linejoin:bevel;stroke-miterlimit:10;stroke-dasharray:50,100,100,50;}
	.st27{fill:#F4F4F4;stroke:#474747;stroke-width:0.7;stroke-miterlimit:10;}
	.st28{fill:#989899;}
	.st29{fill:#B7B7B7;}
	.st30{fill:none;stroke:#686868;stroke-width:0.7;stroke-linecap:round;stroke-miterlimit:10;}
	.st31{fill:none;stroke:#686868;stroke-width:0.7;stroke-linecap:round;stroke-miterlimit:10;stroke-dasharray:3.8745,2.9059;}
	
		.st32{fill:none;stroke:#686868;stroke-width:0.7;stroke-linecap:round;stroke-miterlimit:10;stroke-dasharray:5.8117,3.8745,3.8745,2.9059;}
	.st33{opacity:0.5;}
	.st34{fill:none;stroke:#474747;stroke-width:0.7;stroke-linecap:round;stroke-miterlimit:10;stroke-dasharray:6,4,4,3;}
	.st35{fill:#D3D3D3;stroke:#474747;stroke-width:0.7;stroke-miterlimit:10;}
	.st36{fill:#A5A5A5;}
	.st37{fill:none;stroke:#474747;stroke-width:0.7;stroke-miterlimit:10;}
	.st38{fill:#9F9FA0;}
	.st39{fill:none;stroke:#545454;stroke-width:0.7;stroke-miterlimit:10;}
	.st40{fill:#AFAFAF;stroke:#474747;stroke-width:0.7;stroke-linecap:round;stroke-linejoin:round;stroke-miterlimit:10;}
	.st41{fill:none;stroke:#474747;stroke-width:0.7;stroke-linecap:round;stroke-miterlimit:10;}
	.st42{fill:none;}
	.st43{fill:#F4F4F4;stroke:#474747;stroke-width:0.7;stroke-linecap:round;stroke-miterlimit:10;}
	.st44{fill:#C6C6C6;}
	.st45{fill:none;stroke:#474747;stroke-width:0.7;stroke-linecap:round;stroke-linejoin:round;stroke-miterlimit:10;}
	.st46{fill:#D0D0D0;stroke:#474747;stroke-width:0.7;stroke-linecap:round;stroke-linejoin:round;stroke-miterlimit:10;}
	.st47{fill:#F4F4F4;stroke:#474747;stroke-width:0.7;stroke-linejoin:round;stroke-miterlimit:10;}
	.st48{fill:#F4F4F4;stroke:#474747;stroke-width:0.7;stroke-linecap:round;stroke-linejoin:round;stroke-miterlimit:10;}
	.st49{fill:#B7B7B7;stroke:#474747;stroke-width:0.7;stroke-miterlimit:10;}
	.st50{fill:#EAF0A0;}
	.st51{fill:#D0D0D0;}
	.st52{opacity:0.5;fill:#B6B6B6;}
	.st53{fill:none;stroke:#545454;stroke-width:0.7;stroke-linecap:round;stroke-miterlimit:10;}
	.st54{fill:#D1E3FF;stroke:#474747;stroke-width:0.7;stroke-miterlimit:10;}
	.st55{fill:#F7FFB4;}
	.st56{fill:#F5FBFF;}
	.st57{fill:#7F7F7F;}
	.st58{font-family:'MicrosoftYaHei';}
	.st59{font-size:42px;}
	.st60{letter-spacing:3;}
	.st61{fill:#878787;}
	.st62{font-size:20px;}
	.st63{letter-spacing:1;}
	.st64{fill:#108AE2;}
	.st65{fill:#DDDDDD;}
	.st66{fill:#FCF5DF;}
	.st67{fill:#F7E3BC;}
	.st68{fill:#D1E3FF;}
	.st69{fill:none;stroke:#686868;stroke-width:0.7;stroke-linecap:round;stroke-miterlimit:10;stroke-dasharray:4.0585,3.0439;}
	
		.st70{fill:none;stroke:#686868;stroke-width:0.7;stroke-linecap:round;stroke-miterlimit:10;stroke-dasharray:6.0877,4.0585,4.0585,3.0439;}
	.st71{fill:#D2D0C7;stroke:#3F2A25;stroke-width:0.7;stroke-linecap:round;stroke-linejoin:round;stroke-miterlimit:10;}
	.st72{fill:#FDF4E0;}
	.st73{fill:#3F2A25;}
	.st74{fill:#F5E4BD;stroke:#3F2A25;stroke-width:0.7;stroke-linecap:round;stroke-miterlimit:10;}
	.st75{fill:#7A7285;}
	.st76{fill:#EAF0A1;}
	.st77{fill:#EBF09F;}
</style>
<g>
	<path class="st0" d="M287.9,347.7h-8.6c-27.7,37.1-46.8,81-54.3,128.8h575.9c-6.9-44-23.6-84.8-47.9-120h-31.7
		c-2.4,0-4.4-2-4.4-4.4s2-4.4,4.4-4.4h25.4h8.9h33.8c1.7,0,3.1-1.4,3.1-3.1s-1.4-3.1-3.1-3.1h-22.9h-11.4c-2.2,0-4-1.8-4-4
		c0-2.2,1.8-4,4-4h11.4h11.9c7.3,0,13.2-5.9,13.2-13.2c0-7.3-5.9-13.2-13.2-13.2h-50.6h-17.7h-13.1c-2.2,0-4-1.8-4-4s1.8-4,4-4h4.1
		h22.3c3.2,0,5.7-2.6,5.7-5.7c0-3.2-2.6-5.7-5.7-5.7c0,0-35.6,0.1-36.2,0.3c-48.6-36.4-109-57.9-174.4-57.9
		c-51.9,0-100.6,13.6-142.8,37.4H266.4c-6.6,0-11.9,5.3-11.9,11.9c0,6.6,5.3,11.9,11.9,11.9h67.3h0.8c0,0,0,0-0.1,0.1
		c2.6,0.4,4.5,2.6,4.5,5.2c0,2.9-2.4,5.3-5.3,5.3h-11.9h-0.1h-63.2c-2.7,0-4.8,2.2-4.8,4.8c0,2.7,2.2,4.8,4.8,4.8h15.8
		c2.2,0,4,1.8,4,4c0,2.2-1.8,4-4,4h-40.4c-2.2,0-4,1.8-4,4s1.8,4,4,4h11.4h6.2c1.7,0,3.1,1.4,3.1,3.1s-1.4,3.1-3.1,3.1H251
		c-1.5,0-2.6,1.2-2.6,2.6s1.2,2.6,2.6,2.6h22h13.2h1.8c2.4,0,4.4,2,4.4,4.4S290.4,347.7,287.9,347.7z"/>
	<path class="st0" d="M341.4,259h-41c-2,0-3.7-1.7-3.7-3.7v-1.4c0-2,1.7-3.7,3.7-3.7h41c2,0,3.7,1.7,3.7,3.7v1.4
		C345.1,257.3,343.4,259,341.4,259z"/>
</g>
<line class="st1" x1="141.9" y1="506.9" x2="884.1" y2="506.9"/>
<line class="st2" x1="67.7" y1="477.5" x2="958.3" y2="477.5"/>
<ellipse transform="matrix(0.5209 -0.8536 0.8536 0.5209 346.6887 841.0101)" class="st54" cx="922.5" cy="111.7" rx="48.3" ry="42.9"/>
<path class="st38" d="M894.5,149.5c0,0-11.8,3.9-12.5,7.5c-0.7,3.6,9.9,13.3,12.4,6C897.2,155,894.5,149.5,894.5,149.5z"/>
<path class="st39" d="M892.1,149.1c0,0-11.8,3.9-12.5,7.5c-0.7,3.6,9.9,13.3,12.4,6C894.8,154.5,892.1,149.1,892.1,149.1z"/>
<ellipse transform="matrix(0.5209 -0.8536 0.8536 0.5209 347.3819 838.4619)" class="st39" cx="920.6" cy="109.8" rx="48.3" ry="42.9"/>
<g>
	<path class="st53" d="M780.1,245.8c-1.1,0.4-2.3,0.7-3.5,1.1c-1.7,0.5-3.4,1-5.1,1.4c-15,3.9-31.2,5.1-48.3,2.4"/>
	<path class="st53" d="M783.7,244.6c-0.7,0.3-1.4,0.5-2.1,0.7"/>
	<path class="st53" d="M892.7,141.2c0,0-10.8,3.4-23.6,30.4c-8.4,17.7-36.4,51.4-75.7,69"/>
</g>
<g>
	
		<ellipse transform="matrix(0.5209 -0.8536 0.8536 0.5209 268.228 803.7152)" class="st55" cx="850.1" cy="162.9" rx="48.3" ry="42.9"/>
</g>
<g>
	<path class="st55" d="M822,200.8c0,0-11.8,3.9-12.5,7.5c-0.7,3.6,9.9,13.3,12.4,6C824.7,206.2,822,200.8,822,200.8z"/>
</g>
<path class="st39" d="M819.7,200.3c0,0-11.8,3.9-12.5,7.5c-0.7,3.6,9.9,13.3,12.4,6C822.3,205.8,819.7,200.3,819.7,200.3z"/>
<ellipse transform="matrix(0.5209 -0.8536 0.8536 0.5209 268.9212 801.1671)" class="st39" cx="848.2" cy="161" rx="48.3" ry="42.9"/>
<g>
	
		<ellipse transform="matrix(0.5209 -0.8536 0.8536 0.5209 315.4948 754.5949)" class="st56" cx="830" cy="96.2" rx="52.4" ry="46.5"/>
</g>
<path class="st12" d="M799.6,137.3c0,0-12.8,4.2-13.5,8.1s10.7,14.4,13.4,6.5C802.5,143.2,799.6,137.3,799.6,137.3z"/>
<g>
	<path class="st56" d="M800.1,137.4c0,0-12.8,4.2-13.5,8.1c-0.7,3.9,10.7,14.4,13.4,6.5C803,143.3,800.1,137.4,800.1,137.4z"/>
</g>
<ellipse transform="matrix(0.5209 -0.8536 0.8536 0.5209 316.2459 751.8339)" class="st39" cx="827.9" cy="94.2" rx="52.4" ry="46.5"/>
<g>
	<path class="st53" d="M645.6,225.4c-4.5,2-8.5,5.6-12.1,11"/>
	<path class="st53" d="M660.4,223.1c-2.8-0.1-5.4,0-7.8,0.3"/>
	<path class="st53" d="M683.4,226.8c-5.6-1.2-10.6-2.3-15.2-2.9"/>
	<path class="st53" d="M788.4,152.6c0,0-8.9,7-11.3,36.8c-2.4,29.9-26.3,52.2-75.5,41.5c-3.8-0.8-7.4-1.7-10.9-2.4"/>
</g>
<g>
	<path class="st53" d="M652.6,230.9c-5,0.3-9.9,2.2-15.3,6"/>
	<path class="st53" d="M667.2,234c-2.6-1.1-5-2-7.4-2.5"/>
	<path class="st53" d="M687.4,245.7c-4.8-3.1-9.1-5.9-13.1-8.1"/>
	<path class="st53" d="M811.9,213.6c0,0-10.8,3.4-23.6,30.4c-12.8,27.1-43.2,39.4-85.3,12c-3.3-2.1-6.4-4.2-9.3-6.1"/>
</g>
<path class="st39" d="M798,137.8c0,0-12.8,4.2-13.5,8.1s10.7,14.4,13.4,6.5C800.9,143.7,798,137.8,798,137.8z"/>
<g>
	<text transform="matrix(1 0 0 1 301.3879 591.0791)"><tspan x="0" y="0" class="st57 st58 st59 st60">哎呀!无法访问该页面</tspan><tspan x="81.5" y="40" class="st61 st58 st62 st63">你可尝试</tspan><tspan x="167.5" y="40" class="st64 st58 st62 st63">刷新页面</tspan><tspan x="253.5" y="40" class="st61 st58 st62 st63">或者</tspan><tspan x="296.5" y="40" class="st64 st58 st62 st63">返回</tspan></text>
</g>
<g>
	<g>
		<path class="st66" d="M462.1,417.8c-4.5,0-9-0.8-10.6-1.9c-0.8-0.5-1.1-1.1-1-1.7c0.2-1.4,2.8-2.1,3.1-2.2l14.4-4.8l48-48.9
			l37.2,5.4l-76.9,47.8c0,0,0,0,0,0c0,0-2.2,2-5.7,4.6C468.6,417.6,464.4,417.8,462.1,417.8L462.1,417.8z"/>
		<path class="st22" d="M516.1,358.7l36,5.3l-76,47.3c0,0-2.2,2-5.7,4.6c-1.6,1.2-4.8,1.6-8.2,1.6c-4.3,0-8.8-0.8-10.4-1.9
			c-2.9-2,2-3.3,2-3.3l14.5-4.8L516.1,358.7 M515.8,357.9l-0.2,0.3l-47.8,48.7l-14.3,4.8c-0.5,0.1-3.1,0.9-3.3,2.5
			c-0.1,0.7,0.3,1.4,1.2,2.1c1.9,1.3,6.9,2,10.8,2c2.3,0,6.6-0.2,8.7-1.8c3.2-2.4,5.4-4.3,5.7-4.6l76-47.2l1.6-1l-1.9-0.3l-36-5.3
			L515.8,357.9L515.8,357.9z"/>
	</g>
	<path class="st67" d="M506.6,392.2l16.9-13.2l1-15.1l-10.7-2.9l-9,9.2c-1.5,7-4,15.6-8.3,19.8c-4.8,4.8-7.4,10.3-8.8,14
		L506.6,392.2z"/>
	<g>
		<path class="st21" d="M503.3,240.7l0.3-0.1c0.1,0,1.4-0.8,0.3-3.5l-2.7-6.4l9.6-9.6l-0.1,1c0,0.1-0.8,9.3,5,10.2
			c6.1,0.9,7.1,1.8,7.2,1.9l0.2,0.2l-12.3,24.2L503.3,240.7z"/>
		<path class="st22" d="M510.4,222c0,0-0.9,9.7,5.3,10.5c6.2,0.9,7,1.8,7,1.8l-11.9,23.3l-7-16.7c0,0,1.8-0.9,0.4-4
			c-1.5-3.6-2.6-6.2-2.6-6.2L510.4,222 M511.2,220.1l-1.4,1.4l-8.8,8.8l-0.3,0.3l0.2,0.4l2.6,6.2c1,2.4-0.1,3-0.1,3.1l-0.5,0.3
			l0.2,0.6l7,16.7l0.6,1.4l0.7-1.3l11.9-23.3l0.2-0.5l-0.4-0.4c-0.2-0.2-1.5-1.1-7.4-2c-5.4-0.8-4.7-9.7-4.7-9.8L511.2,220.1
			L511.2,220.1z"/>
	</g>
	<path class="st23" d="M508.2,244.4l9.1,0.6l5.4-10.7c0,0-0.9-0.9-7-1.8c-4.4-0.6-5.2-5.8-5.3-8.7l-1.5-0.4l-4.6,1.1
		c-0.3,1.5,3,4.1,4.8,6.7C513,237,512.6,240.9,508.2,244.4z"/>
	<g>
		<g>
			<g>
				<g>
					<path class="st28" d="M416.3,374.5c-0.3,0-0.6,0-0.9,0c28,0.5,50.6,23.3,50.6,51.4s-22.6,50.9-50.6,51.4c0.3,0,0.6,0,0.9,0
						c28.4,0,51.4-23,51.4-51.4C467.7,397.5,444.7,374.5,416.3,374.5z"/>
				</g>
				<g>
					<path class="st28" d="M415.4,382c-0.3,0-0.6,0-0.9,0c-24.3,0-44,19.7-44,44c0,24.3,19.7,44,44,44c0.3,0,0.6,0,0.9,0
						c-23.9-0.5-43.1-20-43.1-43.9C372.3,402,391.5,382.5,415.4,382z"/>
				</g>
			</g>
			<g>
				<path class="st68" d="M471.5,449.8c-1,0-2-0.5-2.6-1.3c-0.6-0.9-0.8-1.9-0.4-2.9c2.3-6.8,3.3-13.9,3.1-21.1
					c-1.2-29.3-25-53.6-54.2-55.4c-1.2-0.1-2.5-0.1-3.7-0.1c-16.8,0-32.7,7.3-43.8,20c-0.6,0.7-1.5,1.1-2.4,1.1c0,0,0,0,0,0
					c-0.4,0-0.8-0.1-1.1-0.2c-1.1-0.4-1.8-1.2-2-2.1c-0.3-1,0.1-2.1,0.9-3c12.2-14,29.9-22.1,48.5-22.1c0.4,0,0.9,0,1.3,0
					c33.9,0.7,61.5,27.8,62.9,61.6c0.3,8-0.8,15.9-3.4,23.4C474,448.9,472.8,449.8,471.5,449.8z"/>
				<path class="st22" d="M413.7,362.9L413.7,362.9c0.4,0,0.9,0,1.3,0c16.2,0.3,31.6,6.8,43.4,18.3c11.7,11.5,18.5,26.7,19.2,43
					c0.3,8-0.8,15.8-3.4,23.3c-0.4,1.1-1.5,1.9-2.7,1.9c-0.9,0-1.7-0.4-2.3-1.2c-0.5-0.8-0.7-1.7-0.4-2.6c2.3-6.8,3.4-14,3.1-21.2
					c-1.2-29.4-25.1-53.9-54.5-55.7c-1.2-0.1-2.5-0.1-3.7-0.1c-16.9,0-32.9,7.3-44,20.1c-0.6,0.6-1.3,1-2.2,1c-0.3,0-0.7-0.1-1-0.2
					c-1-0.4-1.6-1-1.8-1.9c-0.2-0.9,0.1-1.9,0.8-2.7C377.6,370.9,395.2,362.9,413.7,362.9 M413.7,362.2c-19.4,0-36.9,8.6-48.7,22.2
					c-1.8,2.1-1.3,4.7,1.3,5.7c0.4,0.2,0.8,0.2,1.3,0.2c1,0,2-0.5,2.7-1.2c10.6-12.2,26.1-19.9,43.5-19.9c1.2,0,2.4,0,3.7,0.1
					c29.2,1.8,52.7,25.8,53.9,55.1c0.3,7.4-0.8,14.4-3,21c-0.8,2.3,0.9,4.7,3.3,4.7h0c1.5,0,2.8-1,3.3-2.4
					c2.5-7.3,3.8-15.3,3.4-23.6c-1.4-33.9-29.3-61.3-63.2-62C414.6,362.2,414.1,362.2,413.7,362.2L413.7,362.2z"/>
			</g>
			<g>
				<g>
					<g>
						<line class="st30" x1="414.1" y1="382.4" x2="414.1" y2="385.4"/>
						<line class="st69" x1="414.1" y1="389.5" x2="414.1" y2="395.1"/>
						<line class="st70" x1="414.1" y1="396.6" x2="414.1" y2="464.1"/>
						<line class="st30" x1="414.1" y1="465.6" x2="414.1" y2="468.6"/>
					</g>
				</g>
				<g>
					<g>
						<line class="st30" x1="392.6" y1="388.2" x2="394.1" y2="390.8"/>
						<line class="st69" x1="396.1" y1="394.3" x2="398.9" y2="399.1"/>
						<line class="st70" x1="399.6" y1="400.5" x2="433.4" y2="458.9"/>
						<line class="st30" x1="434.1" y1="460.2" x2="435.6" y2="462.8"/>
					</g>
				</g>
				<g>
					<g>
						<line class="st30" x1="376.8" y1="404" x2="379.4" y2="405.5"/>
						<line class="st69" x1="382.9" y1="407.5" x2="387.7" y2="410.3"/>
						<line class="st70" x1="389.1" y1="411" x2="447.5" y2="444.8"/>
						<line class="st30" x1="448.8" y1="445.5" x2="451.4" y2="447"/>
					</g>
				</g>
				<g>
					<g>
						<line class="st30" x1="371" y1="425.5" x2="374" y2="425.5"/>
						<line class="st69" x1="378.1" y1="425.5" x2="383.7" y2="425.5"/>
						<line class="st70" x1="385.2" y1="425.5" x2="452.7" y2="425.5"/>
						<line class="st30" x1="454.2" y1="425.5" x2="457.2" y2="425.5"/>
					</g>
				</g>
				<g>
					<g>
						<line class="st30" x1="376.8" y1="447" x2="379.4" y2="445.5"/>
						<line class="st69" x1="382.9" y1="443.5" x2="387.7" y2="440.7"/>
						<line class="st70" x1="389.1" y1="440" x2="447.5" y2="406.2"/>
						<line class="st30" x1="448.8" y1="405.5" x2="451.4" y2="404"/>
					</g>
				</g>
				<g>
					<g>
						<line class="st30" x1="392.6" y1="462.8" x2="394.1" y2="460.2"/>
						<line class="st69" x1="396.1" y1="456.7" x2="398.9" y2="451.9"/>
						<line class="st70" x1="399.6" y1="450.5" x2="433.4" y2="392.1"/>
						<line class="st30" x1="434.1" y1="390.8" x2="435.6" y2="388.2"/>
					</g>
				</g>
			</g>
			<g class="st33">
				<line class="st34" x1="402.9" y1="383.9" x2="425.2" y2="467.1"/>
				<line class="st34" x1="383.6" y1="395" x2="444.6" y2="456"/>
				<line class="st34" x1="372.5" y1="414.3" x2="455.7" y2="436.6"/>
				<line class="st34" x1="372.5" y1="436.6" x2="455.7" y2="414.3"/>
				<line class="st34" x1="383.6" y1="456" x2="444.6" y2="395"/>
				<line class="st34" x1="402.9" y1="467.1" x2="425.2" y2="383.9"/>
			</g>
			<g>
				<path class="st29" d="M414.5,477c-28.2,0-51.1-22.9-51.1-51.1s22.9-51.1,51.1-51.1s51.1,22.9,51.1,51.1S442.7,477,414.5,477z
					 M414.5,381.6c-24.4,0-44.3,19.9-44.3,44.3s19.9,44.3,44.3,44.3s44.3-19.9,44.3-44.3S439,381.6,414.5,381.6z"/>
				<path class="st22" d="M414.5,375.2c28,0,50.7,22.8,50.7,50.7s-22.8,50.7-50.7,50.7c-28,0-50.7-22.8-50.7-50.7
					S386.6,375.2,414.5,375.2 M414.5,470.6c24.6,0,44.7-20,44.7-44.7s-20-44.7-44.7-44.7c-24.6,0-44.7,20-44.7,44.7
					S389.9,470.6,414.5,470.6 M414.5,374.5c-28.4,0-51.4,23-51.4,51.4c0,28.4,23,51.4,51.4,51.4c28.4,0,51.4-23,51.4-51.4
					C466,397.5,442.9,374.5,414.5,374.5L414.5,374.5z M414.5,469.9c-24.3,0-44-19.7-44-44c0-24.3,19.7-44,44-44s44,19.7,44,44
					C458.5,450.2,438.8,469.9,414.5,469.9L414.5,469.9z"/>
			</g>
			<path class="st12" d="M417.2,381.1c-0.4,0-0.9,0-1.3,0c24.2,0.7,43.5,20.5,43.5,44.8c0,24.3-19.4,44.1-43.5,44.8
				c0.4,0,0.9,0,1.3,0c24.8,0,44-20.1,44-44.8C461.1,401.2,441.9,381.1,417.2,381.1z"/>
			<path class="st12" d="M366.6,426.3c0-27.7,22.5-50.1,50.3-50.1c3,0,6,0.3,8.9,0.8c-3.6-0.8-7.2-1.2-11-1.2
				c-27.8,0-50.3,22.4-50.3,50.1c0,24.6,17.9,45.1,41.5,49.3C383.4,470.2,366.6,450.2,366.6,426.3z"/>
		</g>
		<g>
			<g>
				<g>
					<path class="st28" d="M600.9,374.5c-0.3,0-0.6,0-0.9,0c28,0.5,50.6,23.3,50.6,51.4S628,476.9,600,477.3c0.3,0,0.6,0,0.9,0
						c28.4,0,51.4-23,51.4-51.4C652.3,397.5,629.3,374.5,600.9,374.5z"/>
				</g>
				<g>
					<path class="st28" d="M600,382c-0.3,0-0.6,0-0.9,0c-24.3,0-44,19.7-44,44c0,24.3,19.7,44,44,44c0.3,0,0.6,0,0.9,0
						c-23.9-0.5-43.1-20-43.1-43.9C557,402,576.2,382.5,600,382z"/>
				</g>
			</g>
			<g>
				<path class="st68" d="M656.1,449.8c-1,0-2-0.5-2.6-1.3c-0.6-0.9-0.8-1.9-0.4-2.9c2.3-6.8,3.3-13.9,3.1-21.1
					c-1.2-29.3-25-53.6-54.2-55.4c-1.2-0.1-2.5-0.1-3.7-0.1c-16.8,0-32.7,7.3-43.8,20c-0.6,0.7-1.5,1.1-2.4,1.1l0,0
					c-0.4,0-0.8-0.1-1.1-0.2c-1.1-0.4-1.8-1.2-2-2.1c-0.3-1,0.1-2.1,0.9-3c12.2-14,29.9-22.1,48.5-22.1c0.4,0,0.9,0,1.3,0
					c33.9,0.7,61.5,27.8,62.9,61.6c0.3,8-0.8,15.9-3.4,23.4C658.6,448.9,657.4,449.8,656.1,449.8z"/>
				<path class="st22" d="M598.3,362.9L598.3,362.9c0.4,0,0.9,0,1.3,0c16.2,0.3,31.6,6.8,43.4,18.3c11.7,11.5,18.5,26.7,19.2,43
					c0.3,8-0.8,15.8-3.4,23.3c-0.4,1.1-1.5,1.9-2.7,1.9c-0.9,0-1.7-0.4-2.3-1.2c-0.5-0.8-0.7-1.7-0.4-2.6c2.3-6.8,3.4-14,3.1-21.2
					c-1.2-29.4-25.1-53.9-54.5-55.7c-1.2-0.1-2.5-0.1-3.7-0.1c-16.9,0-32.9,7.3-44,20.1c-0.6,0.6-1.3,1-2.2,1c-0.3,0-0.7-0.1-1-0.2
					c-1-0.4-1.6-1-1.8-1.9c-0.2-0.9,0.1-1.9,0.8-2.7C562.2,370.9,579.8,362.9,598.3,362.9 M598.3,362.2c-19.4,0-36.9,8.6-48.7,22.2
					c-1.8,2.1-1.3,4.7,1.3,5.7c0.4,0.2,0.8,0.2,1.3,0.2c1,0,2-0.5,2.7-1.2c10.6-12.2,26.1-19.9,43.5-19.9c1.2,0,2.4,0,3.7,0.1
					c29.2,1.8,52.7,25.8,53.9,55.1c0.3,7.4-0.8,14.4-3,21c-0.8,2.3,0.9,4.7,3.3,4.7c1.5,0,2.8-1,3.3-2.4c2.5-7.3,3.8-15.3,3.4-23.6
					c-1.4-33.9-29.3-61.3-63.2-62C599.2,362.2,598.7,362.2,598.3,362.2L598.3,362.2z"/>
			</g>
			<g>
				<g>
					<g>
						<line class="st30" x1="598.7" y1="382.4" x2="598.7" y2="385.4"/>
						<line class="st69" x1="598.7" y1="389.5" x2="598.7" y2="395.1"/>
						<line class="st70" x1="598.7" y1="396.6" x2="598.7" y2="464.1"/>
						<line class="st30" x1="598.7" y1="465.6" x2="598.7" y2="468.6"/>
					</g>
				</g>
				<g>
					<g>
						<line class="st30" x1="577.2" y1="388.2" x2="578.7" y2="390.8"/>
						<line class="st69" x1="580.7" y1="394.3" x2="583.5" y2="399.1"/>
						<line class="st70" x1="584.3" y1="400.5" x2="618" y2="458.9"/>
						<line class="st30" x1="618.8" y1="460.2" x2="620.3" y2="462.8"/>
					</g>
				</g>
				<g>
					<g>
						<line class="st30" x1="561.4" y1="404" x2="564" y2="405.5"/>
						<line class="st69" x1="567.5" y1="407.5" x2="572.4" y2="410.3"/>
						<line class="st70" x1="573.7" y1="411" x2="632.1" y2="444.8"/>
						<line class="st30" x1="633.4" y1="445.5" x2="636" y2="447"/>
					</g>
				</g>
				<g>
					<g>
						<line class="st30" x1="555.6" y1="425.5" x2="558.6" y2="425.5"/>
						<line class="st69" x1="562.7" y1="425.5" x2="568.3" y2="425.5"/>
						<line class="st70" x1="569.8" y1="425.5" x2="637.3" y2="425.5"/>
						<line class="st30" x1="638.8" y1="425.5" x2="641.8" y2="425.5"/>
					</g>
				</g>
				<g>
					<g>
						<line class="st30" x1="561.4" y1="447" x2="564" y2="445.5"/>
						<line class="st69" x1="567.5" y1="443.5" x2="572.4" y2="440.7"/>
						<line class="st70" x1="573.7" y1="440" x2="632.1" y2="406.2"/>
						<line class="st30" x1="633.4" y1="405.5" x2="636" y2="404"/>
					</g>
				</g>
				<g>
					<g>
						<line class="st30" x1="577.2" y1="462.8" x2="578.7" y2="460.2"/>
						<line class="st69" x1="580.7" y1="456.7" x2="583.5" y2="451.9"/>
						<line class="st70" x1="584.3" y1="450.5" x2="618" y2="392.1"/>
						<line class="st30" x1="618.8" y1="390.8" x2="620.3" y2="388.2"/>
					</g>
				</g>
			</g>
			<g class="st33">
				<line class="st34" x1="587.6" y1="383.9" x2="609.9" y2="467.1"/>
				<line class="st34" x1="568.3" y1="395" x2="629.2" y2="456"/>
				<line class="st34" x1="557.1" y1="414.3" x2="640.3" y2="436.6"/>
				<line class="st34" x1="557.1" y1="436.6" x2="640.3" y2="414.3"/>
				<line class="st34" x1="568.3" y1="456" x2="629.2" y2="395"/>
				<line class="st34" x1="587.6" y1="467.1" x2="609.9" y2="383.9"/>
			</g>
			<g>
				<path class="st29" d="M599.2,477c-28.2,0-51.1-22.9-51.1-51.1s22.9-51.1,51.1-51.1s51.1,22.9,51.1,51.1S627.3,477,599.2,477z
					 M599.2,381.6c-24.4,0-44.3,19.9-44.3,44.3s19.9,44.3,44.3,44.3s44.3-19.9,44.3-44.3S623.6,381.6,599.2,381.6z"/>
				<path class="st22" d="M599.2,375.2c28,0,50.7,22.8,50.7,50.7s-22.8,50.7-50.7,50.7s-50.7-22.8-50.7-50.7
					S571.2,375.2,599.2,375.2 M599.2,470.6c24.6,0,44.7-20,44.7-44.7s-20-44.7-44.7-44.7s-44.7,20-44.7,44.7
					S574.5,470.6,599.2,470.6 M599.2,374.5c-28.4,0-51.4,23-51.4,51.4c0,28.4,23,51.4,51.4,51.4c28.4,0,51.4-23,51.4-51.4
					C650.6,397.5,627.6,374.5,599.2,374.5L599.2,374.5z M599.2,469.9c-24.3,0-44-19.7-44-44c0-24.3,19.7-44,44-44s44,19.7,44,44
					C643.1,450.2,623.4,469.9,599.2,469.9L599.2,469.9z"/>
			</g>
			<path class="st12" d="M601.8,381.1c-0.4,0-0.9,0-1.3,0c24.2,0.7,43.5,20.5,43.5,44.8c0,24.3-19.4,44.1-43.5,44.8
				c0.4,0,0.9,0,1.3,0c24.8,0,44-20.1,44-44.8C645.7,401.2,626.6,381.1,601.8,381.1z"/>
			<path class="st12" d="M551.2,426.3c0-27.7,22.5-50.1,50.3-50.1c3,0,6,0.3,8.9,0.8c-3.6-0.8-7.2-1.2-11-1.2
				c-27.8,0-50.3,22.4-50.3,50.1c0,24.6,17.9,45.1,41.5,49.3C568,470.2,551.2,450.2,551.2,426.3z"/>
		</g>
	</g>
	<g>
		<g>
			<path class="st68" d="M466,316c-1.2,0-2.3-0.7-2.7-1.8c-3.8-8.6-6.9-19.4,2.7-26.5c2.7-2,6.6-3,11.6-3c3.7,0,6.8,0.6,7.4,0.7
				c0.8,0.2,1.5,0.6,1.9,1.3c0.4,0.7,0.6,1.5,0.5,2.2c-0.3,1.4-1.5,2.4-2.9,2.4c-0.2,0-0.4,0-0.6-0.1c-1.4-0.3-3.8-0.6-6.3-0.6
				c-2.6,0-6,0.3-8.1,1.8c-4.2,3.1-6,7.5-0.8,19.2c0.7,1.5,0,3.3-1.5,3.9C466.8,315.9,466.4,316,466,316z"/>
			<path class="st22" d="M477.6,285.1c3.7,0,6.7,0.6,7.3,0.7c1.4,0.3,2.4,1.7,2.1,3.1c-0.2,1.3-1.4,2.1-2.6,2.1c-0.2,0-0.3,0-0.5,0
				c-1.3-0.3-3.8-0.6-6.4-0.6c-3,0-6.3,0.4-8.3,1.9c-4.3,3.2-6.2,7.8-0.9,19.7c0.6,1.3,0,2.9-1.3,3.5c-0.3,0.2-0.7,0.2-1.1,0.2
				c-1,0-2-0.6-2.4-1.6c-3.8-8.5-6.8-19.1,2.6-26.1C469.3,285.7,473.8,285.1,477.6,285.1 M477.6,284.4c-5.1,0-9.1,1-11.8,3
				c-9.9,7.2-6.7,18.2-2.8,26.9c0.5,1.2,1.7,2,3.1,2c0.5,0,0.9-0.1,1.3-0.3c1.7-0.7,2.4-2.7,1.7-4.4c-5.1-11.5-3.4-15.8,0.7-18.8
				c1.5-1.1,4.3-1.7,7.9-1.7c2.5,0,4.9,0.3,6.2,0.6c0.2,0,0.4,0.1,0.6,0.1c1.6,0,3-1.1,3.3-2.7c0.4-1.8-0.8-3.6-2.6-3.9
				C484.5,285,481.3,284.4,477.6,284.4L477.6,284.4z"/>
		</g>
	</g>
	<g>
		<g>
			<g>
				<path class="st68" d="M504.6,421.5c-0.9,0-1.7-0.4-2.3-1.1L450.5,358c-1.1-1.3-0.9-3.2,0.4-4.2c0.5-0.4,1.2-0.7,1.9-0.7
					c0.9,0,1.7,0.4,2.3,1.1l51.9,62.4c1.1,1.3,0.9,3.2-0.4,4.2C506,421.2,505.3,421.5,504.6,421.5z"/>
				<path class="st22" d="M452.8,353.4c0.8,0,1.5,0.3,2,1l51.9,62.4c0.9,1.1,0.8,2.8-0.3,3.7c-0.5,0.4-1.1,0.6-1.7,0.6
					c-0.8,0-1.5-0.3-2-1l-51.9-62.4c-0.9-1.1-0.8-2.8,0.3-3.7C451.6,353.6,452.2,353.4,452.8,353.4 M452.8,352.7L452.8,352.7
					c-0.8,0-1.5,0.3-2.1,0.8c-1.4,1.2-1.6,3.3-0.4,4.7l51.9,62.4c0.6,0.8,1.6,1.2,2.6,1.2c0.8,0,1.5-0.3,2.1-0.8
					c1.4-1.2,1.6-3.3,0.4-4.7l-51.9-62.4C454.7,353.1,453.8,352.7,452.8,352.7L452.8,352.7z"/>
			</g>
		</g>
		<g>
			<path class="st68" d="M415,427.8c-3.3,0-5.2-1.2-5.2-3.2c0-2,1.9-3.2,5.2-3.2c0.2,0,0.5,0,0.7,0c0.9-1.3,17.2-23.8,24.6-44.5
				c7.7-21.5,23.7-66.3,23.9-66.8c1.7-3.3,8.3-13.7,23.4-13.7c3.5,0,7.3,0.6,11.3,1.7c1.6,0.5,2.5,2.1,2.1,3.7
				c-0.4,1.3-1.5,2.2-2.9,2.2c-0.3,0-0.6,0-0.8-0.1c-3.4-1-6.7-1.5-9.6-1.5c-11.8,0-16.7,7.7-18,10.2c-1,5.8-8,54.5,27,77.8
				c12.1,8.1,31.7,9.2,31.9,9.2c1.6,0.1,2.9,1.5,2.8,3.1c-0.1,1.6-1.4,2.8-3,2.8l-0.2,0c-0.9,0-21.3-1.1-34.9-10.2
				c-16.9-11.3-27.4-29.6-30.2-52.9c-0.4-3.2-0.6-6.4-0.7-9.7c-5.2,14.7-12,33.9-16.5,46.2c-8,22.1-24.7,45.1-25.5,46
				c-0.2,0.2-0.4,0.4-0.7,0.6C419,426.9,417,427.8,415,427.8z"/>
			<path class="st22" d="M487.6,296.9c3.3,0,7,0.5,11.2,1.7c1.4,0.4,2.2,1.9,1.8,3.3c-0.3,1.2-1.4,1.9-2.5,1.9c-0.2,0-0.5,0-0.7-0.1
				c-3.7-1-6.9-1.5-9.7-1.5c-11.9,0-16.9,7.8-18.3,10.4c-1.2,6.9-7.8,54.9,27.2,78.2c12.3,8.2,31.9,9.2,32.1,9.2
				c1.5,0.1,2.6,1.3,2.5,2.8c-0.1,1.4-1.2,2.5-2.6,2.5c0,0-0.1,0-0.1,0c-0.9,0-21.3-1.1-34.7-10.1c-16.8-11.2-27.2-29.4-30.1-52.6
				c-0.5-4.1-0.7-8-0.8-11.6c-5.3,14.9-12.5,35.4-17.1,48c-8,22.1-24.7,45-25.4,45.9c-0.2,0.2-0.4,0.4-0.6,0.6c-0.7,1-2.4,2-4.6,2
				c-2.7,0-4.8-0.8-4.8-2.8c0-2,2.2-2.8,4.8-2.8c0.3,0,0.6,0,0.9,0c0,0,0-0.1,0.1-0.1c0.2-0.2,17-23.3,24.7-44.6
				c7.8-21.7,23.9-66.8,23.9-66.8C466.3,306.9,472.8,296.9,487.6,296.9 M487.6,296.2c-15.3,0-22,10.6-23.7,13.9l0,0l0,0
				c-0.2,0.5-16.2,45.3-23.9,66.8c-7.3,20.2-22.8,41.9-24.5,44.2c-0.2,0-0.4,0-0.5,0c-3.5,0-5.5,1.3-5.5,3.5s2,3.5,5.5,3.5
				c2.1,0,4.2-0.9,5.1-2.2c0.3-0.2,0.5-0.4,0.7-0.7c0.7-1,17.5-24,25.5-46.1c4.2-11.8,10.7-30.1,15.8-44.5c0.1,2.7,0.4,5.4,0.7,8
				c2.9,23.4,13.4,41.8,30.4,53.1c13.7,9.1,34.2,10.2,35.1,10.2c0.1,0,0.1,0,0.2,0c1.8,0,3.2-1.4,3.3-3.2c0-0.9-0.3-1.7-0.9-2.4
				c-0.6-0.7-1.4-1-2.3-1.1c-0.2,0-19.6-1-31.7-9.1c-34.7-23.1-27.9-71.4-26.9-77.4c1.3-2.5,6.1-10,17.6-10c2.9,0,6.2,0.5,9.5,1.5
				c0.3,0.1,0.6,0.1,0.9,0.1c1.5,0,2.8-1,3.2-2.4c0.5-1.8-0.5-3.6-2.3-4.1C495,296.7,491.1,296.2,487.6,296.2L487.6,296.2z"/>
		</g>
		<g>
			<g>
				<path class="st68" d="M518.7,422.3c-0.6,0-1.2-0.2-1.7-0.5c-1.4-0.9-1.7-2.8-0.8-4.1l36-53.6c0.6-0.8,1.5-1.3,2.5-1.3
					c0.6,0,1.2,0.2,1.7,0.5c1.4,0.9,1.7,2.8,0.8,4.1l-36,53.6C520.6,421.8,519.7,422.3,518.7,422.3z"/>
				<path class="st22" d="M554.8,363.1c0.5,0,1,0.1,1.5,0.4c1.2,0.8,1.5,2.5,0.7,3.7l-36,53.6c-0.5,0.8-1.3,1.2-2.2,1.2
					c-0.5,0-1-0.1-1.5-0.4c-1.2-0.8-1.5-2.5-0.7-3.7l36-53.6C553.1,363.5,553.9,363.1,554.8,363.1 M554.8,362.4L554.8,362.4
					c-1.1,0-2.2,0.6-2.8,1.5l-36,53.6c-1,1.5-0.6,3.6,0.9,4.6c0.6,0.4,1.2,0.6,1.9,0.6c1.1,0,2.2-0.6,2.8-1.5l36-53.6
					c1-1.5,0.6-3.6-0.9-4.6C556.1,362.6,555.4,362.4,554.8,362.4L554.8,362.4z"/>
			</g>
		</g>
	</g>
	<g>
		<g>
			<g>
				<path class="st29" d="M596.1,421c-1,0-1.9-0.6-2.3-1.5l-21.1-49.2c-0.3-0.6-0.3-1.3,0-1.9s0.7-1.1,1.4-1.4
					c0.3-0.1,0.7-0.2,1-0.2c1,0,1.9,0.6,2.3,1.5l21.1,49.2c0.3,0.6,0.3,1.3,0,1.9s-0.7,1.1-1.4,1.4C596.8,420.9,596.4,421,596.1,421
					z"/>
				<path class="st22" d="M575,367c0.9,0,1.7,0.5,2,1.3l21.1,49.2c0.5,1.1,0,2.4-1.2,2.9c-0.3,0.1-0.6,0.2-0.9,0.2
					c-0.9,0-1.7-0.5-2-1.3L573,370.1c-0.5-1.1,0-2.4,1.2-2.9C574.4,367.1,574.7,367,575,367 M575,366.3c-0.4,0-0.8,0.1-1.1,0.2
					c-0.7,0.3-1.3,0.9-1.5,1.6c-0.3,0.7-0.3,1.5,0,2.2l21.1,49.2c0.5,1.1,1.5,1.8,2.7,1.8c0.4,0,0.8-0.1,1.1-0.2
					c0.7-0.3,1.3-0.9,1.5-1.6c0.3-0.7,0.3-1.5,0-2.2l-21.1-49.2C577.2,367,576.1,366.3,575,366.3L575,366.3z"/>
			</g>
		</g>
		<g>
			<circle class="st29" cx="597.4" cy="425.1" r="8.3"/>
			<g>
				<path class="st22" d="M597.4,417.1c4.4,0,7.9,3.5,7.9,7.9s-3.5,7.9-7.9,7.9c-4.4,0-7.9-3.5-7.9-7.9S593,417.1,597.4,417.1
					 M597.4,416.4c-4.7,0-8.6,3.9-8.6,8.6s3.9,8.6,8.6,8.6s8.6-3.9,8.6-8.6S602.1,416.4,597.4,416.4L597.4,416.4z"/>
			</g>
		</g>
	</g>
	<g>
		<path class="st54" d="M516.4,412.9l85.3,0.3c6.1,0,11.1,5,11.1,11.1v0c0,5.3-3.7,9.9-8.9,10.9l-83.1,17.4c-11.8,2.4-23.1-6-24-18
			v0C495.8,423,504.8,413.1,516.4,412.9z"/>
		<g>
			<path class="st36" d="M520.9,416.3c-1.4,0-2.7,0.2-4,0.6c0.6-0.1,1.2-0.1,1.8-0.1c8.3,0,14.9,6.7,14.9,14.9
				c0,6.9-4.6,12.6-10.9,14.4c7.4-0.9,13.1-7.2,13.1-14.8C535.9,423,529.2,416.3,520.9,416.3z"/>
		</g>
		<g>
			<path class="st29" d="M518.7,446.9c-8.4,0-15.3-6.9-15.3-15.3s6.9-15.3,15.3-15.3c8.4,0,15.3,6.9,15.3,15.3
				S527.1,446.9,518.7,446.9z"/>
			<path class="st22" d="M518.7,416.7c8.3,0,14.9,6.7,14.9,14.9c0,8.3-6.7,14.9-14.9,14.9s-14.9-6.7-14.9-14.9
				C503.8,423.4,510.5,416.7,518.7,416.7 M518.7,416c-8.6,0-15.6,7-15.6,15.6s7,15.6,15.6,15.6s15.6-7,15.6-15.6
				S527.3,416,518.7,416L518.7,416z"/>
		</g>
		<circle class="st37" cx="518.7" cy="431.7" r="4.4"/>
		<path class="st12" d="M505.5,432.5c0-8.3,6.7-14.9,14.9-14.9c2,0,4,0.4,5.7,1.1c-2.2-1.3-4.7-2-7.5-2c-8.3,0-14.9,6.7-14.9,14.9
			c0,6.2,3.8,11.6,9.2,13.8C508.5,442.9,505.5,438.1,505.5,432.5z"/>
		<g>
			<g>
				<path class="st29" d="M508.9,457.8c-0.3,0-0.7-0.1-1-0.2c-1.3-0.5-1.9-2-1.4-3.3l9.8-22.7c0.4-0.9,1.3-1.6,2.4-1.6
					c0.3,0,0.7,0.1,1,0.2c1.3,0.5,1.9,2,1.4,3.3l-9.8,22.7C510.9,457.2,509.9,457.8,508.9,457.8z"/>
				<path class="st22" d="M518.7,430.3c0.3,0,0.6,0.1,0.8,0.2c1.1,0.5,1.7,1.8,1.2,2.9l-9.8,22.7c-0.4,0.8-1.2,1.4-2,1.4
					c-0.3,0-0.6-0.1-0.8-0.2c-1.1-0.5-1.7-1.8-1.2-2.9l9.8-22.7C517,430.8,517.9,430.3,518.7,430.3 M518.7,429.6L518.7,429.6
					c-1.2,0-2.2,0.7-2.7,1.8l-9.8,22.7c-0.6,1.5,0.1,3.2,1.6,3.8c0.4,0.1,0.7,0.2,1.1,0.2c1.2,0,2.2-0.7,2.7-1.8l9.8-22.7
					c0.6-1.5-0.1-3.2-1.6-3.8C519.5,429.7,519.1,429.6,518.7,429.6L518.7,429.6z"/>
			</g>
		</g>
		<g>
			<path class="st29" d="M498,461.5c-1.6,0-2.9-1.3-2.9-2.9v-1c0-1.6,1.3-2.9,2.9-2.9h15.9c1.6,0,2.9,1.3,2.9,2.9v1
				c0,1.6-1.3,2.9-2.9,2.9H498z"/>
			<g>
				<path class="st22" d="M513.9,454.9c1.4,0,2.6,1.2,2.6,2.6v1c0,1.4-1.2,2.6-2.6,2.6H498c-1.4,0-2.6-1.2-2.6-2.6v-1
					c0-1.4,1.2-2.6,2.6-2.6H513.9 M513.9,454.2H498c-1.8,0-3.3,1.5-3.3,3.3v1c0,1.8,1.5,3.3,3.3,3.3h15.9c1.8,0,3.3-1.5,3.3-3.3v-1
					C517.2,455.7,515.7,454.2,513.9,454.2L513.9,454.2z"/>
			</g>
		</g>
		<path class="st12" d="M497.2,458c0-1.7,1.4-3.1,3.1-3.1h-1.8c-1.7,0-3.1,1.4-3.1,3.1c0,1.7,1.4,3.1,3.1,3.1h1.8
			C498.6,461.1,497.2,459.7,497.2,458z"/>
		<g>
			<circle class="st29" cx="597.4" cy="425.1" r="8.3"/>
			<g>
				<path class="st22" d="M597.4,417.1c4.4,0,7.9,3.5,7.9,7.9s-3.5,7.9-7.9,7.9c-4.4,0-7.9-3.5-7.9-7.9S593,417.1,597.4,417.1
					 M597.4,416.4c-4.7,0-8.6,3.9-8.6,8.6s3.9,8.6,8.6,8.6s8.6-3.9,8.6-8.6S602.1,416.4,597.4,416.4L597.4,416.4z"/>
			</g>
		</g>
		<path class="st12" d="M590.4,425.1c0-4.2,3.3-7.7,7.5-7.9c-0.1,0-0.3,0-0.4,0c-4.4,0-7.9,3.5-7.9,7.9c0,4.4,3.5,7.9,7.9,7.9
			c0.1,0,0.3,0,0.4,0C593.7,432.7,590.4,429.3,590.4,425.1z"/>
		<g>
			<path class="st22" d="M597.4,420.7c2.4,0,4.4,2,4.4,4.4c0,2.4-2,4.4-4.4,4.4s-4.4-2-4.4-4.4C593,422.6,595,420.7,597.4,420.7
				 M597.4,420c-2.8,0-5.1,2.3-5.1,5.1s2.3,5.1,5.1,5.1s5.1-2.3,5.1-5.1S600.2,420,597.4,420L597.4,420z"/>
		</g>
	</g>
	<path class="st71" d="M504.5,226.6c0,0,23.2,5.2,35.1,8.3c11.9,3.1,9.9,10.8,7.1,14.6c4.3-2.5,9.5-8.4,3.6-13.6
		c-5.9-5.2-38.4-12.9-38.4-12.9L504.5,226.6z"/>
	<path class="st71" d="M576.1,227.4c0,0-5.2-8.6-20.6-5.2c-15.5,3.4-30.7,1.3-40.7-4.5c-10-5.8-7.9-4-7.9-4l5.3-6.4
		c0,0,16.8,10.3,32.9,9.9S571.7,214.4,576.1,227.4z"/>
	<path class="st71" d="M573.5,232.7c0,0-5.2-8.6-20.6-5.2c-15.5,3.4-30.7,1.3-40.7-4.5c-10-5.8-7.9-4-7.9-4l5.3-6.4
		c0,0,16.8,10.3,32.9,9.9S569.1,219.7,573.5,232.7z"/>
	<path class="st71" d="M582.9,203.1c0,0-7.9-6.2-21.1,2.6c-13.2,8.8-28.1,12.3-39.6,10.5c-11.4-1.8-8.8-0.9-8.8-0.9l2.6-7.9
		c0,0,19.3,3.5,34.3-2.6C565.3,198.7,574.1,192.5,582.9,203.1z"/>
	<path class="st42" d="M476.1,291.5c-0.3,0.7-0.5,1.2-0.5,1.2l1.8,0.9l0.4-0.8c-0.1,0-0.3,0-0.4-0.1
		C476.9,292.6,476.5,292.2,476.1,291.5z"/>
	<g>
		<path class="st72" d="M486.8,235.2c-1.5,0-2.5-0.2-3-0.6c-14.8-6.1-17.7-18.2-18.6-29.3c-0.9-10.6,6.2-17.8,6.3-17.9l0.1-0.1
			l44.3,13.3l0.1,0.2c0.1,0.3,2.7,7.2,0.9,14.3c-1.9,7.4-10.5,13.9-13.3,16C500.7,233.2,491.6,235.2,486.8,235.2
			C486.8,235.2,486.8,235.2,486.8,235.2z"/>
		<path class="st73" d="M471.7,187.7l44,13.2c0,0,2.6,7,0.9,14.1c-1.8,7-9.7,13.2-13.2,15.8c-2.7,2-11.8,4.1-16.5,4.1
			c-1.4,0-2.4-0.2-2.8-0.6c-14.9-6.2-17.6-18.5-18.5-29C464.6,194.7,471.7,187.7,471.7,187.7 M471.5,186.9l-0.3,0.3
			c-0.3,0.3-7.3,7.4-6.4,18.1c0.9,11.1,3.9,23.4,18.8,29.6c0.6,0.5,1.6,0.7,3.2,0.7c4.8,0,14.1-2.1,17-4.2
			c2.9-2.1,11.6-8.7,13.4-16.2c1.8-7.2-0.8-14.2-0.9-14.5l-0.1-0.3l-0.3-0.1l-44-13.2L471.5,186.9L471.5,186.9z"/>
	</g>
	<path class="st71" d="M535.4,200.4c0,0,12.3,1.8,24.6,1.8s16.7,6.2,16.7,6.2s-1.8-4.4-14.1-3.5s-25.3,9.5-29.8,6.5
		C528.4,208.4,535.4,200.4,535.4,200.4z"/>
	<path class="st71" d="M527.5,217.1c0,0,9.7,0,32.5-7c9.7-2.6,16.7,1.8,19.3,7c-14.9-3.5-14.9,0-31.6,0.9S527.5,217.1,527.5,217.1z"
		/>
	<path class="st71" d="M519.4,220.5c0,0,9,3.5,32.9,5.2c10,1,14.9,7.7,15.5,13.5c-12.7-8.7-13.9-5.4-29.8-10.6
		C522,223.4,519.4,220.5,519.4,220.5z"/>
	<path class="st74" d="M468.6,204.8c0,0,0.9,6.2,7.9,3.5"/>
	<path class="st74" d="M486.2,209.2c0,0,2.6,5.3,8.8,2.6"/>
	<g>
		<path class="st75" d="M476.9,221.7C476.9,221.7,476.9,221.7,476.9,221.7c1.1,0.4,4.1,1.3,6,1.3c0.1,0,0.2,0,0.4,0c0,0,0.1,0,0.1,0
			c0.6,0,1,0.5,0.9,1l-0.1,1c-0.2,1.7-1.7,2.9-3.4,2.9c-0.2,0-0.4,0-0.7-0.1c-0.5-0.1-1-0.5-1.2-1l-2.1-4.9
			C476.6,221.8,476.7,221.7,476.9,221.7 M476.9,221L476.9,221c-0.3,0-0.6,0.1-0.7,0.4c-0.2,0.2-0.2,0.6-0.1,0.8l2.1,4.9
			c0.3,0.7,1,1.2,1.7,1.4c0.3,0.1,0.5,0.1,0.8,0.1c2,0,3.8-1.5,4.1-3.5l0.1-1c0.1-0.5-0.1-0.9-0.4-1.3c-0.3-0.4-0.8-0.6-1.3-0.6
			c0,0-0.1,0-0.1,0c-0.1,0-0.2,0-0.3,0c-1.8,0-4.8-1-5.7-1.3C477.1,221,477,221,476.9,221L476.9,221z"/>
	</g>
	<g>
		<path class="st47" d="M485.3,284.8c0,0,2.1,3,0.2,5.9c-1.9,2.9-7.2,2.9-7.2,2.9l1.8-4L485.3,284.8z"/>
		<g>
			<line class="st48" x1="481.8" y1="288.4" x2="480.2" y2="293.4"/>
			<line class="st48" x1="483.5" y1="286.6" x2="482" y2="292.5"/>
			<g>
				<line class="st48" x1="485.3" y1="285.7" x2="483.7" y2="291.6"/>
			</g>
		</g>
	</g>
	<g>
		<path class="st55" d="M419.3,346.9c-0.2,0-0.3-0.1-0.3-0.3l-5.3-35.8c0-0.1,0-0.2,0.1-0.3c0.1-0.1,0.2-0.1,0.3-0.1
			c0,0,47.5,1.7,47.5,1.7c0.1,0,0.2,0.1,0.3,0.2c0.1,0.1,0.1,0.2,0,0.3l-15.8,37.3c-0.1,0.1-0.2,0.2-0.3,0.2
			C445.7,350.1,419.3,346.9,419.3,346.9z"/>
		<g>
			<path class="st22" d="M414.1,310.8l47.5,1.7l-15.8,37.3l-26.4-3.2L414.1,310.8 M414.1,310.1c-0.2,0-0.4,0.1-0.5,0.2
				c-0.1,0.2-0.2,0.4-0.2,0.6l5.3,35.8c0,0.3,0.3,0.6,0.6,0.6l26.4,3.2c0,0,0.1,0,0.1,0c0.3,0,0.5-0.2,0.6-0.4l15.8-37.3
				c0.1-0.2,0.1-0.5-0.1-0.6c-0.1-0.2-0.3-0.3-0.6-0.3L414.1,310.1C414.1,310.1,414.1,310.1,414.1,310.1L414.1,310.1z"/>
		</g>
	</g>
	<polygon class="st12" points="421.1,346.6 415.9,310.8 414.1,310.8 419.4,346.6 445.7,349.7 445.8,349.5 	"/>
	<path class="st23" d="M493.2,205.7c21.1,3.5,16,8.1,12.7,14.3c-3.1,5.9-8.3,9.4-21.7,14.5c2.6,1.3,15.7-1.2,19.1-3.7
		c3.5-2.6,11.4-8.8,13.2-15.8c1.8-7-0.9-14.1-0.9-14.1l-42-12.6C475,194.3,479.4,203.4,493.2,205.7z"/>
	<path class="st71" d="M465.1,203.1c0,0-4.4,0.9-4.4-9.7c0-8.3,4.9-11.7,7-12.8c0.6-0.3,1-0.8,1.3-1.4c2.1-4.2,22.2-19,47.9-0.8
		c6.6,4.6,10.7,12.6,16.4,16.5c0.1,0.1,0.2,0.1,0.3,0.2l5.8,4c2.2,1.5,5.2,0.3,5.7-2.3l0,0c0,0,4.7,4.3-0.9,10.5
		c-7,7.9-21.1,5.3-24.6,2.6s-13.2-4.4-28.1-7.9c-8.9-2.1-15-6.3-18.4-9.5l-2.7-3.7c0,0-1.8,0-4.4,8.8
		C465.1,200.4,465.1,203.1,465.1,203.1"/>
	<path class="st23" d="M481.3,227.9c-1.5-1.9-3.7-4.1-4.5-5.8l2,4.8c0.2,0.5,0.7,0.9,1.2,1C480.2,227.9,481.2,227.9,481.3,227.9z"/>
	<path class="st50" d="M431.3,347.5c6.5,0.2,11.4,0.4,15.1,0.7l15.1-35.7l-23.2-0.8C439,321,439.1,340.7,431.3,347.5z"/>
	<g>
		<g>
			<path class="st55" d="M454.8,352.9l-36-2.6c-0.7,0-1.3-0.4-1.7-0.9s-0.7-1.2-0.6-1.9c0.1-1.3,1.2-2.4,2.5-2.4c0.1,0,0.1,0,0.2,0
				l36,2.6c0.7,0,1.3,0.4,1.7,0.9s0.7,1.2,0.6,1.9c-0.1,1.3-1.2,2.4-2.5,2.4C454.9,352.9,454.9,352.9,454.8,352.9z"/>
			<path class="st22" d="M418.9,345.5c0.1,0,0.1,0,0.2,0l36,2.6c1.2,0.1,2.1,1.1,2,2.4c-0.1,1.2-1,2-2.2,2c-0.1,0-0.1,0-0.2,0
				l-36-2.6c-1.2-0.1-2.1-1.1-2-2.4C416.8,346.4,417.8,345.5,418.9,345.5 M418.9,344.8L418.9,344.8c-1.5,0-2.8,1.2-2.9,2.7
				c-0.1,0.8,0.2,1.5,0.7,2.1c0.5,0.6,1.2,0.9,2,1l36,2.6c0.1,0,0.1,0,0.2,0c1.5,0,2.8-1.2,2.9-2.7c0.1-0.8-0.2-1.5-0.7-2.1
				c-0.5-0.6-1.2-0.9-2-1l-36-2.6C419.1,344.8,419,344.8,418.9,344.8L418.9,344.8z"/>
		</g>
	</g>
	<g>
		<g>
			<path class="st55" d="M463,316.4l-50.7-2.6c-0.7,0-1.4-0.4-1.9-0.9c-0.4-0.5-0.7-1.1-0.6-1.8c0.1-1.3,1.3-2.4,2.7-2.4l0.1,0
				l50.7,2.6c0.7,0,1.4,0.4,1.9,0.9c0.4,0.5,0.7,1.1,0.6,1.8c-0.1,1.3-1.3,2.4-2.7,2.4L463,316.4z"/>
			<path class="st22" d="M412.5,309c0,0,0.1,0,0.1,0l50.7,2.6c1.3,0.1,2.3,1.1,2.2,2.3c-0.1,1.2-1.1,2.1-2.3,2.1c0,0-0.1,0-0.1,0
				l-50.7-2.6c-1.3-0.1-2.3-1.1-2.2-2.3C410.2,309.9,411.2,309,412.5,309 M412.5,308.3C412.5,308.3,412.5,308.3,412.5,308.3
				c-1.6,0-3,1.2-3.1,2.7c0,0.7,0.2,1.5,0.7,2c0.5,0.6,1.3,1,2.2,1l50.7,2.6c0.1,0,0.1,0,0.2,0c1.6,0,2.9-1.2,3-2.7
				c0-0.7-0.2-1.5-0.7-2c-0.5-0.6-1.3-1-2.2-1l-50.7-2.6C412.6,308.3,412.5,308.3,412.5,308.3L412.5,308.3z"/>
		</g>
	</g>
	<g>
		<path class="st55" d="M468.5,318.3c-0.2,0-0.4,0-0.6-0.1l-6.1-1.2c-1.6-0.3-2.6-1.9-2.3-3.5l0.2-1c0.3-1.4,1.5-2.4,2.9-2.4
			c0.2,0,0.4,0,0.6,0.1l6.1,1.2c0.8,0.2,1.4,0.6,1.9,1.3s0.6,1.4,0.4,2.2l-0.2,1C471.1,317.3,469.9,318.3,468.5,318.3z"/>
		<path class="st22" d="M462.6,310.6c0.2,0,0.3,0,0.5,0l6.1,1.2c1.4,0.3,2.3,1.6,2.1,3.1l-0.2,1c-0.2,1.2-1.3,2.1-2.6,2.1
			c-0.2,0-0.3,0-0.5,0l-6.1-1.2c-1.4-0.3-2.3-1.6-2.1-3.1l0.2-1C460.3,311.5,461.4,310.6,462.6,310.6 M462.6,309.9L462.6,309.9
			c-1.6,0-2.9,1.1-3.2,2.7l-0.2,1c-0.2,0.9,0,1.7,0.5,2.5c0.5,0.7,1.2,1.2,2.1,1.4l6.1,1.2c0.2,0,0.4,0.1,0.6,0.1
			c1.6,0,2.9-1.1,3.2-2.7l0.2-1c0.2-0.9,0-1.7-0.5-2.5c-0.5-0.7-1.2-1.2-2.1-1.4l-6.1-1.2C463,309.9,462.8,309.9,462.6,309.9
			L462.6,309.9z"/>
	</g>
	<g>
		<g>
			<path class="st66" d="M460.7,446.3c-2.3,0-3.6-0.8-3.9-2.4c-0.2-1,0.5-2.1,1.6-2.3c2.3-0.6,8-2,10-4c2.6-2.6,50.5-66.1,51-66.8
				l39-37.3l15.3,25.2l-66.2,53.8l-34.2,28.9c-0.2,0.5-1.1,2.2-6.4,3.7C464.3,445.9,462.3,446.3,460.7,446.3z"/>
			<path class="st22" d="M558.3,334.1l14.9,24.6l-65.9,53.6l-34.3,29c0,0-0.2,1.8-6.2,3.5c-2.4,0.7-4.5,1.1-6.2,1.1
				c-2,0-3.3-0.6-3.6-2.1c-0.2-0.9,0.5-1.7,1.3-1.9c2.5-0.6,8.1-2.1,10.2-4.1c2.6-2.6,51-66.8,51-66.8L558.3,334.1 M558.4,333
				l-0.6,0.6l-38.7,36.9l0,0l0,0c-0.5,0.6-48.4,64.2-50.9,66.7c-1.9,1.9-7.5,3.4-9.8,3.9c-1.3,0.3-2.1,1.5-1.9,2.7
				c0.2,1.2,1.1,2.7,4.3,2.7c1.6,0,3.7-0.4,6.3-1.1c5.1-1.4,6.3-3.1,6.6-3.8l34.1-28.9l65.9-53.6l0.5-0.4l-0.3-0.5l-14.9-24.6
				L558.4,333L558.4,333z"/>
		</g>
		<path class="st67" d="M491.3,425.9l16-13.6l48.9-39.8l-37.2-0.8c-0.4,0.5-1,1.4-1.8,2.4c2.8,3,5.6,8.6-0.2,16.3
			C508.4,402,492.5,424.1,491.3,425.9z"/>
	</g>
	<g>
		<path class="st47" d="M476.1,284.4c0,0,3.5,0,2.6,1.8c-0.9,1.8-3.5,5.3-1.8,7s3.1-4,3.1-4s6.2-6.2,7.9-6.2
			c0.9,0,10.5,3.5,19.3,4.4c8.8,0.9,6.2-11.4,6.2-11.4l-3.5-24.6l-9.7,2.6l5.2,26.1c0,0.2-0.1,0.3-0.3,0.3c-0.7,0-2.5,0-3.2,0
			c-6.2,0-13.5-2.5-19.6-1c-0.4,0.1-1,0.3-1.2,0.5C479.8,280.8,476.1,284.4,476.1,284.4z"/>
		<g>
			<g>
				<path class="st55" d="M500.3,258.8c-0.1,0-0.2,0-0.3-0.1c-0.3-0.3-6.2-8.1-4.5-14.4c1-3.6,3.2-4.3,4.9-4.3
					c1.4,0,2.6,0.6,2.7,0.6c0.1,0,0.1,0.1,0.1,0.1l7,10.5c0.1,0.1,0.1,0.3,0,0.4l-3.5,4.4c0,0-0.1,0.1-0.1,0.1l-6.2,2.6
					C500.3,258.8,500.3,258.8,500.3,258.8z"/>
				<path class="st22" d="M500.4,240.3c1.4,0,2.5,0.6,2.5,0.6l7,10.5l-3.5,4.4l-6.2,2.6c0,0-6.2-7.9-4.4-14.1
					C496.8,241.1,498.8,240.3,500.4,240.3 M500.4,239.6c-1.8,0-4.1,0.8-5.2,4.6c-1.8,6.4,4.3,14.4,4.5,14.7c0.1,0.2,0.3,0.3,0.6,0.3
					c0.1,0,0.2,0,0.3-0.1l6.2-2.6c0.1,0,0.2-0.1,0.3-0.2l3.5-4.4c0.2-0.2,0.2-0.6,0-0.8l-7-10.5c-0.1-0.1-0.2-0.2-0.3-0.2
					C503.2,240.2,501.9,239.6,500.4,239.6L500.4,239.6z"/>
			</g>
			<path class="st12" d="M496.7,244.4c0.9-3.1,2.8-3.9,4.6-4.1c-1.9-0.1-4.4,0.5-5.5,4.1c-1.8,6.2,4.4,14.1,4.4,14.1l0.7-0.3
				C499.9,256.7,495.2,249.9,496.7,244.4z"/>
			<path class="st50" d="M500.1,240.4c0.8,3.5,2.5,9.6,5.2,16l1.2-0.5l3.5-4.4l-6.2-10.5C503.8,240.9,502,240.1,500.1,240.4z"/>
		</g>
		<g>
			<g>
				<g>
					<g>
						<path class="st55" d="M546,381c0,0-0.1,0-0.1,0l-35.2-10.5c-0.1,0-0.2-0.1-0.2-0.3c0-0.1,0-0.2,0.1-0.3l2.6-2.6
							c-0.2-0.4-3-1.6-5.5-2.6c-6.6-2.7-15.7-6.5-15.7-11.3c0-1.8,1.4-2.8,6.2-6.2c2.9-2,6.8-4.8,12.4-9.1
							c14.6-11.2,26.9-34.5,28.8-41.8c-2.2-2.3-1.9-4.5-1.8-5.2c-0.8-0.6-4.4-3.2-15.6-12.2c-13.1-10.5-18.5-37.7-18.6-38
							c0-0.2,0.1-0.3,0.2-0.4c0,0,0.1,0,0.1,0c0.1,0,0.3,0.1,0.3,0.2c0,0,1.2,2.8,3.3,2.8c1,0,2.1-0.7,3.2-2l0.4-0.5
							c4-4.8,7.4-8.9,11.6-8.9c0.2,0,0.4,0,0.6,0l0.5,0c0.8-0.1,1.6-0.1,2.4-0.1c9.8,0,17.3,7.4,25.2,15.3l0.3,0.3
							c8.1,8.1,12.6,20.1,13.2,21.9c1,0.1,2,1,2.7,2.3c0.7,1.2,0.8,2.5,0.3,3.7c0.9-0.2,1.9-0.3,2.9-0.3c10,0,26.3,8.2,38,19
							c13.3,12.4,25.4,19.2,28.8,19.2c3.5,0,7.4,0,7.4,5.6c0,5.2-11.8,14.1-13.2,15.1c-0.8,5.3-3.5,11.2-4.2,12.8l3.1,0.8
							c0.1,0,0.2,0.1,0.3,0.2c0,0.1,0,0.3-0.1,0.3c-0.1,0.1-9,8.9-21,16.2c-4.6,2.8-14.5,5.7-29.5,8.7c-14.4,2.9-28.5,4.8-29.7,5
							l-4.3,2.6C546.1,381,546,381,546,381z"/>
						<path class="st22" d="M526,232.4c9.8,0,17.1,7.4,25.2,15.5c8.8,8.8,13.2,22,13.2,22c1.8,0,4.4,3.5,2.6,6.2
							c1.1-0.3,2.3-0.5,3.6-0.5c9.8,0,26.1,8.1,37.7,18.9c13.2,12.3,25.5,19.3,29,19.3c3.5,0,7,0,7,5.3s-13.2,14.9-13.2,14.9
							c-0.9,6.2-4.4,13.2-4.4,13.2l3.5,0.9c0,0-8.8,8.8-21,16.2c-5.4,3.3-17.5,6.3-29.3,8.7c-15.1,3-29.7,5-29.7,5l-4.4,2.6
							l-35.2-10.5c0,0,0,0,2.6-2.6c0.9-1.8-21.1-7-21.1-14.1c0-2.6,3.5-3.5,18.5-14.9c14.9-11.4,27.3-35.2,29-42.2
							c-2.6-2.6-1.8-5.3-1.8-5.3s-2.6-1.8-15.8-12.3c-13.2-10.5-18.5-37.8-18.5-37.8s1.3,3,3.6,3c1,0,2.1-0.6,3.5-2.1
							c4.2-5,7.6-9.3,11.7-9.3c0.2,0,0.4,0,0.6,0h0.5C524.4,232.4,525.2,232.4,526,232.4 M526,231.7L526,231.7c-0.8,0-1.6,0-2.4,0.1
							h-0.4c-0.2,0-0.4,0-0.6,0c-4.3,0-7.8,4.2-11.9,9.1l-0.4,0.5c-1,1.3-2,1.9-2.9,1.9c-1.8,0-2.9-2.6-2.9-2.6
							c-0.1-0.3-0.4-0.4-0.6-0.4c-0.1,0-0.1,0-0.2,0c-0.3,0.1-0.5,0.5-0.5,0.8c0.2,1.1,5.5,27.6,18.7,38.2
							c10.6,8.5,14.4,11.3,15.5,12.1c-0.1,1-0.2,3,1.8,5.2c-2.1,7.5-14.2,30.4-28.7,41.4c-5.6,4.3-9.5,7-12.4,9
							c-4.9,3.4-6.3,4.4-6.3,6.5c0,5,9.2,8.8,15.9,11.6c2,0.8,4.3,1.8,5.1,2.3l-2.3,2.3c-0.2,0.2-0.2,0.4-0.2,0.7
							c0.1,0.2,0.2,0.4,0.5,0.5l35.2,10.5c0.1,0,0.1,0,0.2,0c0.1,0,0.3,0,0.4-0.1l4.3-2.6c1.6-0.2,15.5-2.1,29.6-5
							c15-3,24.9-6,29.6-8.8c12.1-7.4,21-16.2,21.1-16.3c0.2-0.2,0.2-0.4,0.2-0.7c-0.1-0.2-0.3-0.4-0.5-0.5l-2.7-0.7
							c0.9-2,3.3-7.3,4-12.3c2.2-1.6,13.2-10.1,13.2-15.3c0-6-4.3-6-7.7-6c-3.3,0-15.3-6.8-28.5-19.2
							c-11.7-10.9-28.1-19.1-38.2-19.1c-0.9,0-1.7,0.1-2.4,0.2c0.2-1.1,0.1-2.2-0.5-3.4c-0.7-1.3-1.7-2.2-2.8-2.4
							c-0.8-2.4-5.2-13.8-13.2-21.8l-0.3-0.3C543.5,239.2,536,231.7,526,231.7L526,231.7z"/>
					</g>
					<path class="st21" d="M506.4,244.8c-0.4,0-0.8-1-1.1-1.1c1.5,6.2,5.7,21.3,13.6,30.8C514.4,264.4,508.5,250.4,506.4,244.8z"/>
					<path class="st76" d="M562.5,268.2c-1.7-4.3-4.8-13-11.2-19.4c-8.8-8.8-16.6-16.7-27.6-15.4h-0.5c-4-0.4-7.3,3.3-11.3,8
						c6.2,14.9,19.9,42.4,35.5,36C555,274.2,559.1,271,562.5,268.2z"/>
					<g>
						<g class="st33">
							<path class="st50" d="M561.5,314.7l18.3,31.3c0,0,13.2,14.9,14.9,21.1c0.2,0.7-0.5,1.8,0,1.8c6.3-1.7,10.7-3.5,13.8-5.3
								c2.6-1.6,5.1-3.2,7.3-4.9C584.2,355.8,563.7,318.7,561.5,314.7z"/>
							<path class="st50" d="M561.5,314.7l-0.2-0.4C561.4,314.3,561.4,314.4,561.5,314.7z"/>
						</g>
						<path class="st77" d="M544.2,293.6c0,0,2.3,22-0.6,29.9c-2.9,7.9,6.7,44,5,50.1c-1.8,6.2,14.5-16.3,10.1-44.4
							c-3.3-21.1-14.5-36.5-14.5-36.5"/>
						<path class="st50" d="M513,365.3c0,0,16.7-8.8,22.4-53.2c0,0-4.4,30.8-19.3,35.2c-4.1,1.2-9.8,1.9-13.4,2.5
							C502.7,349.8,511.2,353.8,513,365.3z"/>
						<path class="st50" d="M566.6,286.2c0,0,20.2,4.4,41.3,31.6c7.7,10,15.4,1.3,15.4-4c0-5.3,11.6-0.1,11.6-0.1s1.6,1,4.7,0.6
							s2.6,3.5,2.6,3.5s-11,3.8-12.3,13.2c-0.9,6.2-4.7,12.9-4.8,15.4c-0.1,0.9-10.9-2.7-20.1-15.9
							C593,313.4,570.1,288.1,566.6,286.2z"/>
					</g>
					<g>
						<path class="st45" d="M631.6,334.4l0.5-10c0.9-7.9,8.6-10.5,8.6-10.5"/>
						<path class="st45" d="M539.8,296.3c0,0-5.1,60.3-26.7,71.1c0,0-1.1-5.7-5.8-12.2c-7-9.7-14.1-4.2-14.1-4.2"/>
					</g>
					<g>
						<path class="st12" d="M605.7,293.6c6.5,6.1,12.8,10.8,17.9,14.1c-4.6-3.2-9.8-7.3-15.3-12.4c-3.6-3.3-7.6-6.4-11.8-9.1
							C599.8,288.5,602.9,291,605.7,293.6z"/>
						<path class="st12" d="M540.3,305.5c0,0-1.8,31.6-8.8,45.7c-8.3,16.6-13.2,19.3-13.2,19.3l25.5,7.5l-0.6,0.7l-29.3-8.2
							c0,0,7-7,12.3-14.9C531.5,347.7,539.4,323.1,540.3,305.5z"/>
						<path class="st12" d="M510.9,364.3c0,0-6.4-4.2-12.9-7.6c-2.5-1.3-3.5-2.5-3.9-4.5c-0.7,0.7-1,0.4-1,1.1
							c0,6.1,16.1,10.7,18.9,12.8L510.9,364.3z"/>
						<path class="st12" d="M561.4,313.4l26.4,45.7C587.7,359.1,567.5,329.2,561.4,313.4z"/>
						<path class="st12" d="M644,318.8c0-2.1-1.5-3.3-2.4-4l-1-0.4c0,0,3.8,6.5,0.3,7.4c-3.5,0.9-8.1,6-8.4,8.5
							c0.1,0.7,0.1,0.8,0,1.6C635.3,329.8,644,323.2,644,318.8z"/>
					</g>
					<path class="st50" d="M553.9,372.8c0,0,30.8-15.8,37.8-10.5C598.7,367.5,575,373.6,553.9,372.8z"/>
					<polygon class="st12" points="543.3,378 566.6,366.6 570.1,366.2 546.4,379.3 543.3,378.9 					"/>
					<path class="st12" d="M629.5,331.7l-3.1,1.9c0,0,0,10.5-3.5,14.9c-3.5,4.4-19.3,14.1-19.3,14.1l-8.8,2.6c0,0-4.2-9-6.2-7
						c-0.9,0.9,4.4,6.2,3.5,7c-2.8,2.8-30.3,7-33.2,8.4c-1.4,0.7-4.4,2-7,3.2c4.8-0.7,15.9-2.4,27.2-4.7c11.9-2.4,24-5.4,29.3-8.7
						c12.2-7.4,19.2-14.4,19.2-14.4l-2.6-0.9c0,0,4.4-8.8,5.3-14.9c0,0-1.1-0.5-0.7-1.3C629.7,331.8,629.6,331.6,629.5,331.7z"/>
					<path class="st45" d="M589.9,370.7c4.4-1.2,4.4-4.1,0-5.9c-13.2-2.6-39.1,13.3-39.1,13.3"/>
					<g>
						<path class="st34" d="M564.4,269.9c-7.9,12.3-26.4,21.1-26.4,21.1"/>
						<g>
							<path class="st34" d="M558.3,285.7c0,0,7.9-0.9,15.8,7c7.9,7.9,22.9,27.3,29,35.2c6.2,7.9,14.9,17.6,23.7,18.5"/>
							<line class="st34" x1="567.1" y1="322.6" x2="593" y2="366.5"/>
							<path class="st34" d="M546.8,293.6c0,0,12.3,27.3,12.3,42.2c0,2.3,1.4,11.9,0.9,15.8"/>
							<path class="st34" d="M543.3,327.9c3.5-7.9,1.8-33.4,1.8-33.4"/>
						</g>
					</g>
				</g>
				<path class="st45" d="M567.1,276c0,0-16.7,18.5-27.3,20.2"/>
			</g>
			<g>
				<g>
					<path class="st27" d="M523.1,259.3l8.8-1.8c0,0,3.5,22,0.9,30.8c-2.6,8.8-7.9,11.5-22,10.5c-6.2-0.4-13.2-3.5-13.2,1.8
						s-0.9,7-2.6,7c0,0-0.9,0-0.9-0.9c0,0.9-2.6,1.8-2.6,0c0-0.9-2.6,2-2.6,0c0-0.9-2.6,1.8-2.6-1.8c0-3.6,0.8-6.1,1.8-7.9
						c1.1-2.2,2.6-4.4,8.8-4.4s14.5,0,19.3,0c3.9,0,10.5,0,9.7-12.3S523.1,259.3,523.1,259.3"/>
					<g>
						<path class="st55" d="M526.1,261.8c-2.2,0-3.9-0.3-4-0.4c-0.1,0-0.1,0-0.1-0.1c-0.2-0.2-5.9-4.7-8-14.3c-1.7-7.5,0.6-9.7,3-12
							c0.2-0.2,0.4-0.4,0.6-0.6c1.3-1.3,4.5-2.2,7.7-2.2c2.5,0,8.6,0.7,10.5,6.8c2.2,7.4,1.6,14-1.8,19.6
							C532.4,261.3,528.8,261.8,526.1,261.8C526.1,261.8,526.1,261.8,526.1,261.8z"/>
						<path class="st22" d="M525.3,232.6c4.2,0,8.7,1.6,10.2,6.5c2.6,8.7,0.9,14.9-1.8,19.3c-1.5,2.4-4.8,3-7.5,3
							c-2.2,0-3.9-0.3-3.9-0.3s-5.8-4.5-7.9-14.1c-1.8-7.9,0.9-9.7,3.5-12.3C519,233.6,522,232.6,525.3,232.6 M525.3,231.9
							c-3.3,0-6.5,1-7.9,2.4c-0.2,0.2-0.4,0.4-0.6,0.6c-2.5,2.4-4.8,4.7-3.1,12.4c2.2,9.7,7.9,14.3,8.2,14.5
							c0.1,0.1,0.2,0.1,0.3,0.1c0.1,0,1.8,0.4,4,0.4c4,0,6.8-1.1,8.1-3.3c3.5-5.8,4.1-12.4,1.8-19.9
							C534.7,234.4,530.8,231.9,525.3,231.9L525.3,231.9z"/>
					</g>
					<g>
						<path class="st12" d="M524,261.1c0,0-5.8-4.5-7.9-14.1c-1.8-7.9,0.9-9.7,3.5-12.3c1.1-1.1,3.6-2,6.5-2.1
							c-3.6-0.2-7,0.9-8.3,2.1c-2.6,2.6-5.3,4.4-3.5,12.3c2.1,9.6,7.9,14.1,7.9,14.1s2.2,0.4,4.8,0.3
							C525.3,261.4,524,261.1,524,261.1z"/>
						<path class="st50" d="M522.1,232.9c3.7,4.3,10.2,13.8,9,26.4c0.2,0.4,0.5,0.7,0.8,0.9c0.7-0.4,1.4-1,1.8-1.7
							c2.6-4.4,4.4-10.7,1.8-19.3C533.5,232.9,526.8,232,522.1,232.9z"/>
					</g>
				</g>
				<g>
					<line class="st41" x1="494.1" y1="302.4" x2="494.1" y2="306.8"/>
					<line class="st41" x1="491.5" y1="302.4" x2="491.5" y2="306.8"/>
					<line class="st41" x1="488.8" y1="302.4" x2="488.8" y2="306.8"/>
				</g>
			</g>
		</g>
	</g>
	<path class="st50" d="M565.5,271c0,0-16,18.8-26,20.4c0,2.3-1,3.6,2,3.6s15.9-7.5,24-20C566.8,274,565.5,271,565.5,271z"/>
</g>
</svg>
