<?xml version="1.0" encoding="utf-8"?>
<!-- Generator: Adobe Illustrator 21.0.0, SVG Export Plug-In . SVG Version: 6.00 Build 0)  -->
<svg version="1.1" id="图层_1" xmlns="http://www.w3.org/2000/svg" xmlns:xlink="http://www.w3.org/1999/xlink" x="0px" y="0px"
	 viewBox="0 0 1024 768" style="enable-background:new 0 0 1024 768;" xml:space="preserve">
<style type="text/css">
	.st0{fill:#EEEEEE;}
	.st1{fill:#A4A4A4;stroke:#898989;stroke-miterlimit:10;}
	.st2{fill:#FFFFFF;stroke:#898989;stroke-miterlimit:10;}
	.st3{fill:none;stroke:#EEEEEE;stroke-width:5;stroke-miterlimit:10;}
	.st4{fill:none;stroke:#FFFFFF;stroke-width:9;stroke-miterlimit:10;}
	.st5{fill:none;stroke:#FFFFFF;stroke-width:6;stroke-miterlimit:10;}
	.st6{fill:none;stroke:#FFFFFF;stroke-width:5;stroke-miterlimit:10;}
	.st7{fill:none;stroke:#A8A8A8;stroke-width:2;stroke-linecap:round;stroke-miterlimit:10;}
	.st8{fill:none;stroke:#898989;stroke-width:2;stroke-linecap:round;stroke-miterlimit:10;}
	.st9{fill:#FFFFFF;}
	.st10{fill:none;stroke:#999999;stroke-width:3;stroke-linecap:square;stroke-miterlimit:10;}
	.st11{fill:none;stroke:#999999;stroke-width:3;stroke-miterlimit:10;}
	.st12{fill:none;stroke:#999999;stroke-width:3;stroke-linecap:round;stroke-miterlimit:10;}
	.st13{fill:none;stroke:#999999;stroke-width:2;stroke-linecap:square;stroke-miterlimit:10;}
	.st14{fill:none;stroke:#999999;stroke-width:2;stroke-miterlimit:10;}
	.st15{fill:none;stroke:#999999;stroke-width:2;stroke-linecap:round;stroke-miterlimit:10;}
	.st16{fill:none;stroke:#999999;stroke-linecap:round;stroke-miterlimit:10;}
	.st17{fill:#A4A4A4;}
	.st18{fill:#898989;}
	.st19{fill:none;stroke:#898989;stroke-width:2;stroke-miterlimit:10;}
	.st20{fill:#7C7C7C;}
	.st21{font-family:'MicrosoftYaHei';}
	.st22{font-size:18px;}
	.st23{fill:#999999;}
</style>
<g>
	<g>
		<path class="st0" d="M660.4,380.1l-9.1-3c-0.6-52.9-33.7-102.2-86.4-121c-47-16.7-97.1-4.8-131.5,26.7l-17.5-6.7
			c-8.2-3.2-17.5,1-20.7,9.2v0c-3.2,8.2,1,17.5,9.2,20.7l7.2,2.8c-2,3.1-3.8,6.3-5.6,9.6l-35.9-13.8c-5.9-2.3-12.6,0.7-14.9,6.6v0
			c-2.3,5.9,0.7,12.6,6.6,14.9l35.4,13.6c-1.4,4.5-2.6,9.1-3.5,13.7l-12.6-4.9c-6.9-2.7-14.8,0.8-17.4,7.7
			c-2.7,6.9,0.8,14.8,7.7,17.4l19.9,7.6c0.9,43.6,23.8,84.5,61.5,107.9h136.9c6.5-4,12.6-8.5,18.3-13.6l22.4,7.4
			c7.1,2.3,14.7-1.6,17-8.6v0c2.3-7.1-1.6-14.7-8.6-17l-11.3-3.7c2.3-3.2,4.4-6.6,6.4-10l13.2,4.3c6,2,12.5-1.3,14.5-7.3
			c2-6-1.3-12.5-7.3-14.5l-10.6-3.5c0-0.1,0-0.1,0.1-0.2c1.5-4.2,2.8-8.4,3.8-12.6l2.9,1c8.4,2.7,17.4-1.9,20.2-10.2v0
			C673.4,391.9,668.8,382.8,660.4,380.1z"/>
	</g>
</g>
<g>
	<g>
		<path class="st17" d="M580.2,332.6h-117c-5.5,0-10,4.5-10,10v135c0,5.5,4.5,10,10,10h117c5.5,0,10-4.5,10-10v-135
			C590.2,337.1,585.7,332.6,580.2,332.6z M580.2,467.6c0,5.5-4.5,10-10,10h-97c-5.5,0-10-4.5-10-10v-115c0-5.5,4.5-10,10-10h97
			c5.5,0,10,4.5,10,10V467.6z"/>
	</g>
	<g>
		<path class="st18" d="M580.2,488.1h-117c-5.8,0-10.5-4.7-10.5-10.5v-135c0-5.8,4.7-10.5,10.5-10.5h117c5.8,0,10.5,4.7,10.5,10.5
			v135C590.7,483.4,586,488.1,580.2,488.1z M463.2,333.1c-5.2,0-9.5,4.3-9.5,9.5v135c0,5.2,4.3,9.5,9.5,9.5h117
			c5.2,0,9.5-4.3,9.5-9.5v-135c0-5.2-4.3-9.5-9.5-9.5H463.2z M570.2,478.1h-97c-5.8,0-10.5-4.7-10.5-10.5v-115
			c0-5.8,4.7-10.5,10.5-10.5h97c5.8,0,10.5,4.7,10.5,10.5v115C580.7,473.4,576,478.1,570.2,478.1z M473.2,343.1
			c-5.2,0-9.5,4.3-9.5,9.5v115c0,5.2,4.3,9.5,9.5,9.5h97c5.2,0,9.5-4.3,9.5-9.5v-115c0-5.2-4.3-9.5-9.5-9.5H473.2z"/>
	</g>
</g>
<g>
	<g>
		<path class="st9" d="M463.2,467.6v-115c0-5.5,4.5-10,10-10h97c5.5,0,10,4.5,10,10v115c0,5.5-4.5,10-10,10h-97
			C467.7,477.6,463.2,473.1,463.2,467.6z"/>
	</g>
	<g>
		<path class="st18" d="M570.2,478.1h-97c-5.8,0-10.5-4.7-10.5-10.5v-115c0-5.8,4.7-10.5,10.5-10.5h97c5.8,0,10.5,4.7,10.5,10.5v115
			C580.7,473.4,576,478.1,570.2,478.1z M473.2,343.1c-5.2,0-9.5,4.3-9.5,9.5v115c0,5.2,4.3,9.5,9.5,9.5h97c5.2,0,9.5-4.3,9.5-9.5
			v-115c0-5.2-4.3-9.5-9.5-9.5H473.2z"/>
	</g>
</g>
<g>
	<g>
		<ellipse transform="matrix(0.3355 -0.942 0.942 0.3355 91.9858 571.4141)" class="st0" cx="451" cy="220.5" rx="4.9" ry="4.9"/>
	</g>
</g>
<g>
	<g>
		<path class="st0" d="M556,209.2c-1,0-2-0.2-2.9-0.5c-4.5-1.6-6.9-6.6-5.3-11.1c1.6-4.5,6.6-6.9,11.1-5.3c4.5,1.6,6.9,6.6,5.3,11.1
			C563,207,559.6,209.2,556,209.2z M556,196.8c-1.5,0-3,0.9-3.5,2.5c-0.3,0.9-0.3,1.9,0.1,2.8c0.4,0.9,1.2,1.6,2.1,1.9
			c1.9,0.7,4.1-0.3,4.7-2.2c0.3-0.9,0.3-1.9-0.1-2.8c-0.4-0.9-1.2-1.6-2.1-1.9C556.9,196.9,556.4,196.8,556,196.8z"/>
	</g>
</g>
<g>
	<g>
		<path class="st9" d="M512,303.1c-1.6,0-3.3-0.3-4.9-0.8c-3.7-1.3-6.6-4-8.3-7.5s-1.9-7.5-0.6-11.1c2.7-7.6,11.1-11.5,18.6-8.8
			c7.6,2.7,11.5,11.1,8.8,18.6l0,0C523.6,299.4,518,303.1,512,303.1z M512,282.9c-2.3,0-4.4,1.4-5.3,3.7c-0.5,1.4-0.4,2.9,0.2,4.3
			c0.6,1.3,1.8,2.4,3.2,2.9c2.9,1,6.1-0.5,7.1-3.4c1-2.9-0.5-6.1-3.4-7.1C513.3,283,512.6,282.9,512,282.9z"/>
	</g>
</g>
<g>
	<g>
		<path class="st9" d="M454,318.2c-1.1,0-2.2-0.2-3.2-0.6c-2.4-0.9-4.4-2.6-5.5-5s-1.2-5-0.4-7.4c0.9-2.4,2.6-4.4,5-5.5
			c2.3-1.1,5-1.2,7.4-0.4c5,1.8,7.7,7.4,5.9,12.4v0C461.8,315.7,458,318.2,454,318.2z M454,304.8c-1.5,0-3,0.9-3.5,2.5
			c-0.3,0.9-0.3,1.9,0.1,2.8c0.4,0.9,1.2,1.6,2.1,1.9c1.9,0.7,4.1-0.3,4.7-2.2l0,0c0.7-1.9-0.3-4.1-2.2-4.7
			C454.9,304.9,454.4,304.8,454,304.8z"/>
	</g>
</g>
<g>
	<g>
		<path class="st9" d="M613,393.2c-0.9,0-1.7-0.1-2.6-0.5c-4-1.4-6.1-5.8-4.7-9.8c0.7-1.9,2.1-3.5,4-4.4c1.9-0.9,4-1,5.9-0.3
			s3.5,2.1,4.4,4s1,4,0.3,5.9c-0.7,1.9-2.1,3.5-4,4.4C615.3,393,614.2,393.2,613,393.2z M613,382.8c-0.4,0-0.8,0.1-1.2,0.3
			c-0.7,0.3-1.1,0.9-1.4,1.5c-0.5,1.4,0.2,3,1.6,3.5c0.7,0.2,1.4,0.2,2.1-0.1c0.7-0.3,1.1-0.9,1.4-1.5c0.2-0.7,0.2-1.4-0.1-2.1
			s-0.9-1.1-1.5-1.4C613.6,382.8,613.3,382.8,613,382.8z"/>
	</g>
</g>
<g>
	<g>
		<path class="st18" d="M649.7,489.1h-25.7c-0.6,0-1-0.4-1-1s0.4-1,1-1h25.7c0.6,0,1,0.4,1,1S650.3,489.1,649.7,489.1z"/>
	</g>
</g>
<g>
	<g>
		<path class="st18" d="M610.1,489.1H407.7c-0.6,0-1-0.4-1-1s0.4-1,1-1h202.3c0.6,0,1,0.4,1,1S610.6,489.1,610.1,489.1z"/>
	</g>
</g>
<g>
	<g>
		<g>
			<path class="st18" d="M612.7,511.1h-78.5c-0.6,0-1-0.4-1-1s0.4-1,1-1h78.5c0.6,0,1,0.4,1,1S613.3,511.1,612.7,511.1z"/>
		</g>
	</g>
	<g>
		<g>
			<path class="st18" d="M514,511.1h-8.2c-0.6,0-1-0.4-1-1s0.4-1,1-1h8.2c0.6,0,1,0.4,1,1S514.5,511.1,514,511.1z"/>
		</g>
	</g>
	<g>
		<g>
			<path class="st18" d="M497.5,511.1H482c-0.6,0-1-0.4-1-1s0.4-1,1-1h15.5c0.6,0,1,0.4,1,1S498,511.1,497.5,511.1z"/>
		</g>
	</g>
	<g>
		<g>
			<path class="st18" d="M469.5,511.1h-29.7c-0.6,0-1-0.4-1-1s0.4-1,1-1h29.7c0.6,0,1,0.4,1,1S470,511.1,469.5,511.1z"/>
		</g>
	</g>
</g>
<g>
	<g>
		<path class="st18" d="M577.7,527.1h-103c-0.6,0-1-0.4-1-1s0.4-1,1-1h103c0.6,0,1,0.4,1,1S578.3,527.1,577.7,527.1z"/>
	</g>
</g>
<g>
	<g>
		<path class="st9" d="M436.6,367l1.1,1.6c0.2,0.3,0.5,0.5,0.9,0.6l1.9,0.5c1.1,0.3,1.5,1.6,0.8,2.5l-1.2,1.5
			c-0.2,0.3-0.3,0.7-0.3,1l0.1,1.9c0,1.1-1.1,1.9-2.1,1.5l-1.8-0.7c-0.3-0.1-0.7-0.1-1.1,0l-1.8,0.7c-1.1,0.4-2.2-0.4-2.1-1.5
			l0.1-1.9c0-0.4-0.1-0.7-0.3-1l-1.2-1.5c-0.7-0.9-0.3-2.2,0.8-2.5l1.9-0.5c0.4-0.1,0.7-0.3,0.9-0.6l1.1-1.6
			C434.5,366.1,435.9,366.1,436.6,367z"/>
	</g>
</g>
<g>
	<g>
		<path class="st9" d="M575.2,303.1l2.7,4l1.5,0.4c1.5,0.4,2.1,2.3,1.1,3.5l-1,1.3l0,1.6c0,1.6-1.5,2.7-3,2.2l-1.5-0.5l-4.6,1.6
			l0.1-4.8l-3-3.8l4.6-1.4L575.2,303.1z"/>
	</g>
</g>
<g>
	<g>
		<path class="st0" d="M634.2,252.1l2.7,4l1.5,0.4c1.5,0.4,2.1,2.3,1.1,3.5l-1,1.3l0,1.6c0,1.6-1.5,2.7-3,2.2l-1.5-0.5l-4.6,1.6
			l0.1-4.8l-3-3.8l4.6-1.4L634.2,252.1z"/>
	</g>
</g>
<g>
	<g>
		<g>
			<path class="st18" d="M563.7,370.1h-22.3c-0.6,0-1-0.4-1-1s0.4-1,1-1h22.3c0.6,0,1,0.4,1,1S564.3,370.1,563.7,370.1z"/>
		</g>
	</g>
	<g>
		<g>
			<path class="st18" d="M533.9,370.1h-51.2c-0.6,0-1-0.4-1-1s0.4-1,1-1h51.2c0.6,0,1,0.4,1,1S534.5,370.1,533.9,370.1z"/>
		</g>
	</g>
	<g>
		<g>
			<path class="st18" d="M555.7,394.1h-74c-0.6,0-1-0.4-1-1s0.4-1,1-1h74c0.6,0,1,0.4,1,1S556.3,394.1,555.7,394.1z"/>
		</g>
	</g>
	<g>
		<g>
			<path class="st18" d="M561.7,417.1h-51.3c-0.6,0-1-0.4-1-1s0.4-1,1-1h51.3c0.6,0,1,0.4,1,1S562.3,417.1,561.7,417.1z"/>
		</g>
	</g>
	<g>
		<g>
			<path class="st18" d="M502.9,417.1h-21.2c-0.6,0-1-0.4-1-1s0.4-1,1-1h21.2c0.6,0,1,0.4,1,1S503.5,417.1,502.9,417.1z"/>
		</g>
	</g>
	<g>
		<g>
			<path class="st18" d="M533.7,439.1h-54c-0.6,0-1-0.4-1-1s0.4-1,1-1h54c0.6,0,1,0.4,1,1S534.3,439.1,533.7,439.1z"/>
		</g>
	</g>
</g>
<g>
	<g>
		<circle class="st0" cx="374.7" cy="273.1" r="15"/>
	</g>
</g>
<path class="st19" d="M514,510.9c0-6.1,4.5-11,10-11s10,4.9,10,11"/>
<text transform="matrix(1 0 0 1 480.6665 573.6067)" class="st20 st21 st22">暂无数据</text>
<g>
	<g>
		<path class="st9" d="M597.3,411.4l9.3,10.1c0.8,0.8,0.7,2.1-0.1,2.9L555,470l-16.2,3.8c-0.4,0.1-0.7-0.3-0.6-0.6L543,457
			l51.5-45.7C595.3,410.6,596.6,410.6,597.3,411.4z"/>
		<path class="st18" d="M538.7,474.3c-0.3,0-0.5-0.1-0.7-0.3c-0.2-0.3-0.3-0.6-0.2-1l4.8-16.3l0.1-0.1l51.5-45.7
			c1-0.9,2.6-0.8,3.5,0.2v0l9.3,10.1c0.5,0.5,0.7,1.1,0.7,1.8c0,0.7-0.3,1.3-0.8,1.7l-51.6,45.7l-0.1,0l-16.2,3.8
			C538.9,474.3,538.8,474.3,538.7,474.3z M543.4,457.3l-4.7,16l16-3.8l51.4-45.6c0.3-0.3,0.5-0.6,0.5-1c0-0.4-0.1-0.8-0.4-1.1
			l-9.3-10.1v0c-0.6-0.6-1.5-0.6-2.1-0.1L543.4,457.3z"/>
	</g>
	<g>
		
			<rect x="592.5" y="415.6" transform="matrix(0.7399 -0.6727 0.6727 0.7399 -130.8684 509.4911)" class="st23" width="2" height="16.9"/>
	</g>
	<g>
		<polygon class="st23" points="554.8,470.2 546.3,461.7 542.7,457.1 544.3,455.9 547.8,460.4 556.2,468.8 		"/>
	</g>
	<g>
		<path class="st23" d="M547.5,461.5c-0.3,0-0.6-0.1-0.7-0.3c-0.4-0.4-0.3-1,0.1-1.4l43-38c0.4-0.4,1-0.3,1.4,0.1
			c0.4,0.4,0.3,1-0.1,1.4l-43,38C548,461.4,547.7,461.5,547.5,461.5z"/>
	</g>
</g>
</svg>
